<?xml version="1.0" encoding="utf-8" standalone="no"?>
<!DOCTYPE svg PUBLIC "-//W3C//DTD SVG 1.1//EN"
  "http://www.w3.org/Graphics/SVG/1.1/DTD/svg11.dtd">
<svg xmlns:xlink="http://www.w3.org/1999/xlink" width="864pt" height="576pt" viewBox="0 0 864 576" xmlns="http://www.w3.org/2000/svg" version="1.1">
 <metadata>
  <rdf:RDF xmlns:dc="http://purl.org/dc/elements/1.1/" xmlns:cc="http://creativecommons.org/ns#" xmlns:rdf="http://www.w3.org/1999/02/22-rdf-syntax-ns#">
   <cc:Work>
    <dc:type rdf:resource="http://purl.org/dc/dcmitype/StillImage"/>
    <dc:date>2024-11-28T07:48:54.039578</dc:date>
    <dc:format>image/svg+xml</dc:format>
    <dc:creator>
     <cc:Agent>
      <dc:title>Matplotlib v3.7.1, https://matplotlib.org/</dc:title>
     </cc:Agent>
    </dc:creator>
   </cc:Work>
  </rdf:RDF>
 </metadata>
 <defs>
  <style type="text/css">*{stroke-linejoin: round; stroke-linecap: butt}</style>
 </defs>
 <g id="figure_1">
  <g id="patch_1">
   <path d="M 0 576 
L 864 576 
L 864 0 
L 0 0 
z
" style="fill: #ffffff"/>
  </g>
  <g id="axes_1">
   <g id="patch_2">
    <path d="M 50.87 534.04 
L 717.34 534.04 
L 717.34 26.88 
L 50.87 26.88 
z
" style="fill: #ffffff"/>
   </g>
   <g id="matplotlib.axis_1">
    <g id="xtick_1">
     <g id="line2d_1">
      <path d="M 142.779191 534.04 
L 142.779191 26.88 
" clip-path="url(#pafac2eca35)" style="fill: none; stroke: #b0b0b0; stroke-width: 0.8; stroke-linecap: square"/>
     </g>
     <g id="line2d_2">
      <defs>
       <path id="m953433b112" d="M 0 0 
L 0 3.5 
" style="stroke: #000000; stroke-width: 0.8"/>
      </defs>
      <g>
       <use xlink:href="#m953433b112" x="142.779191" y="534.04" style="stroke: #000000; stroke-width: 0.8"/>
      </g>
     </g>
     <g id="text_1">
      <!-- 1970 -->
      <g transform="translate(130.054191 548.638438) scale(0.1 -0.1)">
       <defs>
        <path id="DejaVuSans-31" d="M 794 531 
L 1825 531 
L 1825 4091 
L 703 3866 
L 703 4441 
L 1819 4666 
L 2450 4666 
L 2450 531 
L 3481 531 
L 3481 0 
L 794 0 
L 794 531 
z
" transform="scale(0.015625)"/>
        <path id="DejaVuSans-39" d="M 703 97 
L 703 672 
Q 941 559 1184 500 
Q 1428 441 1663 441 
Q 2288 441 2617 861 
Q 2947 1281 2994 2138 
Q 2813 1869 2534 1725 
Q 2256 1581 1919 1581 
Q 1219 1581 811 2004 
Q 403 2428 403 3163 
Q 403 3881 828 4315 
Q 1253 4750 1959 4750 
Q 2769 4750 3195 4129 
Q 3622 3509 3622 2328 
Q 3622 1225 3098 567 
Q 2575 -91 1691 -91 
Q 1453 -91 1209 -44 
Q 966 3 703 97 
z
M 1959 2075 
Q 2384 2075 2632 2365 
Q 2881 2656 2881 3163 
Q 2881 3666 2632 3958 
Q 2384 4250 1959 4250 
Q 1534 4250 1286 3958 
Q 1038 3666 1038 3163 
Q 1038 2656 1286 2365 
Q 1534 2075 1959 2075 
z
" transform="scale(0.015625)"/>
        <path id="DejaVuSans-37" d="M 525 4666 
L 3525 4666 
L 3525 4397 
L 1831 0 
L 1172 0 
L 2766 4134 
L 525 4134 
L 525 4666 
z
" transform="scale(0.015625)"/>
        <path id="DejaVuSans-30" d="M 2034 4250 
Q 1547 4250 1301 3770 
Q 1056 3291 1056 2328 
Q 1056 1369 1301 889 
Q 1547 409 2034 409 
Q 2525 409 2770 889 
Q 3016 1369 3016 2328 
Q 3016 3291 2770 3770 
Q 2525 4250 2034 4250 
z
M 2034 4750 
Q 2819 4750 3233 4129 
Q 3647 3509 3647 2328 
Q 3647 1150 3233 529 
Q 2819 -91 2034 -91 
Q 1250 -91 836 529 
Q 422 1150 422 2328 
Q 422 3509 836 4129 
Q 1250 4750 2034 4750 
z
" transform="scale(0.015625)"/>
       </defs>
       <use xlink:href="#DejaVuSans-31"/>
       <use xlink:href="#DejaVuSans-39" x="63.623047"/>
       <use xlink:href="#DejaVuSans-37" x="127.246094"/>
       <use xlink:href="#DejaVuSans-30" x="190.869141"/>
      </g>
     </g>
    </g>
    <g id="xtick_2">
     <g id="line2d_3">
      <path d="M 245.471025 534.04 
L 245.471025 26.88 
" clip-path="url(#pafac2eca35)" style="fill: none; stroke: #b0b0b0; stroke-width: 0.8; stroke-linecap: square"/>
     </g>
     <g id="line2d_4">
      <g>
       <use xlink:href="#m953433b112" x="245.471025" y="534.04" style="stroke: #000000; stroke-width: 0.8"/>
      </g>
     </g>
     <g id="text_2">
      <!-- 1980 -->
      <g transform="translate(232.746025 548.638438) scale(0.1 -0.1)">
       <defs>
        <path id="DejaVuSans-38" d="M 2034 2216 
Q 1584 2216 1326 1975 
Q 1069 1734 1069 1313 
Q 1069 891 1326 650 
Q 1584 409 2034 409 
Q 2484 409 2743 651 
Q 3003 894 3003 1313 
Q 3003 1734 2745 1975 
Q 2488 2216 2034 2216 
z
M 1403 2484 
Q 997 2584 770 2862 
Q 544 3141 544 3541 
Q 544 4100 942 4425 
Q 1341 4750 2034 4750 
Q 2731 4750 3128 4425 
Q 3525 4100 3525 3541 
Q 3525 3141 3298 2862 
Q 3072 2584 2669 2484 
Q 3125 2378 3379 2068 
Q 3634 1759 3634 1313 
Q 3634 634 3220 271 
Q 2806 -91 2034 -91 
Q 1263 -91 848 271 
Q 434 634 434 1313 
Q 434 1759 690 2068 
Q 947 2378 1403 2484 
z
M 1172 3481 
Q 1172 3119 1398 2916 
Q 1625 2713 2034 2713 
Q 2441 2713 2670 2916 
Q 2900 3119 2900 3481 
Q 2900 3844 2670 4047 
Q 2441 4250 2034 4250 
Q 1625 4250 1398 4047 
Q 1172 3844 1172 3481 
z
" transform="scale(0.015625)"/>
       </defs>
       <use xlink:href="#DejaVuSans-31"/>
       <use xlink:href="#DejaVuSans-39" x="63.623047"/>
       <use xlink:href="#DejaVuSans-38" x="127.246094"/>
       <use xlink:href="#DejaVuSans-30" x="190.869141"/>
      </g>
     </g>
    </g>
    <g id="xtick_3">
     <g id="line2d_5">
      <path d="M 348.162858 534.04 
L 348.162858 26.88 
" clip-path="url(#pafac2eca35)" style="fill: none; stroke: #b0b0b0; stroke-width: 0.8; stroke-linecap: square"/>
     </g>
     <g id="line2d_6">
      <g>
       <use xlink:href="#m953433b112" x="348.162858" y="534.04" style="stroke: #000000; stroke-width: 0.8"/>
      </g>
     </g>
     <g id="text_3">
      <!-- 1990 -->
      <g transform="translate(335.437858 548.638438) scale(0.1 -0.1)">
       <use xlink:href="#DejaVuSans-31"/>
       <use xlink:href="#DejaVuSans-39" x="63.623047"/>
       <use xlink:href="#DejaVuSans-39" x="127.246094"/>
       <use xlink:href="#DejaVuSans-30" x="190.869141"/>
      </g>
     </g>
    </g>
    <g id="xtick_4">
     <g id="line2d_7">
      <path d="M 450.854692 534.04 
L 450.854692 26.88 
" clip-path="url(#pafac2eca35)" style="fill: none; stroke: #b0b0b0; stroke-width: 0.8; stroke-linecap: square"/>
     </g>
     <g id="line2d_8">
      <g>
       <use xlink:href="#m953433b112" x="450.854692" y="534.04" style="stroke: #000000; stroke-width: 0.8"/>
      </g>
     </g>
     <g id="text_4">
      <!-- 2000 -->
      <g transform="translate(438.129692 548.638438) scale(0.1 -0.1)">
       <defs>
        <path id="DejaVuSans-32" d="M 1228 531 
L 3431 531 
L 3431 0 
L 469 0 
L 469 531 
Q 828 903 1448 1529 
Q 2069 2156 2228 2338 
Q 2531 2678 2651 2914 
Q 2772 3150 2772 3378 
Q 2772 3750 2511 3984 
Q 2250 4219 1831 4219 
Q 1534 4219 1204 4116 
Q 875 4013 500 3803 
L 500 4441 
Q 881 4594 1212 4672 
Q 1544 4750 1819 4750 
Q 2544 4750 2975 4387 
Q 3406 4025 3406 3419 
Q 3406 3131 3298 2873 
Q 3191 2616 2906 2266 
Q 2828 2175 2409 1742 
Q 1991 1309 1228 531 
z
" transform="scale(0.015625)"/>
       </defs>
       <use xlink:href="#DejaVuSans-32"/>
       <use xlink:href="#DejaVuSans-30" x="63.623047"/>
       <use xlink:href="#DejaVuSans-30" x="127.246094"/>
       <use xlink:href="#DejaVuSans-30" x="190.869141"/>
      </g>
     </g>
    </g>
    <g id="xtick_5">
     <g id="line2d_9">
      <path d="M 553.546525 534.04 
L 553.546525 26.88 
" clip-path="url(#pafac2eca35)" style="fill: none; stroke: #b0b0b0; stroke-width: 0.8; stroke-linecap: square"/>
     </g>
     <g id="line2d_10">
      <g>
       <use xlink:href="#m953433b112" x="553.546525" y="534.04" style="stroke: #000000; stroke-width: 0.8"/>
      </g>
     </g>
     <g id="text_5">
      <!-- 2010 -->
      <g transform="translate(540.821525 548.638438) scale(0.1 -0.1)">
       <use xlink:href="#DejaVuSans-32"/>
       <use xlink:href="#DejaVuSans-30" x="63.623047"/>
       <use xlink:href="#DejaVuSans-31" x="127.246094"/>
       <use xlink:href="#DejaVuSans-30" x="190.869141"/>
      </g>
     </g>
    </g>
    <g id="xtick_6">
     <g id="line2d_11">
      <path d="M 656.238359 534.04 
L 656.238359 26.88 
" clip-path="url(#pafac2eca35)" style="fill: none; stroke: #b0b0b0; stroke-width: 0.8; stroke-linecap: square"/>
     </g>
     <g id="line2d_12">
      <g>
       <use xlink:href="#m953433b112" x="656.238359" y="534.04" style="stroke: #000000; stroke-width: 0.8"/>
      </g>
     </g>
     <g id="text_6">
      <!-- 2020 -->
      <g transform="translate(643.513359 548.638438) scale(0.1 -0.1)">
       <use xlink:href="#DejaVuSans-32"/>
       <use xlink:href="#DejaVuSans-30" x="63.623047"/>
       <use xlink:href="#DejaVuSans-32" x="127.246094"/>
       <use xlink:href="#DejaVuSans-30" x="190.869141"/>
      </g>
     </g>
    </g>
    <g id="text_7">
     <!-- Year -->
     <g transform="translate(373.5175 562.316562) scale(0.1 -0.1)">
      <defs>
       <path id="DejaVuSans-59" d="M -13 4666 
L 666 4666 
L 1959 2747 
L 3244 4666 
L 3922 4666 
L 2272 2222 
L 2272 0 
L 1638 0 
L 1638 2222 
L -13 4666 
z
" transform="scale(0.015625)"/>
       <path id="DejaVuSans-65" d="M 3597 1894 
L 3597 1613 
L 953 1613 
Q 991 1019 1311 708 
Q 1631 397 2203 397 
Q 2534 397 2845 478 
Q 3156 559 3463 722 
L 3463 178 
Q 3153 47 2828 -22 
Q 2503 -91 2169 -91 
Q 1331 -91 842 396 
Q 353 884 353 1716 
Q 353 2575 817 3079 
Q 1281 3584 2069 3584 
Q 2775 3584 3186 3129 
Q 3597 2675 3597 1894 
z
M 3022 2063 
Q 3016 2534 2758 2815 
Q 2500 3097 2075 3097 
Q 1594 3097 1305 2825 
Q 1016 2553 972 2059 
L 3022 2063 
z
" transform="scale(0.015625)"/>
       <path id="DejaVuSans-61" d="M 2194 1759 
Q 1497 1759 1228 1600 
Q 959 1441 959 1056 
Q 959 750 1161 570 
Q 1363 391 1709 391 
Q 2188 391 2477 730 
Q 2766 1069 2766 1631 
L 2766 1759 
L 2194 1759 
z
M 3341 1997 
L 3341 0 
L 2766 0 
L 2766 531 
Q 2569 213 2275 61 
Q 1981 -91 1556 -91 
Q 1019 -91 701 211 
Q 384 513 384 1019 
Q 384 1609 779 1909 
Q 1175 2209 1959 2209 
L 2766 2209 
L 2766 2266 
Q 2766 2663 2505 2880 
Q 2244 3097 1772 3097 
Q 1472 3097 1187 3025 
Q 903 2953 641 2809 
L 641 3341 
Q 956 3463 1253 3523 
Q 1550 3584 1831 3584 
Q 2591 3584 2966 3190 
Q 3341 2797 3341 1997 
z
" transform="scale(0.015625)"/>
       <path id="DejaVuSans-72" d="M 2631 2963 
Q 2534 3019 2420 3045 
Q 2306 3072 2169 3072 
Q 1681 3072 1420 2755 
Q 1159 2438 1159 1844 
L 1159 0 
L 581 0 
L 581 3500 
L 1159 3500 
L 1159 2956 
Q 1341 3275 1631 3429 
Q 1922 3584 2338 3584 
Q 2397 3584 2469 3576 
Q 2541 3569 2628 3553 
L 2631 2963 
z
" transform="scale(0.015625)"/>
      </defs>
      <use xlink:href="#DejaVuSans-59"/>
      <use xlink:href="#DejaVuSans-65" x="47.833984"/>
      <use xlink:href="#DejaVuSans-61" x="109.357422"/>
      <use xlink:href="#DejaVuSans-72" x="170.636719"/>
     </g>
    </g>
   </g>
   <g id="matplotlib.axis_2">
    <g id="ytick_1">
     <g id="line2d_13">
      <path d="M 50.87 511.681554 
L 717.34 511.681554 
" clip-path="url(#pafac2eca35)" style="fill: none; stroke: #b0b0b0; stroke-width: 0.8; stroke-linecap: square"/>
     </g>
     <g id="line2d_14">
      <defs>
       <path id="m652cdd3f3c" d="M 0 0 
L -3.5 0 
" style="stroke: #000000; stroke-width: 0.8"/>
      </defs>
      <g>
       <use xlink:href="#m652cdd3f3c" x="50.87" y="511.681554" style="stroke: #000000; stroke-width: 0.8"/>
      </g>
     </g>
     <g id="text_8">
      <!-- 0 -->
      <g transform="translate(37.5075 515.480773) scale(0.1 -0.1)">
       <use xlink:href="#DejaVuSans-30"/>
      </g>
     </g>
    </g>
    <g id="ytick_2">
     <g id="line2d_15">
      <path d="M 50.87 407.567983 
L 717.34 407.567983 
" clip-path="url(#pafac2eca35)" style="fill: none; stroke: #b0b0b0; stroke-width: 0.8; stroke-linecap: square"/>
     </g>
     <g id="line2d_16">
      <g>
       <use xlink:href="#m652cdd3f3c" x="50.87" y="407.567983" style="stroke: #000000; stroke-width: 0.8"/>
      </g>
     </g>
     <g id="text_9">
      <!-- 50 -->
      <g transform="translate(31.145 411.367202) scale(0.1 -0.1)">
       <defs>
        <path id="DejaVuSans-35" d="M 691 4666 
L 3169 4666 
L 3169 4134 
L 1269 4134 
L 1269 2991 
Q 1406 3038 1543 3061 
Q 1681 3084 1819 3084 
Q 2600 3084 3056 2656 
Q 3513 2228 3513 1497 
Q 3513 744 3044 326 
Q 2575 -91 1722 -91 
Q 1428 -91 1123 -41 
Q 819 9 494 109 
L 494 744 
Q 775 591 1075 516 
Q 1375 441 1709 441 
Q 2250 441 2565 725 
Q 2881 1009 2881 1497 
Q 2881 1984 2565 2268 
Q 2250 2553 1709 2553 
Q 1456 2553 1204 2497 
Q 953 2441 691 2322 
L 691 4666 
z
" transform="scale(0.015625)"/>
       </defs>
       <use xlink:href="#DejaVuSans-35"/>
       <use xlink:href="#DejaVuSans-30" x="63.623047"/>
      </g>
     </g>
    </g>
    <g id="ytick_3">
     <g id="line2d_17">
      <path d="M 50.87 303.454412 
L 717.34 303.454412 
" clip-path="url(#pafac2eca35)" style="fill: none; stroke: #b0b0b0; stroke-width: 0.8; stroke-linecap: square"/>
     </g>
     <g id="line2d_18">
      <g>
       <use xlink:href="#m652cdd3f3c" x="50.87" y="303.454412" style="stroke: #000000; stroke-width: 0.8"/>
      </g>
     </g>
     <g id="text_10">
      <!-- 100 -->
      <g transform="translate(24.7825 307.253631) scale(0.1 -0.1)">
       <use xlink:href="#DejaVuSans-31"/>
       <use xlink:href="#DejaVuSans-30" x="63.623047"/>
       <use xlink:href="#DejaVuSans-30" x="127.246094"/>
      </g>
     </g>
    </g>
    <g id="ytick_4">
     <g id="line2d_19">
      <path d="M 50.87 199.340841 
L 717.34 199.340841 
" clip-path="url(#pafac2eca35)" style="fill: none; stroke: #b0b0b0; stroke-width: 0.8; stroke-linecap: square"/>
     </g>
     <g id="line2d_20">
      <g>
       <use xlink:href="#m652cdd3f3c" x="50.87" y="199.340841" style="stroke: #000000; stroke-width: 0.8"/>
      </g>
     </g>
     <g id="text_11">
      <!-- 150 -->
      <g transform="translate(24.7825 203.14006) scale(0.1 -0.1)">
       <use xlink:href="#DejaVuSans-31"/>
       <use xlink:href="#DejaVuSans-35" x="63.623047"/>
       <use xlink:href="#DejaVuSans-30" x="127.246094"/>
      </g>
     </g>
    </g>
    <g id="ytick_5">
     <g id="line2d_21">
      <path d="M 50.87 95.22727 
L 717.34 95.22727 
" clip-path="url(#pafac2eca35)" style="fill: none; stroke: #b0b0b0; stroke-width: 0.8; stroke-linecap: square"/>
     </g>
     <g id="line2d_22">
      <g>
       <use xlink:href="#m652cdd3f3c" x="50.87" y="95.22727" style="stroke: #000000; stroke-width: 0.8"/>
      </g>
     </g>
     <g id="text_12">
      <!-- 200 -->
      <g transform="translate(24.7825 99.026488) scale(0.1 -0.1)">
       <use xlink:href="#DejaVuSans-32"/>
       <use xlink:href="#DejaVuSans-30" x="63.623047"/>
       <use xlink:href="#DejaVuSans-30" x="127.246094"/>
      </g>
     </g>
    </g>
    <g id="text_13">
     <!-- Value (in Millions) -->
     <g transform="translate(18.702813 324.531875) rotate(-90) scale(0.1 -0.1)">
      <defs>
       <path id="DejaVuSans-56" d="M 1831 0 
L 50 4666 
L 709 4666 
L 2188 738 
L 3669 4666 
L 4325 4666 
L 2547 0 
L 1831 0 
z
" transform="scale(0.015625)"/>
       <path id="DejaVuSans-6c" d="M 603 4863 
L 1178 4863 
L 1178 0 
L 603 0 
L 603 4863 
z
" transform="scale(0.015625)"/>
       <path id="DejaVuSans-75" d="M 544 1381 
L 544 3500 
L 1119 3500 
L 1119 1403 
Q 1119 906 1312 657 
Q 1506 409 1894 409 
Q 2359 409 2629 706 
Q 2900 1003 2900 1516 
L 2900 3500 
L 3475 3500 
L 3475 0 
L 2900 0 
L 2900 538 
Q 2691 219 2414 64 
Q 2138 -91 1772 -91 
Q 1169 -91 856 284 
Q 544 659 544 1381 
z
M 1991 3584 
L 1991 3584 
z
" transform="scale(0.015625)"/>
       <path id="DejaVuSans-20" transform="scale(0.015625)"/>
       <path id="DejaVuSans-28" d="M 1984 4856 
Q 1566 4138 1362 3434 
Q 1159 2731 1159 2009 
Q 1159 1288 1364 580 
Q 1569 -128 1984 -844 
L 1484 -844 
Q 1016 -109 783 600 
Q 550 1309 550 2009 
Q 550 2706 781 3412 
Q 1013 4119 1484 4856 
L 1984 4856 
z
" transform="scale(0.015625)"/>
       <path id="DejaVuSans-69" d="M 603 3500 
L 1178 3500 
L 1178 0 
L 603 0 
L 603 3500 
z
M 603 4863 
L 1178 4863 
L 1178 4134 
L 603 4134 
L 603 4863 
z
" transform="scale(0.015625)"/>
       <path id="DejaVuSans-6e" d="M 3513 2113 
L 3513 0 
L 2938 0 
L 2938 2094 
Q 2938 2591 2744 2837 
Q 2550 3084 2163 3084 
Q 1697 3084 1428 2787 
Q 1159 2491 1159 1978 
L 1159 0 
L 581 0 
L 581 3500 
L 1159 3500 
L 1159 2956 
Q 1366 3272 1645 3428 
Q 1925 3584 2291 3584 
Q 2894 3584 3203 3211 
Q 3513 2838 3513 2113 
z
" transform="scale(0.015625)"/>
       <path id="DejaVuSans-4d" d="M 628 4666 
L 1569 4666 
L 2759 1491 
L 3956 4666 
L 4897 4666 
L 4897 0 
L 4281 0 
L 4281 4097 
L 3078 897 
L 2444 897 
L 1241 4097 
L 1241 0 
L 628 0 
L 628 4666 
z
" transform="scale(0.015625)"/>
       <path id="DejaVuSans-6f" d="M 1959 3097 
Q 1497 3097 1228 2736 
Q 959 2375 959 1747 
Q 959 1119 1226 758 
Q 1494 397 1959 397 
Q 2419 397 2687 759 
Q 2956 1122 2956 1747 
Q 2956 2369 2687 2733 
Q 2419 3097 1959 3097 
z
M 1959 3584 
Q 2709 3584 3137 3096 
Q 3566 2609 3566 1747 
Q 3566 888 3137 398 
Q 2709 -91 1959 -91 
Q 1206 -91 779 398 
Q 353 888 353 1747 
Q 353 2609 779 3096 
Q 1206 3584 1959 3584 
z
" transform="scale(0.015625)"/>
       <path id="DejaVuSans-73" d="M 2834 3397 
L 2834 2853 
Q 2591 2978 2328 3040 
Q 2066 3103 1784 3103 
Q 1356 3103 1142 2972 
Q 928 2841 928 2578 
Q 928 2378 1081 2264 
Q 1234 2150 1697 2047 
L 1894 2003 
Q 2506 1872 2764 1633 
Q 3022 1394 3022 966 
Q 3022 478 2636 193 
Q 2250 -91 1575 -91 
Q 1294 -91 989 -36 
Q 684 19 347 128 
L 347 722 
Q 666 556 975 473 
Q 1284 391 1588 391 
Q 1994 391 2212 530 
Q 2431 669 2431 922 
Q 2431 1156 2273 1281 
Q 2116 1406 1581 1522 
L 1381 1569 
Q 847 1681 609 1914 
Q 372 2147 372 2553 
Q 372 3047 722 3315 
Q 1072 3584 1716 3584 
Q 2034 3584 2315 3537 
Q 2597 3491 2834 3397 
z
" transform="scale(0.015625)"/>
       <path id="DejaVuSans-29" d="M 513 4856 
L 1013 4856 
Q 1481 4119 1714 3412 
Q 1947 2706 1947 2009 
Q 1947 1309 1714 600 
Q 1481 -109 1013 -844 
L 513 -844 
Q 928 -128 1133 580 
Q 1338 1288 1338 2009 
Q 1338 2731 1133 3434 
Q 928 4138 513 4856 
z
" transform="scale(0.015625)"/>
      </defs>
      <use xlink:href="#DejaVuSans-56"/>
      <use xlink:href="#DejaVuSans-61" x="60.658203"/>
      <use xlink:href="#DejaVuSans-6c" x="121.9375"/>
      <use xlink:href="#DejaVuSans-75" x="149.720703"/>
      <use xlink:href="#DejaVuSans-65" x="213.099609"/>
      <use xlink:href="#DejaVuSans-20" x="274.623047"/>
      <use xlink:href="#DejaVuSans-28" x="306.410156"/>
      <use xlink:href="#DejaVuSans-69" x="345.423828"/>
      <use xlink:href="#DejaVuSans-6e" x="373.207031"/>
      <use xlink:href="#DejaVuSans-20" x="436.585938"/>
      <use xlink:href="#DejaVuSans-4d" x="468.373047"/>
      <use xlink:href="#DejaVuSans-69" x="554.652344"/>
      <use xlink:href="#DejaVuSans-6c" x="582.435547"/>
      <use xlink:href="#DejaVuSans-6c" x="610.21875"/>
      <use xlink:href="#DejaVuSans-69" x="638.001953"/>
      <use xlink:href="#DejaVuSans-6f" x="665.785156"/>
      <use xlink:href="#DejaVuSans-6e" x="726.966797"/>
      <use xlink:href="#DejaVuSans-73" x="790.345703"/>
      <use xlink:href="#DejaVuSans-29" x="842.445312"/>
     </g>
    </g>
   </g>
   <g id="line2d_23">
    <path d="M 81.164091 509.081032 
L 91.433274 508.015971 
L 101.702458 507.383567 
L 111.971641 507.643159 
L 122.240824 507.269762 
L 132.510008 506.919381 
L 142.779191 506.478074 
L 153.048374 505.878855 
L 163.317558 505.986 
L 173.586741 505.285608 
L 183.855924 502.942921 
L 194.125108 502.669385 
L 204.394291 502.270795 
L 214.663475 500.595551 
L 224.932658 499.324512 
L 235.201841 495.523255 
L 245.471025 494.473865 
L 255.740208 488.561863 
L 266.009391 489.338561 
L 276.278575 491.239685 
L 286.547758 489.362203 
L 296.816941 491.271725 
L 307.086125 488.608417 
L 317.355308 486.926006 
L 327.624492 482.908396 
L 337.893675 484.475493 
L 348.162858 483.30033 
L 358.432042 476.306186 
L 368.701225 476.675896 
L 378.970408 479.602624 
L 389.239592 471.745131 
L 399.508775 478.860548 
L 409.777958 476.646153 
L 420.047142 457.371047 
L 430.316325 466.368977 
L 440.585508 440.383679 
L 450.854692 448.142668 
L 461.123875 470.444353 
L 471.393059 446.67217 
L 481.662242 468.95343 
L 491.931425 435.487515 
L 502.200609 433.063824 
L 512.469792 432.061381 
L 522.738975 435.569124 
L 533.008159 444.729629 
L 543.277342 448.217167 
L 553.546525 429.563183 
L 563.815709 424.918393 
L 574.084892 427.485609 
L 584.354076 430.237424 
L 594.623259 414.236047 
L 604.892442 401.103807 
L 615.161626 383.675212 
L 625.430809 411.830128 
L 635.699992 386.014762 
L 645.969176 393.052021 
L 656.238359 414.731963 
L 666.507542 316.59838 
L 676.776726 411.093906 
L 687.045909 388.408271 
" clip-path="url(#pafac2eca35)" style="fill: none; stroke: #1f77b4; stroke-width: 1.5; stroke-linecap: square"/>
    <defs>
     <path id="m8d48741fd9" d="M 0 3 
C 0.795609 3 1.55874 2.683901 2.12132 2.12132 
C 2.683901 1.55874 3 0.795609 3 0 
C 3 -0.795609 2.683901 -1.55874 2.12132 -2.12132 
C 1.55874 -2.683901 0.795609 -3 0 -3 
C -0.795609 -3 -1.55874 -2.683901 -2.12132 -2.12132 
C -2.683901 -1.55874 -3 -0.795609 -3 0 
C -3 0.795609 -2.683901 1.55874 -2.12132 2.12132 
C -1.55874 2.683901 -0.795609 3 0 3 
z
" style="stroke: #1f77b4"/>
    </defs>
    <g clip-path="url(#pafac2eca35)">
     <use xlink:href="#m8d48741fd9" x="81.164091" y="509.081032" style="fill: #1f77b4; stroke: #1f77b4"/>
     <use xlink:href="#m8d48741fd9" x="91.433274" y="508.015971" style="fill: #1f77b4; stroke: #1f77b4"/>
     <use xlink:href="#m8d48741fd9" x="101.702458" y="507.383567" style="fill: #1f77b4; stroke: #1f77b4"/>
     <use xlink:href="#m8d48741fd9" x="111.971641" y="507.643159" style="fill: #1f77b4; stroke: #1f77b4"/>
     <use xlink:href="#m8d48741fd9" x="122.240824" y="507.269762" style="fill: #1f77b4; stroke: #1f77b4"/>
     <use xlink:href="#m8d48741fd9" x="132.510008" y="506.919381" style="fill: #1f77b4; stroke: #1f77b4"/>
     <use xlink:href="#m8d48741fd9" x="142.779191" y="506.478074" style="fill: #1f77b4; stroke: #1f77b4"/>
     <use xlink:href="#m8d48741fd9" x="153.048374" y="505.878855" style="fill: #1f77b4; stroke: #1f77b4"/>
     <use xlink:href="#m8d48741fd9" x="163.317558" y="505.986" style="fill: #1f77b4; stroke: #1f77b4"/>
     <use xlink:href="#m8d48741fd9" x="173.586741" y="505.285608" style="fill: #1f77b4; stroke: #1f77b4"/>
     <use xlink:href="#m8d48741fd9" x="183.855924" y="502.942921" style="fill: #1f77b4; stroke: #1f77b4"/>
     <use xlink:href="#m8d48741fd9" x="194.125108" y="502.669385" style="fill: #1f77b4; stroke: #1f77b4"/>
     <use xlink:href="#m8d48741fd9" x="204.394291" y="502.270795" style="fill: #1f77b4; stroke: #1f77b4"/>
     <use xlink:href="#m8d48741fd9" x="214.663475" y="500.595551" style="fill: #1f77b4; stroke: #1f77b4"/>
     <use xlink:href="#m8d48741fd9" x="224.932658" y="499.324512" style="fill: #1f77b4; stroke: #1f77b4"/>
     <use xlink:href="#m8d48741fd9" x="235.201841" y="495.523255" style="fill: #1f77b4; stroke: #1f77b4"/>
     <use xlink:href="#m8d48741fd9" x="245.471025" y="494.473865" style="fill: #1f77b4; stroke: #1f77b4"/>
     <use xlink:href="#m8d48741fd9" x="255.740208" y="488.561863" style="fill: #1f77b4; stroke: #1f77b4"/>
     <use xlink:href="#m8d48741fd9" x="266.009391" y="489.338561" style="fill: #1f77b4; stroke: #1f77b4"/>
     <use xlink:href="#m8d48741fd9" x="276.278575" y="491.239685" style="fill: #1f77b4; stroke: #1f77b4"/>
     <use xlink:href="#m8d48741fd9" x="286.547758" y="489.362203" style="fill: #1f77b4; stroke: #1f77b4"/>
     <use xlink:href="#m8d48741fd9" x="296.816941" y="491.271725" style="fill: #1f77b4; stroke: #1f77b4"/>
     <use xlink:href="#m8d48741fd9" x="307.086125" y="488.608417" style="fill: #1f77b4; stroke: #1f77b4"/>
     <use xlink:href="#m8d48741fd9" x="317.355308" y="486.926006" style="fill: #1f77b4; stroke: #1f77b4"/>
     <use xlink:href="#m8d48741fd9" x="327.624492" y="482.908396" style="fill: #1f77b4; stroke: #1f77b4"/>
     <use xlink:href="#m8d48741fd9" x="337.893675" y="484.475493" style="fill: #1f77b4; stroke: #1f77b4"/>
     <use xlink:href="#m8d48741fd9" x="348.162858" y="483.30033" style="fill: #1f77b4; stroke: #1f77b4"/>
     <use xlink:href="#m8d48741fd9" x="358.432042" y="476.306186" style="fill: #1f77b4; stroke: #1f77b4"/>
     <use xlink:href="#m8d48741fd9" x="368.701225" y="476.675896" style="fill: #1f77b4; stroke: #1f77b4"/>
     <use xlink:href="#m8d48741fd9" x="378.970408" y="479.602624" style="fill: #1f77b4; stroke: #1f77b4"/>
     <use xlink:href="#m8d48741fd9" x="389.239592" y="471.745131" style="fill: #1f77b4; stroke: #1f77b4"/>
     <use xlink:href="#m8d48741fd9" x="399.508775" y="478.860548" style="fill: #1f77b4; stroke: #1f77b4"/>
     <use xlink:href="#m8d48741fd9" x="409.777958" y="476.646153" style="fill: #1f77b4; stroke: #1f77b4"/>
     <use xlink:href="#m8d48741fd9" x="420.047142" y="457.371047" style="fill: #1f77b4; stroke: #1f77b4"/>
     <use xlink:href="#m8d48741fd9" x="430.316325" y="466.368977" style="fill: #1f77b4; stroke: #1f77b4"/>
     <use xlink:href="#m8d48741fd9" x="440.585508" y="440.383679" style="fill: #1f77b4; stroke: #1f77b4"/>
     <use xlink:href="#m8d48741fd9" x="450.854692" y="448.142668" style="fill: #1f77b4; stroke: #1f77b4"/>
     <use xlink:href="#m8d48741fd9" x="461.123875" y="470.444353" style="fill: #1f77b4; stroke: #1f77b4"/>
     <use xlink:href="#m8d48741fd9" x="471.393059" y="446.67217" style="fill: #1f77b4; stroke: #1f77b4"/>
     <use xlink:href="#m8d48741fd9" x="481.662242" y="468.95343" style="fill: #1f77b4; stroke: #1f77b4"/>
     <use xlink:href="#m8d48741fd9" x="491.931425" y="435.487515" style="fill: #1f77b4; stroke: #1f77b4"/>
     <use xlink:href="#m8d48741fd9" x="502.200609" y="433.063824" style="fill: #1f77b4; stroke: #1f77b4"/>
     <use xlink:href="#m8d48741fd9" x="512.469792" y="432.061381" style="fill: #1f77b4; stroke: #1f77b4"/>
     <use xlink:href="#m8d48741fd9" x="522.738975" y="435.569124" style="fill: #1f77b4; stroke: #1f77b4"/>
     <use xlink:href="#m8d48741fd9" x="533.008159" y="444.729629" style="fill: #1f77b4; stroke: #1f77b4"/>
     <use xlink:href="#m8d48741fd9" x="543.277342" y="448.217167" style="fill: #1f77b4; stroke: #1f77b4"/>
     <use xlink:href="#m8d48741fd9" x="553.546525" y="429.563183" style="fill: #1f77b4; stroke: #1f77b4"/>
     <use xlink:href="#m8d48741fd9" x="563.815709" y="424.918393" style="fill: #1f77b4; stroke: #1f77b4"/>
     <use xlink:href="#m8d48741fd9" x="574.084892" y="427.485609" style="fill: #1f77b4; stroke: #1f77b4"/>
     <use xlink:href="#m8d48741fd9" x="584.354076" y="430.237424" style="fill: #1f77b4; stroke: #1f77b4"/>
     <use xlink:href="#m8d48741fd9" x="594.623259" y="414.236047" style="fill: #1f77b4; stroke: #1f77b4"/>
     <use xlink:href="#m8d48741fd9" x="604.892442" y="401.103807" style="fill: #1f77b4; stroke: #1f77b4"/>
     <use xlink:href="#m8d48741fd9" x="615.161626" y="383.675212" style="fill: #1f77b4; stroke: #1f77b4"/>
     <use xlink:href="#m8d48741fd9" x="625.430809" y="411.830128" style="fill: #1f77b4; stroke: #1f77b4"/>
     <use xlink:href="#m8d48741fd9" x="635.699992" y="386.014762" style="fill: #1f77b4; stroke: #1f77b4"/>
     <use xlink:href="#m8d48741fd9" x="645.969176" y="393.052021" style="fill: #1f77b4; stroke: #1f77b4"/>
     <use xlink:href="#m8d48741fd9" x="656.238359" y="414.731963" style="fill: #1f77b4; stroke: #1f77b4"/>
     <use xlink:href="#m8d48741fd9" x="666.507542" y="316.59838" style="fill: #1f77b4; stroke: #1f77b4"/>
     <use xlink:href="#m8d48741fd9" x="676.776726" y="411.093906" style="fill: #1f77b4; stroke: #1f77b4"/>
     <use xlink:href="#m8d48741fd9" x="687.045909" y="388.408271" style="fill: #1f77b4; stroke: #1f77b4"/>
    </g>
   </g>
   <g id="line2d_24">
    <path d="M 81.164091 503.727819 
L 91.433274 503.592827 
L 101.702458 503.527052 
L 111.971641 504.535532 
L 122.240824 503.858887 
L 132.510008 502.809237 
L 142.779191 502.324043 
L 153.048374 502.526379 
L 163.317558 501.737761 
L 173.586741 498.30524 
L 183.855924 499.921285 
L 194.125108 498.554563 
L 204.394291 496.606332 
L 214.663475 496.057907 
L 224.932658 494.420328 
L 235.201841 491.150331 
L 245.471025 489.406891 
L 255.740208 489.652934 
L 266.009391 488.621722 
L 276.278575 488.441906 
L 286.547758 494.088684 
L 296.816941 493.788606 
L 307.086125 494.023172 
L 317.355308 490.748725 
L 327.624492 489.551698 
L 337.893675 487.264348 
L 348.162858 487.29498 
L 358.432042 479.450383 
L 368.701225 488.072159 
L 378.970408 485.054562 
L 389.239592 473.27812 
L 399.508775 469.892424 
L 409.777958 473.277233 
L 420.047142 456.304152 
L 430.316325 446.764142 
L 440.585508 432.76699 
L 450.854692 408.793196 
L 461.123875 444.191296 
L 471.393059 392.436031 
L 481.662242 400.163667 
L 491.931425 367.658938 
L 502.200609 327.066112 
L 512.469792 333.537785 
L 522.738975 348.583308 
L 533.008159 367.60812 
L 543.277342 366.823866 
L 553.546525 295.757468 
L 563.815709 286.401825 
L 574.084892 273.829358 
L 584.354076 253.926195 
L 594.623259 189.177103 
L 604.892442 162.51287 
L 615.161626 136.014998 
L 625.430809 205.373866 
L 635.699992 188.106099 
L 645.969176 194.801683 
L 656.238359 242.171271 
L 666.507542 49.932727 
L 676.776726 253.112908 
L 687.045909 218.60066 
" clip-path="url(#pafac2eca35)" style="fill: none; stroke: #ff7f0e; stroke-width: 1.5; stroke-linecap: square"/>
    <defs>
     <path id="m978d08d37e" d="M 0 3 
C 0.795609 3 1.55874 2.683901 2.12132 2.12132 
C 2.683901 1.55874 3 0.795609 3 0 
C 3 -0.795609 2.683901 -1.55874 2.12132 -2.12132 
C 1.55874 -2.683901 0.795609 -3 0 -3 
C -0.795609 -3 -1.55874 -2.683901 -2.12132 -2.12132 
C -2.683901 -1.55874 -3 -0.795609 -3 0 
C -3 0.795609 -2.683901 1.55874 -2.12132 2.12132 
C -1.55874 2.683901 -0.795609 3 0 3 
z
" style="stroke: #ff7f0e"/>
    </defs>
    <g clip-path="url(#pafac2eca35)">
     <use xlink:href="#m978d08d37e" x="81.164091" y="503.727819" style="fill: #ff7f0e; stroke: #ff7f0e"/>
     <use xlink:href="#m978d08d37e" x="91.433274" y="503.592827" style="fill: #ff7f0e; stroke: #ff7f0e"/>
     <use xlink:href="#m978d08d37e" x="101.702458" y="503.527052" style="fill: #ff7f0e; stroke: #ff7f0e"/>
     <use xlink:href="#m978d08d37e" x="111.971641" y="504.535532" style="fill: #ff7f0e; stroke: #ff7f0e"/>
     <use xlink:href="#m978d08d37e" x="122.240824" y="503.858887" style="fill: #ff7f0e; stroke: #ff7f0e"/>
     <use xlink:href="#m978d08d37e" x="132.510008" y="502.809237" style="fill: #ff7f0e; stroke: #ff7f0e"/>
     <use xlink:href="#m978d08d37e" x="142.779191" y="502.324043" style="fill: #ff7f0e; stroke: #ff7f0e"/>
     <use xlink:href="#m978d08d37e" x="153.048374" y="502.526379" style="fill: #ff7f0e; stroke: #ff7f0e"/>
     <use xlink:href="#m978d08d37e" x="163.317558" y="501.737761" style="fill: #ff7f0e; stroke: #ff7f0e"/>
     <use xlink:href="#m978d08d37e" x="173.586741" y="498.30524" style="fill: #ff7f0e; stroke: #ff7f0e"/>
     <use xlink:href="#m978d08d37e" x="183.855924" y="499.921285" style="fill: #ff7f0e; stroke: #ff7f0e"/>
     <use xlink:href="#m978d08d37e" x="194.125108" y="498.554563" style="fill: #ff7f0e; stroke: #ff7f0e"/>
     <use xlink:href="#m978d08d37e" x="204.394291" y="496.606332" style="fill: #ff7f0e; stroke: #ff7f0e"/>
     <use xlink:href="#m978d08d37e" x="214.663475" y="496.057907" style="fill: #ff7f0e; stroke: #ff7f0e"/>
     <use xlink:href="#m978d08d37e" x="224.932658" y="494.420328" style="fill: #ff7f0e; stroke: #ff7f0e"/>
     <use xlink:href="#m978d08d37e" x="235.201841" y="491.150331" style="fill: #ff7f0e; stroke: #ff7f0e"/>
     <use xlink:href="#m978d08d37e" x="245.471025" y="489.406891" style="fill: #ff7f0e; stroke: #ff7f0e"/>
     <use xlink:href="#m978d08d37e" x="255.740208" y="489.652934" style="fill: #ff7f0e; stroke: #ff7f0e"/>
     <use xlink:href="#m978d08d37e" x="266.009391" y="488.621722" style="fill: #ff7f0e; stroke: #ff7f0e"/>
     <use xlink:href="#m978d08d37e" x="276.278575" y="488.441906" style="fill: #ff7f0e; stroke: #ff7f0e"/>
     <use xlink:href="#m978d08d37e" x="286.547758" y="494.088684" style="fill: #ff7f0e; stroke: #ff7f0e"/>
     <use xlink:href="#m978d08d37e" x="296.816941" y="493.788606" style="fill: #ff7f0e; stroke: #ff7f0e"/>
     <use xlink:href="#m978d08d37e" x="307.086125" y="494.023172" style="fill: #ff7f0e; stroke: #ff7f0e"/>
     <use xlink:href="#m978d08d37e" x="317.355308" y="490.748725" style="fill: #ff7f0e; stroke: #ff7f0e"/>
     <use xlink:href="#m978d08d37e" x="327.624492" y="489.551698" style="fill: #ff7f0e; stroke: #ff7f0e"/>
     <use xlink:href="#m978d08d37e" x="337.893675" y="487.264348" style="fill: #ff7f0e; stroke: #ff7f0e"/>
     <use xlink:href="#m978d08d37e" x="348.162858" y="487.29498" style="fill: #ff7f0e; stroke: #ff7f0e"/>
     <use xlink:href="#m978d08d37e" x="358.432042" y="479.450383" style="fill: #ff7f0e; stroke: #ff7f0e"/>
     <use xlink:href="#m978d08d37e" x="368.701225" y="488.072159" style="fill: #ff7f0e; stroke: #ff7f0e"/>
     <use xlink:href="#m978d08d37e" x="378.970408" y="485.054562" style="fill: #ff7f0e; stroke: #ff7f0e"/>
     <use xlink:href="#m978d08d37e" x="389.239592" y="473.27812" style="fill: #ff7f0e; stroke: #ff7f0e"/>
     <use xlink:href="#m978d08d37e" x="399.508775" y="469.892424" style="fill: #ff7f0e; stroke: #ff7f0e"/>
     <use xlink:href="#m978d08d37e" x="409.777958" y="473.277233" style="fill: #ff7f0e; stroke: #ff7f0e"/>
     <use xlink:href="#m978d08d37e" x="420.047142" y="456.304152" style="fill: #ff7f0e; stroke: #ff7f0e"/>
     <use xlink:href="#m978d08d37e" x="430.316325" y="446.764142" style="fill: #ff7f0e; stroke: #ff7f0e"/>
     <use xlink:href="#m978d08d37e" x="440.585508" y="432.76699" style="fill: #ff7f0e; stroke: #ff7f0e"/>
     <use xlink:href="#m978d08d37e" x="450.854692" y="408.793196" style="fill: #ff7f0e; stroke: #ff7f0e"/>
     <use xlink:href="#m978d08d37e" x="461.123875" y="444.191296" style="fill: #ff7f0e; stroke: #ff7f0e"/>
     <use xlink:href="#m978d08d37e" x="471.393059" y="392.436031" style="fill: #ff7f0e; stroke: #ff7f0e"/>
     <use xlink:href="#m978d08d37e" x="481.662242" y="400.163667" style="fill: #ff7f0e; stroke: #ff7f0e"/>
     <use xlink:href="#m978d08d37e" x="491.931425" y="367.658938" style="fill: #ff7f0e; stroke: #ff7f0e"/>
     <use xlink:href="#m978d08d37e" x="502.200609" y="327.066112" style="fill: #ff7f0e; stroke: #ff7f0e"/>
     <use xlink:href="#m978d08d37e" x="512.469792" y="333.537785" style="fill: #ff7f0e; stroke: #ff7f0e"/>
     <use xlink:href="#m978d08d37e" x="522.738975" y="348.583308" style="fill: #ff7f0e; stroke: #ff7f0e"/>
     <use xlink:href="#m978d08d37e" x="533.008159" y="367.60812" style="fill: #ff7f0e; stroke: #ff7f0e"/>
     <use xlink:href="#m978d08d37e" x="543.277342" y="366.823866" style="fill: #ff7f0e; stroke: #ff7f0e"/>
     <use xlink:href="#m978d08d37e" x="553.546525" y="295.757468" style="fill: #ff7f0e; stroke: #ff7f0e"/>
     <use xlink:href="#m978d08d37e" x="563.815709" y="286.401825" style="fill: #ff7f0e; stroke: #ff7f0e"/>
     <use xlink:href="#m978d08d37e" x="574.084892" y="273.829358" style="fill: #ff7f0e; stroke: #ff7f0e"/>
     <use xlink:href="#m978d08d37e" x="584.354076" y="253.926195" style="fill: #ff7f0e; stroke: #ff7f0e"/>
     <use xlink:href="#m978d08d37e" x="594.623259" y="189.177103" style="fill: #ff7f0e; stroke: #ff7f0e"/>
     <use xlink:href="#m978d08d37e" x="604.892442" y="162.51287" style="fill: #ff7f0e; stroke: #ff7f0e"/>
     <use xlink:href="#m978d08d37e" x="615.161626" y="136.014998" style="fill: #ff7f0e; stroke: #ff7f0e"/>
     <use xlink:href="#m978d08d37e" x="625.430809" y="205.373866" style="fill: #ff7f0e; stroke: #ff7f0e"/>
     <use xlink:href="#m978d08d37e" x="635.699992" y="188.106099" style="fill: #ff7f0e; stroke: #ff7f0e"/>
     <use xlink:href="#m978d08d37e" x="645.969176" y="194.801683" style="fill: #ff7f0e; stroke: #ff7f0e"/>
     <use xlink:href="#m978d08d37e" x="656.238359" y="242.171271" style="fill: #ff7f0e; stroke: #ff7f0e"/>
     <use xlink:href="#m978d08d37e" x="666.507542" y="49.932727" style="fill: #ff7f0e; stroke: #ff7f0e"/>
     <use xlink:href="#m978d08d37e" x="676.776726" y="253.112908" style="fill: #ff7f0e; stroke: #ff7f0e"/>
     <use xlink:href="#m978d08d37e" x="687.045909" y="218.60066" style="fill: #ff7f0e; stroke: #ff7f0e"/>
    </g>
   </g>
   <g id="line2d_25">
    <path d="M 81.164091 503.371217 
L 91.433274 503.804517 
L 101.702458 503.681045 
L 111.971641 504.093774 
L 122.240824 502.985222 
L 132.510008 502.64631 
L 142.779191 502.098385 
L 153.048374 502.408462 
L 163.317558 501.026438 
L 173.586741 498.250666 
L 183.855924 500.085416 
L 194.125108 495.582031 
L 204.394291 494.799999 
L 214.663475 492.788662 
L 224.932658 491.432662 
L 235.201841 488.711518 
L 245.471025 488.580073 
L 255.740208 484.70635 
L 266.009391 480.774753 
L 276.278575 479.976702 
L 286.547758 483.855291 
L 296.816941 486.34019 
L 307.086125 488.545232 
L 317.355308 481.67246 
L 327.624492 477.816801 
L 337.893675 477.112708 
L 348.162858 475.975863 
L 358.432042 475.369291 
L 368.701225 468.879347 
L 378.970408 462.268753 
L 389.239592 439.585946 
L 399.508775 430.431454 
L 420.047142 405.485112 
L 430.316325 415.483713 
L 440.585508 377.201811 
L 450.854692 387.15274 
L 491.931425 307.256004 
L 502.200609 306.954173 
L 512.469792 323.938341 
L 522.738975 338.200834 
L 533.008159 366.179902 
L 543.277342 373.345098 
L 553.546525 338.211432 
L 563.815709 315.155147 
L 574.084892 312.772593 
L 584.354076 295.688395 
L 594.623259 248.300958 
L 604.892442 210.072747 
L 615.161626 202.452015 
L 625.430809 260.505713 
L 635.699992 228.125039 
L 645.969176 214.442839 
L 656.238359 272.220024 
L 666.507542 80.908212 
L 676.776726 281.430169 
L 687.045909 245.331347 
" clip-path="url(#pafac2eca35)" style="fill: none; stroke: #2ca02c; stroke-width: 1.5; stroke-linecap: square"/>
    <defs>
     <path id="mc5e67f2fc5" d="M 0 3 
C 0.795609 3 1.55874 2.683901 2.12132 2.12132 
C 2.683901 1.55874 3 0.795609 3 0 
C 3 -0.795609 2.683901 -1.55874 2.12132 -2.12132 
C 1.55874 -2.683901 0.795609 -3 0 -3 
C -0.795609 -3 -1.55874 -2.683901 -2.12132 -2.12132 
C -2.683901 -1.55874 -3 -0.795609 -3 0 
C -3 0.795609 -2.683901 1.55874 -2.12132 2.12132 
C -1.55874 2.683901 -0.795609 3 0 3 
z
" style="stroke: #2ca02c"/>
    </defs>
    <g clip-path="url(#pafac2eca35)">
     <use xlink:href="#mc5e67f2fc5" x="81.164091" y="503.371217" style="fill: #2ca02c; stroke: #2ca02c"/>
     <use xlink:href="#mc5e67f2fc5" x="91.433274" y="503.804517" style="fill: #2ca02c; stroke: #2ca02c"/>
     <use xlink:href="#mc5e67f2fc5" x="101.702458" y="503.681045" style="fill: #2ca02c; stroke: #2ca02c"/>
     <use xlink:href="#mc5e67f2fc5" x="111.971641" y="504.093774" style="fill: #2ca02c; stroke: #2ca02c"/>
     <use xlink:href="#mc5e67f2fc5" x="122.240824" y="502.985222" style="fill: #2ca02c; stroke: #2ca02c"/>
     <use xlink:href="#mc5e67f2fc5" x="132.510008" y="502.64631" style="fill: #2ca02c; stroke: #2ca02c"/>
     <use xlink:href="#mc5e67f2fc5" x="142.779191" y="502.098385" style="fill: #2ca02c; stroke: #2ca02c"/>
     <use xlink:href="#mc5e67f2fc5" x="153.048374" y="502.408462" style="fill: #2ca02c; stroke: #2ca02c"/>
     <use xlink:href="#mc5e67f2fc5" x="163.317558" y="501.026438" style="fill: #2ca02c; stroke: #2ca02c"/>
     <use xlink:href="#mc5e67f2fc5" x="173.586741" y="498.250666" style="fill: #2ca02c; stroke: #2ca02c"/>
     <use xlink:href="#mc5e67f2fc5" x="183.855924" y="500.085416" style="fill: #2ca02c; stroke: #2ca02c"/>
     <use xlink:href="#mc5e67f2fc5" x="194.125108" y="495.582031" style="fill: #2ca02c; stroke: #2ca02c"/>
     <use xlink:href="#mc5e67f2fc5" x="204.394291" y="494.799999" style="fill: #2ca02c; stroke: #2ca02c"/>
     <use xlink:href="#mc5e67f2fc5" x="214.663475" y="492.788662" style="fill: #2ca02c; stroke: #2ca02c"/>
     <use xlink:href="#mc5e67f2fc5" x="224.932658" y="491.432662" style="fill: #2ca02c; stroke: #2ca02c"/>
     <use xlink:href="#mc5e67f2fc5" x="235.201841" y="488.711518" style="fill: #2ca02c; stroke: #2ca02c"/>
     <use xlink:href="#mc5e67f2fc5" x="245.471025" y="488.580073" style="fill: #2ca02c; stroke: #2ca02c"/>
     <use xlink:href="#mc5e67f2fc5" x="255.740208" y="484.70635" style="fill: #2ca02c; stroke: #2ca02c"/>
     <use xlink:href="#mc5e67f2fc5" x="266.009391" y="480.774753" style="fill: #2ca02c; stroke: #2ca02c"/>
     <use xlink:href="#mc5e67f2fc5" x="276.278575" y="479.976702" style="fill: #2ca02c; stroke: #2ca02c"/>
     <use xlink:href="#mc5e67f2fc5" x="286.547758" y="483.855291" style="fill: #2ca02c; stroke: #2ca02c"/>
     <use xlink:href="#mc5e67f2fc5" x="296.816941" y="486.34019" style="fill: #2ca02c; stroke: #2ca02c"/>
     <use xlink:href="#mc5e67f2fc5" x="307.086125" y="488.545232" style="fill: #2ca02c; stroke: #2ca02c"/>
     <use xlink:href="#mc5e67f2fc5" x="317.355308" y="481.67246" style="fill: #2ca02c; stroke: #2ca02c"/>
     <use xlink:href="#mc5e67f2fc5" x="327.624492" y="477.816801" style="fill: #2ca02c; stroke: #2ca02c"/>
     <use xlink:href="#mc5e67f2fc5" x="337.893675" y="477.112708" style="fill: #2ca02c; stroke: #2ca02c"/>
     <use xlink:href="#mc5e67f2fc5" x="348.162858" y="475.975863" style="fill: #2ca02c; stroke: #2ca02c"/>
     <use xlink:href="#mc5e67f2fc5" x="358.432042" y="475.369291" style="fill: #2ca02c; stroke: #2ca02c"/>
     <use xlink:href="#mc5e67f2fc5" x="368.701225" y="468.879347" style="fill: #2ca02c; stroke: #2ca02c"/>
     <use xlink:href="#mc5e67f2fc5" x="378.970408" y="462.268753" style="fill: #2ca02c; stroke: #2ca02c"/>
     <use xlink:href="#mc5e67f2fc5" x="389.239592" y="439.585946" style="fill: #2ca02c; stroke: #2ca02c"/>
     <use xlink:href="#mc5e67f2fc5" x="399.508775" y="430.431454" style="fill: #2ca02c; stroke: #2ca02c"/>
     <use xlink:href="#mc5e67f2fc5" x="420.047142" y="405.485112" style="fill: #2ca02c; stroke: #2ca02c"/>
     <use xlink:href="#mc5e67f2fc5" x="430.316325" y="415.483713" style="fill: #2ca02c; stroke: #2ca02c"/>
     <use xlink:href="#mc5e67f2fc5" x="440.585508" y="377.201811" style="fill: #2ca02c; stroke: #2ca02c"/>
     <use xlink:href="#mc5e67f2fc5" x="450.854692" y="387.15274" style="fill: #2ca02c; stroke: #2ca02c"/>
     <use xlink:href="#mc5e67f2fc5" x="491.931425" y="307.256004" style="fill: #2ca02c; stroke: #2ca02c"/>
     <use xlink:href="#mc5e67f2fc5" x="502.200609" y="306.954173" style="fill: #2ca02c; stroke: #2ca02c"/>
     <use xlink:href="#mc5e67f2fc5" x="512.469792" y="323.938341" style="fill: #2ca02c; stroke: #2ca02c"/>
     <use xlink:href="#mc5e67f2fc5" x="522.738975" y="338.200834" style="fill: #2ca02c; stroke: #2ca02c"/>
     <use xlink:href="#mc5e67f2fc5" x="533.008159" y="366.179902" style="fill: #2ca02c; stroke: #2ca02c"/>
     <use xlink:href="#mc5e67f2fc5" x="543.277342" y="373.345098" style="fill: #2ca02c; stroke: #2ca02c"/>
     <use xlink:href="#mc5e67f2fc5" x="553.546525" y="338.211432" style="fill: #2ca02c; stroke: #2ca02c"/>
     <use xlink:href="#mc5e67f2fc5" x="563.815709" y="315.155147" style="fill: #2ca02c; stroke: #2ca02c"/>
     <use xlink:href="#mc5e67f2fc5" x="574.084892" y="312.772593" style="fill: #2ca02c; stroke: #2ca02c"/>
     <use xlink:href="#mc5e67f2fc5" x="584.354076" y="295.688395" style="fill: #2ca02c; stroke: #2ca02c"/>
     <use xlink:href="#mc5e67f2fc5" x="594.623259" y="248.300958" style="fill: #2ca02c; stroke: #2ca02c"/>
     <use xlink:href="#mc5e67f2fc5" x="604.892442" y="210.072747" style="fill: #2ca02c; stroke: #2ca02c"/>
     <use xlink:href="#mc5e67f2fc5" x="615.161626" y="202.452015" style="fill: #2ca02c; stroke: #2ca02c"/>
     <use xlink:href="#mc5e67f2fc5" x="625.430809" y="260.505713" style="fill: #2ca02c; stroke: #2ca02c"/>
     <use xlink:href="#mc5e67f2fc5" x="635.699992" y="228.125039" style="fill: #2ca02c; stroke: #2ca02c"/>
     <use xlink:href="#mc5e67f2fc5" x="645.969176" y="214.442839" style="fill: #2ca02c; stroke: #2ca02c"/>
     <use xlink:href="#mc5e67f2fc5" x="656.238359" y="272.220024" style="fill: #2ca02c; stroke: #2ca02c"/>
     <use xlink:href="#mc5e67f2fc5" x="666.507542" y="80.908212" style="fill: #2ca02c; stroke: #2ca02c"/>
     <use xlink:href="#mc5e67f2fc5" x="676.776726" y="281.430169" style="fill: #2ca02c; stroke: #2ca02c"/>
     <use xlink:href="#mc5e67f2fc5" x="687.045909" y="245.331347" style="fill: #2ca02c; stroke: #2ca02c"/>
    </g>
   </g>
   <g id="line2d_26">
    <path d="M 81.164091 508.356789 
L 91.433274 508.356212 
L 101.702458 508.219093 
L 111.971641 508.427551 
L 122.240824 508.443953 
L 132.510008 507.911337 
L 142.779191 507.379735 
L 153.048374 507.442474 
L 163.317558 507.524241 
L 173.586741 507.254041 
L 183.855924 506.191069 
L 194.125108 505.46795 
L 204.394291 504.617477 
L 214.663475 503.231957 
L 224.932658 503.478554 
L 235.201841 503.368985 
L 245.471025 502.84585 
L 255.740208 502.816419 
L 266.009391 501.284994 
L 276.278575 499.048451 
L 286.547758 496.051675 
L 296.816941 499.154532 
L 307.086125 498.364877 
L 317.355308 497.713684 
L 327.624492 496.708965 
L 337.893675 498.24772 
L 348.162858 496.307728 
L 358.432042 492.455555 
L 368.701225 491.449345 
L 378.970408 492.687938 
L 389.239592 487.916753 
L 399.508775 489.785787 
L 409.777958 487.563416 
L 420.047142 486.860269 
L 430.316325 484.744375 
L 440.585508 476.538532 
L 450.854692 478.722681 
L 461.123875 480.228301 
L 471.393059 476.760253 
L 481.662242 473.570798 
L 491.931425 457.732913 
L 502.200609 460.921091 
L 512.469792 460.498038 
L 522.738975 464.68666 
L 533.008159 472.360099 
L 543.277342 477.039729 
L 553.546525 470.823149 
L 563.815709 470.109309 
L 574.084892 473.519027 
L 584.354076 472.111274 
L 594.623259 465.630839 
L 604.892442 457.675881 
L 615.161626 450.830697 
L 625.430809 459.593276 
L 635.699992 449.728663 
L 645.969176 452.390168 
L 656.238359 463.338194 
L 666.507542 419.548544 
L 676.776726 457.431672 
L 687.045909 445.920162 
" clip-path="url(#pafac2eca35)" style="fill: none; stroke: #d62728; stroke-width: 1.5; stroke-linecap: square"/>
    <defs>
     <path id="m135838f77c" d="M 0 3 
C 0.795609 3 1.55874 2.683901 2.12132 2.12132 
C 2.683901 1.55874 3 0.795609 3 0 
C 3 -0.795609 2.683901 -1.55874 2.12132 -2.12132 
C 1.55874 -2.683901 0.795609 -3 0 -3 
C -0.795609 -3 -1.55874 -2.683901 -2.12132 -2.12132 
C -2.683901 -1.55874 -3 -0.795609 -3 0 
C -3 0.795609 -2.683901 1.55874 -2.12132 2.12132 
C -1.55874 2.683901 -0.795609 3 0 3 
z
" style="stroke: #d62728"/>
    </defs>
    <g clip-path="url(#pafac2eca35)">
     <use xlink:href="#m135838f77c" x="81.164091" y="508.356789" style="fill: #d62728; stroke: #d62728"/>
     <use xlink:href="#m135838f77c" x="91.433274" y="508.356212" style="fill: #d62728; stroke: #d62728"/>
     <use xlink:href="#m135838f77c" x="101.702458" y="508.219093" style="fill: #d62728; stroke: #d62728"/>
     <use xlink:href="#m135838f77c" x="111.971641" y="508.427551" style="fill: #d62728; stroke: #d62728"/>
     <use xlink:href="#m135838f77c" x="122.240824" y="508.443953" style="fill: #d62728; stroke: #d62728"/>
     <use xlink:href="#m135838f77c" x="132.510008" y="507.911337" style="fill: #d62728; stroke: #d62728"/>
     <use xlink:href="#m135838f77c" x="142.779191" y="507.379735" style="fill: #d62728; stroke: #d62728"/>
     <use xlink:href="#m135838f77c" x="153.048374" y="507.442474" style="fill: #d62728; stroke: #d62728"/>
     <use xlink:href="#m135838f77c" x="163.317558" y="507.524241" style="fill: #d62728; stroke: #d62728"/>
     <use xlink:href="#m135838f77c" x="173.586741" y="507.254041" style="fill: #d62728; stroke: #d62728"/>
     <use xlink:href="#m135838f77c" x="183.855924" y="506.191069" style="fill: #d62728; stroke: #d62728"/>
     <use xlink:href="#m135838f77c" x="194.125108" y="505.46795" style="fill: #d62728; stroke: #d62728"/>
     <use xlink:href="#m135838f77c" x="204.394291" y="504.617477" style="fill: #d62728; stroke: #d62728"/>
     <use xlink:href="#m135838f77c" x="214.663475" y="503.231957" style="fill: #d62728; stroke: #d62728"/>
     <use xlink:href="#m135838f77c" x="224.932658" y="503.478554" style="fill: #d62728; stroke: #d62728"/>
     <use xlink:href="#m135838f77c" x="235.201841" y="503.368985" style="fill: #d62728; stroke: #d62728"/>
     <use xlink:href="#m135838f77c" x="245.471025" y="502.84585" style="fill: #d62728; stroke: #d62728"/>
     <use xlink:href="#m135838f77c" x="255.740208" y="502.816419" style="fill: #d62728; stroke: #d62728"/>
     <use xlink:href="#m135838f77c" x="266.009391" y="501.284994" style="fill: #d62728; stroke: #d62728"/>
     <use xlink:href="#m135838f77c" x="276.278575" y="499.048451" style="fill: #d62728; stroke: #d62728"/>
     <use xlink:href="#m135838f77c" x="286.547758" y="496.051675" style="fill: #d62728; stroke: #d62728"/>
     <use xlink:href="#m135838f77c" x="296.816941" y="499.154532" style="fill: #d62728; stroke: #d62728"/>
     <use xlink:href="#m135838f77c" x="307.086125" y="498.364877" style="fill: #d62728; stroke: #d62728"/>
     <use xlink:href="#m135838f77c" x="317.355308" y="497.713684" style="fill: #d62728; stroke: #d62728"/>
     <use xlink:href="#m135838f77c" x="327.624492" y="496.708965" style="fill: #d62728; stroke: #d62728"/>
     <use xlink:href="#m135838f77c" x="337.893675" y="498.24772" style="fill: #d62728; stroke: #d62728"/>
     <use xlink:href="#m135838f77c" x="348.162858" y="496.307728" style="fill: #d62728; stroke: #d62728"/>
     <use xlink:href="#m135838f77c" x="358.432042" y="492.455555" style="fill: #d62728; stroke: #d62728"/>
     <use xlink:href="#m135838f77c" x="368.701225" y="491.449345" style="fill: #d62728; stroke: #d62728"/>
     <use xlink:href="#m135838f77c" x="378.970408" y="492.687938" style="fill: #d62728; stroke: #d62728"/>
     <use xlink:href="#m135838f77c" x="389.239592" y="487.916753" style="fill: #d62728; stroke: #d62728"/>
     <use xlink:href="#m135838f77c" x="399.508775" y="489.785787" style="fill: #d62728; stroke: #d62728"/>
     <use xlink:href="#m135838f77c" x="409.777958" y="487.563416" style="fill: #d62728; stroke: #d62728"/>
     <use xlink:href="#m135838f77c" x="420.047142" y="486.860269" style="fill: #d62728; stroke: #d62728"/>
     <use xlink:href="#m135838f77c" x="430.316325" y="484.744375" style="fill: #d62728; stroke: #d62728"/>
     <use xlink:href="#m135838f77c" x="440.585508" y="476.538532" style="fill: #d62728; stroke: #d62728"/>
     <use xlink:href="#m135838f77c" x="450.854692" y="478.722681" style="fill: #d62728; stroke: #d62728"/>
     <use xlink:href="#m135838f77c" x="461.123875" y="480.228301" style="fill: #d62728; stroke: #d62728"/>
     <use xlink:href="#m135838f77c" x="471.393059" y="476.760253" style="fill: #d62728; stroke: #d62728"/>
     <use xlink:href="#m135838f77c" x="481.662242" y="473.570798" style="fill: #d62728; stroke: #d62728"/>
     <use xlink:href="#m135838f77c" x="491.931425" y="457.732913" style="fill: #d62728; stroke: #d62728"/>
     <use xlink:href="#m135838f77c" x="502.200609" y="460.921091" style="fill: #d62728; stroke: #d62728"/>
     <use xlink:href="#m135838f77c" x="512.469792" y="460.498038" style="fill: #d62728; stroke: #d62728"/>
     <use xlink:href="#m135838f77c" x="522.738975" y="464.68666" style="fill: #d62728; stroke: #d62728"/>
     <use xlink:href="#m135838f77c" x="533.008159" y="472.360099" style="fill: #d62728; stroke: #d62728"/>
     <use xlink:href="#m135838f77c" x="543.277342" y="477.039729" style="fill: #d62728; stroke: #d62728"/>
     <use xlink:href="#m135838f77c" x="553.546525" y="470.823149" style="fill: #d62728; stroke: #d62728"/>
     <use xlink:href="#m135838f77c" x="563.815709" y="470.109309" style="fill: #d62728; stroke: #d62728"/>
     <use xlink:href="#m135838f77c" x="574.084892" y="473.519027" style="fill: #d62728; stroke: #d62728"/>
     <use xlink:href="#m135838f77c" x="584.354076" y="472.111274" style="fill: #d62728; stroke: #d62728"/>
     <use xlink:href="#m135838f77c" x="594.623259" y="465.630839" style="fill: #d62728; stroke: #d62728"/>
     <use xlink:href="#m135838f77c" x="604.892442" y="457.675881" style="fill: #d62728; stroke: #d62728"/>
     <use xlink:href="#m135838f77c" x="615.161626" y="450.830697" style="fill: #d62728; stroke: #d62728"/>
     <use xlink:href="#m135838f77c" x="625.430809" y="459.593276" style="fill: #d62728; stroke: #d62728"/>
     <use xlink:href="#m135838f77c" x="635.699992" y="449.728663" style="fill: #d62728; stroke: #d62728"/>
     <use xlink:href="#m135838f77c" x="645.969176" y="452.390168" style="fill: #d62728; stroke: #d62728"/>
     <use xlink:href="#m135838f77c" x="656.238359" y="463.338194" style="fill: #d62728; stroke: #d62728"/>
     <use xlink:href="#m135838f77c" x="666.507542" y="419.548544" style="fill: #d62728; stroke: #d62728"/>
     <use xlink:href="#m135838f77c" x="676.776726" y="457.431672" style="fill: #d62728; stroke: #d62728"/>
     <use xlink:href="#m135838f77c" x="687.045909" y="445.920162" style="fill: #d62728; stroke: #d62728"/>
    </g>
   </g>
   <g id="line2d_27">
    <path d="M 81.164091 510.788716 
L 91.433274 510.9619 
L 101.702458 510.8967 
L 111.971641 510.904863 
L 122.240824 510.987273 
L 132.510008 510.849401 
L 142.779191 510.730212 
L 153.048374 510.704469 
L 163.317558 510.460654 
L 173.586741 510.411927 
L 183.855924 510.368059 
L 194.125108 510.399768 
L 204.394291 510.33628 
L 214.663475 510.040995 
L 224.932658 509.998789 
L 235.201841 509.71629 
L 245.471025 509.526451 
L 255.740208 509.836403 
L 266.009391 509.630004 
L 276.278575 509.225071 
L 286.547758 508.425238 
L 296.816941 509.261195 
L 307.086125 508.735213 
L 317.355308 508.571228 
L 327.624492 508.560581 
L 337.893675 508.85101 
L 348.162858 508.25248 
L 358.432042 508.16177 
L 368.701225 507.403575 
L 378.970408 507.803172 
L 389.239592 505.984301 
L 399.508775 507.195983 
L 409.777958 505.788734 
L 420.047142 505.559993 
L 430.316325 505.17643 
L 440.585508 503.35265 
L 450.854692 505.25074 
L 461.123875 509.008678 
L 471.393059 501.957838 
L 481.662242 504.225382 
L 491.931425 500.640664 
L 502.200609 496.820635 
L 512.469792 495.124589 
L 522.738975 498.849046 
L 533.008159 501.219873 
L 543.277342 501.942021 
L 553.546525 498.548014 
L 563.815709 499.4432 
L 574.084892 499.266669 
L 584.354076 497.609957 
L 594.623259 495.357027 
L 604.892442 494.794593 
L 615.161626 493.103581 
L 625.430809 499.533683 
L 635.699992 499.503231 
L 645.969176 498.984869 
L 656.238359 497.698235 
L 666.507542 483.856696 
L 676.776726 496.755362 
L 687.045909 499.264393 
" clip-path="url(#pafac2eca35)" style="fill: none; stroke: #9467bd; stroke-width: 1.5; stroke-linecap: square"/>
    <defs>
     <path id="mdd6d925156" d="M 0 3 
C 0.795609 3 1.55874 2.683901 2.12132 2.12132 
C 2.683901 1.55874 3 0.795609 3 0 
C 3 -0.795609 2.683901 -1.55874 2.12132 -2.12132 
C 1.55874 -2.683901 0.795609 -3 0 -3 
C -0.795609 -3 -1.55874 -2.683901 -2.12132 -2.12132 
C -2.683901 -1.55874 -3 -0.795609 -3 0 
C -3 0.795609 -2.683901 1.55874 -2.12132 2.12132 
C -1.55874 2.683901 -0.795609 3 0 3 
z
" style="stroke: #9467bd"/>
    </defs>
    <g clip-path="url(#pafac2eca35)">
     <use xlink:href="#mdd6d925156" x="81.164091" y="510.788716" style="fill: #9467bd; stroke: #9467bd"/>
     <use xlink:href="#mdd6d925156" x="91.433274" y="510.9619" style="fill: #9467bd; stroke: #9467bd"/>
     <use xlink:href="#mdd6d925156" x="101.702458" y="510.8967" style="fill: #9467bd; stroke: #9467bd"/>
     <use xlink:href="#mdd6d925156" x="111.971641" y="510.904863" style="fill: #9467bd; stroke: #9467bd"/>
     <use xlink:href="#mdd6d925156" x="122.240824" y="510.987273" style="fill: #9467bd; stroke: #9467bd"/>
     <use xlink:href="#mdd6d925156" x="132.510008" y="510.849401" style="fill: #9467bd; stroke: #9467bd"/>
     <use xlink:href="#mdd6d925156" x="142.779191" y="510.730212" style="fill: #9467bd; stroke: #9467bd"/>
     <use xlink:href="#mdd6d925156" x="153.048374" y="510.704469" style="fill: #9467bd; stroke: #9467bd"/>
     <use xlink:href="#mdd6d925156" x="163.317558" y="510.460654" style="fill: #9467bd; stroke: #9467bd"/>
     <use xlink:href="#mdd6d925156" x="173.586741" y="510.411927" style="fill: #9467bd; stroke: #9467bd"/>
     <use xlink:href="#mdd6d925156" x="183.855924" y="510.368059" style="fill: #9467bd; stroke: #9467bd"/>
     <use xlink:href="#mdd6d925156" x="194.125108" y="510.399768" style="fill: #9467bd; stroke: #9467bd"/>
     <use xlink:href="#mdd6d925156" x="204.394291" y="510.33628" style="fill: #9467bd; stroke: #9467bd"/>
     <use xlink:href="#mdd6d925156" x="214.663475" y="510.040995" style="fill: #9467bd; stroke: #9467bd"/>
     <use xlink:href="#mdd6d925156" x="224.932658" y="509.998789" style="fill: #9467bd; stroke: #9467bd"/>
     <use xlink:href="#mdd6d925156" x="235.201841" y="509.71629" style="fill: #9467bd; stroke: #9467bd"/>
     <use xlink:href="#mdd6d925156" x="245.471025" y="509.526451" style="fill: #9467bd; stroke: #9467bd"/>
     <use xlink:href="#mdd6d925156" x="255.740208" y="509.836403" style="fill: #9467bd; stroke: #9467bd"/>
     <use xlink:href="#mdd6d925156" x="266.009391" y="509.630004" style="fill: #9467bd; stroke: #9467bd"/>
     <use xlink:href="#mdd6d925156" x="276.278575" y="509.225071" style="fill: #9467bd; stroke: #9467bd"/>
     <use xlink:href="#mdd6d925156" x="286.547758" y="508.425238" style="fill: #9467bd; stroke: #9467bd"/>
     <use xlink:href="#mdd6d925156" x="296.816941" y="509.261195" style="fill: #9467bd; stroke: #9467bd"/>
     <use xlink:href="#mdd6d925156" x="307.086125" y="508.735213" style="fill: #9467bd; stroke: #9467bd"/>
     <use xlink:href="#mdd6d925156" x="317.355308" y="508.571228" style="fill: #9467bd; stroke: #9467bd"/>
     <use xlink:href="#mdd6d925156" x="327.624492" y="508.560581" style="fill: #9467bd; stroke: #9467bd"/>
     <use xlink:href="#mdd6d925156" x="337.893675" y="508.85101" style="fill: #9467bd; stroke: #9467bd"/>
     <use xlink:href="#mdd6d925156" x="348.162858" y="508.25248" style="fill: #9467bd; stroke: #9467bd"/>
     <use xlink:href="#mdd6d925156" x="358.432042" y="508.16177" style="fill: #9467bd; stroke: #9467bd"/>
     <use xlink:href="#mdd6d925156" x="368.701225" y="507.403575" style="fill: #9467bd; stroke: #9467bd"/>
     <use xlink:href="#mdd6d925156" x="378.970408" y="507.803172" style="fill: #9467bd; stroke: #9467bd"/>
     <use xlink:href="#mdd6d925156" x="389.239592" y="505.984301" style="fill: #9467bd; stroke: #9467bd"/>
     <use xlink:href="#mdd6d925156" x="399.508775" y="507.195983" style="fill: #9467bd; stroke: #9467bd"/>
     <use xlink:href="#mdd6d925156" x="409.777958" y="505.788734" style="fill: #9467bd; stroke: #9467bd"/>
     <use xlink:href="#mdd6d925156" x="420.047142" y="505.559993" style="fill: #9467bd; stroke: #9467bd"/>
     <use xlink:href="#mdd6d925156" x="430.316325" y="505.17643" style="fill: #9467bd; stroke: #9467bd"/>
     <use xlink:href="#mdd6d925156" x="440.585508" y="503.35265" style="fill: #9467bd; stroke: #9467bd"/>
     <use xlink:href="#mdd6d925156" x="450.854692" y="505.25074" style="fill: #9467bd; stroke: #9467bd"/>
     <use xlink:href="#mdd6d925156" x="461.123875" y="509.008678" style="fill: #9467bd; stroke: #9467bd"/>
     <use xlink:href="#mdd6d925156" x="471.393059" y="501.957838" style="fill: #9467bd; stroke: #9467bd"/>
     <use xlink:href="#mdd6d925156" x="481.662242" y="504.225382" style="fill: #9467bd; stroke: #9467bd"/>
     <use xlink:href="#mdd6d925156" x="491.931425" y="500.640664" style="fill: #9467bd; stroke: #9467bd"/>
     <use xlink:href="#mdd6d925156" x="502.200609" y="496.820635" style="fill: #9467bd; stroke: #9467bd"/>
     <use xlink:href="#mdd6d925156" x="512.469792" y="495.124589" style="fill: #9467bd; stroke: #9467bd"/>
     <use xlink:href="#mdd6d925156" x="522.738975" y="498.849046" style="fill: #9467bd; stroke: #9467bd"/>
     <use xlink:href="#mdd6d925156" x="533.008159" y="501.219873" style="fill: #9467bd; stroke: #9467bd"/>
     <use xlink:href="#mdd6d925156" x="543.277342" y="501.942021" style="fill: #9467bd; stroke: #9467bd"/>
     <use xlink:href="#mdd6d925156" x="553.546525" y="498.548014" style="fill: #9467bd; stroke: #9467bd"/>
     <use xlink:href="#mdd6d925156" x="563.815709" y="499.4432" style="fill: #9467bd; stroke: #9467bd"/>
     <use xlink:href="#mdd6d925156" x="574.084892" y="499.266669" style="fill: #9467bd; stroke: #9467bd"/>
     <use xlink:href="#mdd6d925156" x="584.354076" y="497.609957" style="fill: #9467bd; stroke: #9467bd"/>
     <use xlink:href="#mdd6d925156" x="594.623259" y="495.357027" style="fill: #9467bd; stroke: #9467bd"/>
     <use xlink:href="#mdd6d925156" x="604.892442" y="494.794593" style="fill: #9467bd; stroke: #9467bd"/>
     <use xlink:href="#mdd6d925156" x="615.161626" y="493.103581" style="fill: #9467bd; stroke: #9467bd"/>
     <use xlink:href="#mdd6d925156" x="625.430809" y="499.533683" style="fill: #9467bd; stroke: #9467bd"/>
     <use xlink:href="#mdd6d925156" x="635.699992" y="499.503231" style="fill: #9467bd; stroke: #9467bd"/>
     <use xlink:href="#mdd6d925156" x="645.969176" y="498.984869" style="fill: #9467bd; stroke: #9467bd"/>
     <use xlink:href="#mdd6d925156" x="656.238359" y="497.698235" style="fill: #9467bd; stroke: #9467bd"/>
     <use xlink:href="#mdd6d925156" x="666.507542" y="483.856696" style="fill: #9467bd; stroke: #9467bd"/>
     <use xlink:href="#mdd6d925156" x="676.776726" y="496.755362" style="fill: #9467bd; stroke: #9467bd"/>
     <use xlink:href="#mdd6d925156" x="687.045909" y="499.264393" style="fill: #9467bd; stroke: #9467bd"/>
    </g>
   </g>
   <g id="line2d_28">
    <path d="M 81.164091 507.764135 
L 91.433274 507.692736 
L 101.702458 507.290895 
L 111.971641 507.982139 
L 122.240824 507.286069 
L 132.510008 507.457794 
L 142.779191 507.212417 
L 153.048374 507.023834 
L 163.317558 506.998657 
L 173.586741 505.352886 
L 183.855924 505.977632 
L 194.125108 505.787583 
L 204.394291 503.615655 
L 214.663475 504.227358 
L 224.932658 504.421575 
L 235.201841 502.451303 
L 245.471025 503.534165 
L 255.740208 501.212597 
L 266.009391 500.918782 
L 276.278575 501.315047 
L 286.547758 501.536832 
L 296.816941 503.764673 
L 307.086125 502.925024 
L 317.355308 498.991476 
L 327.624492 497.117107 
L 337.893675 499.578412 
L 348.162858 501.027891 
L 358.432042 499.780463 
L 368.701225 500.208645 
L 378.970408 498.794168 
L 389.239592 496.289962 
L 399.508775 496.058565 
L 409.777958 488.887252 
L 420.047142 486.777525 
L 430.316325 481.998971 
L 440.585508 481.354676 
L 450.854692 473.442978 
L 461.123875 463.689902 
L 471.393059 457.839941 
L 481.662242 456.185279 
L 491.931425 443.643775 
L 502.200609 419.034531 
L 512.469792 421.768476 
L 522.738975 426.127937 
L 533.008159 433.738083 
L 543.277342 432.669671 
L 553.546525 401.6732 
L 563.815709 405.128925 
L 574.084892 399.346913 
L 584.354076 382.001665 
L 594.623259 342.578449 
L 604.892442 340.822638 
L 615.161626 327.845423 
L 625.430809 362.529027 
L 635.699992 348.206477 
L 645.969176 337.483881 
L 656.238359 360.228092 
L 666.507542 248.698055 
L 676.776726 395.736179 
L 687.045909 352.248805 
" clip-path="url(#pafac2eca35)" style="fill: none; stroke: #8c564b; stroke-width: 1.5; stroke-linecap: square"/>
    <defs>
     <path id="m27ce73ad08" d="M 0 3 
C 0.795609 3 1.55874 2.683901 2.12132 2.12132 
C 2.683901 1.55874 3 0.795609 3 0 
C 3 -0.795609 2.683901 -1.55874 2.12132 -2.12132 
C 1.55874 -2.683901 0.795609 -3 0 -3 
C -0.795609 -3 -1.55874 -2.683901 -2.12132 -2.12132 
C -2.683901 -1.55874 -3 -0.795609 -3 0 
C -3 0.795609 -2.683901 1.55874 -2.12132 2.12132 
C -1.55874 2.683901 -0.795609 3 0 3 
z
" style="stroke: #8c564b"/>
    </defs>
    <g clip-path="url(#pafac2eca35)">
     <use xlink:href="#m27ce73ad08" x="81.164091" y="507.764135" style="fill: #8c564b; stroke: #8c564b"/>
     <use xlink:href="#m27ce73ad08" x="91.433274" y="507.692736" style="fill: #8c564b; stroke: #8c564b"/>
     <use xlink:href="#m27ce73ad08" x="101.702458" y="507.290895" style="fill: #8c564b; stroke: #8c564b"/>
     <use xlink:href="#m27ce73ad08" x="111.971641" y="507.982139" style="fill: #8c564b; stroke: #8c564b"/>
     <use xlink:href="#m27ce73ad08" x="122.240824" y="507.286069" style="fill: #8c564b; stroke: #8c564b"/>
     <use xlink:href="#m27ce73ad08" x="132.510008" y="507.457794" style="fill: #8c564b; stroke: #8c564b"/>
     <use xlink:href="#m27ce73ad08" x="142.779191" y="507.212417" style="fill: #8c564b; stroke: #8c564b"/>
     <use xlink:href="#m27ce73ad08" x="153.048374" y="507.023834" style="fill: #8c564b; stroke: #8c564b"/>
     <use xlink:href="#m27ce73ad08" x="163.317558" y="506.998657" style="fill: #8c564b; stroke: #8c564b"/>
     <use xlink:href="#m27ce73ad08" x="173.586741" y="505.352886" style="fill: #8c564b; stroke: #8c564b"/>
     <use xlink:href="#m27ce73ad08" x="183.855924" y="505.977632" style="fill: #8c564b; stroke: #8c564b"/>
     <use xlink:href="#m27ce73ad08" x="194.125108" y="505.787583" style="fill: #8c564b; stroke: #8c564b"/>
     <use xlink:href="#m27ce73ad08" x="204.394291" y="503.615655" style="fill: #8c564b; stroke: #8c564b"/>
     <use xlink:href="#m27ce73ad08" x="214.663475" y="504.227358" style="fill: #8c564b; stroke: #8c564b"/>
     <use xlink:href="#m27ce73ad08" x="224.932658" y="504.421575" style="fill: #8c564b; stroke: #8c564b"/>
     <use xlink:href="#m27ce73ad08" x="235.201841" y="502.451303" style="fill: #8c564b; stroke: #8c564b"/>
     <use xlink:href="#m27ce73ad08" x="245.471025" y="503.534165" style="fill: #8c564b; stroke: #8c564b"/>
     <use xlink:href="#m27ce73ad08" x="255.740208" y="501.212597" style="fill: #8c564b; stroke: #8c564b"/>
     <use xlink:href="#m27ce73ad08" x="266.009391" y="500.918782" style="fill: #8c564b; stroke: #8c564b"/>
     <use xlink:href="#m27ce73ad08" x="276.278575" y="501.315047" style="fill: #8c564b; stroke: #8c564b"/>
     <use xlink:href="#m27ce73ad08" x="286.547758" y="501.536832" style="fill: #8c564b; stroke: #8c564b"/>
     <use xlink:href="#m27ce73ad08" x="296.816941" y="503.764673" style="fill: #8c564b; stroke: #8c564b"/>
     <use xlink:href="#m27ce73ad08" x="307.086125" y="502.925024" style="fill: #8c564b; stroke: #8c564b"/>
     <use xlink:href="#m27ce73ad08" x="317.355308" y="498.991476" style="fill: #8c564b; stroke: #8c564b"/>
     <use xlink:href="#m27ce73ad08" x="327.624492" y="497.117107" style="fill: #8c564b; stroke: #8c564b"/>
     <use xlink:href="#m27ce73ad08" x="337.893675" y="499.578412" style="fill: #8c564b; stroke: #8c564b"/>
     <use xlink:href="#m27ce73ad08" x="348.162858" y="501.027891" style="fill: #8c564b; stroke: #8c564b"/>
     <use xlink:href="#m27ce73ad08" x="358.432042" y="499.780463" style="fill: #8c564b; stroke: #8c564b"/>
     <use xlink:href="#m27ce73ad08" x="368.701225" y="500.208645" style="fill: #8c564b; stroke: #8c564b"/>
     <use xlink:href="#m27ce73ad08" x="378.970408" y="498.794168" style="fill: #8c564b; stroke: #8c564b"/>
     <use xlink:href="#m27ce73ad08" x="389.239592" y="496.289962" style="fill: #8c564b; stroke: #8c564b"/>
     <use xlink:href="#m27ce73ad08" x="399.508775" y="496.058565" style="fill: #8c564b; stroke: #8c564b"/>
     <use xlink:href="#m27ce73ad08" x="409.777958" y="488.887252" style="fill: #8c564b; stroke: #8c564b"/>
     <use xlink:href="#m27ce73ad08" x="420.047142" y="486.777525" style="fill: #8c564b; stroke: #8c564b"/>
     <use xlink:href="#m27ce73ad08" x="430.316325" y="481.998971" style="fill: #8c564b; stroke: #8c564b"/>
     <use xlink:href="#m27ce73ad08" x="440.585508" y="481.354676" style="fill: #8c564b; stroke: #8c564b"/>
     <use xlink:href="#m27ce73ad08" x="450.854692" y="473.442978" style="fill: #8c564b; stroke: #8c564b"/>
     <use xlink:href="#m27ce73ad08" x="461.123875" y="463.689902" style="fill: #8c564b; stroke: #8c564b"/>
     <use xlink:href="#m27ce73ad08" x="471.393059" y="457.839941" style="fill: #8c564b; stroke: #8c564b"/>
     <use xlink:href="#m27ce73ad08" x="481.662242" y="456.185279" style="fill: #8c564b; stroke: #8c564b"/>
     <use xlink:href="#m27ce73ad08" x="491.931425" y="443.643775" style="fill: #8c564b; stroke: #8c564b"/>
     <use xlink:href="#m27ce73ad08" x="502.200609" y="419.034531" style="fill: #8c564b; stroke: #8c564b"/>
     <use xlink:href="#m27ce73ad08" x="512.469792" y="421.768476" style="fill: #8c564b; stroke: #8c564b"/>
     <use xlink:href="#m27ce73ad08" x="522.738975" y="426.127937" style="fill: #8c564b; stroke: #8c564b"/>
     <use xlink:href="#m27ce73ad08" x="533.008159" y="433.738083" style="fill: #8c564b; stroke: #8c564b"/>
     <use xlink:href="#m27ce73ad08" x="543.277342" y="432.669671" style="fill: #8c564b; stroke: #8c564b"/>
     <use xlink:href="#m27ce73ad08" x="553.546525" y="401.6732" style="fill: #8c564b; stroke: #8c564b"/>
     <use xlink:href="#m27ce73ad08" x="563.815709" y="405.128925" style="fill: #8c564b; stroke: #8c564b"/>
     <use xlink:href="#m27ce73ad08" x="574.084892" y="399.346913" style="fill: #8c564b; stroke: #8c564b"/>
     <use xlink:href="#m27ce73ad08" x="584.354076" y="382.001665" style="fill: #8c564b; stroke: #8c564b"/>
     <use xlink:href="#m27ce73ad08" x="594.623259" y="342.578449" style="fill: #8c564b; stroke: #8c564b"/>
     <use xlink:href="#m27ce73ad08" x="604.892442" y="340.822638" style="fill: #8c564b; stroke: #8c564b"/>
     <use xlink:href="#m27ce73ad08" x="615.161626" y="327.845423" style="fill: #8c564b; stroke: #8c564b"/>
     <use xlink:href="#m27ce73ad08" x="625.430809" y="362.529027" style="fill: #8c564b; stroke: #8c564b"/>
     <use xlink:href="#m27ce73ad08" x="635.699992" y="348.206477" style="fill: #8c564b; stroke: #8c564b"/>
     <use xlink:href="#m27ce73ad08" x="645.969176" y="337.483881" style="fill: #8c564b; stroke: #8c564b"/>
     <use xlink:href="#m27ce73ad08" x="656.238359" y="360.228092" style="fill: #8c564b; stroke: #8c564b"/>
     <use xlink:href="#m27ce73ad08" x="666.507542" y="248.698055" style="fill: #8c564b; stroke: #8c564b"/>
     <use xlink:href="#m27ce73ad08" x="676.776726" y="395.736179" style="fill: #8c564b; stroke: #8c564b"/>
     <use xlink:href="#m27ce73ad08" x="687.045909" y="352.248805" style="fill: #8c564b; stroke: #8c564b"/>
    </g>
   </g>
   <g id="line2d_29">
    <path d="M 81.164091 509.782812 
L 91.433274 509.825927 
L 101.702458 509.737316 
L 111.971641 509.869407 
L 122.240824 509.84792 
L 132.510008 509.763566 
L 142.779191 509.729818 
L 153.048374 509.385612 
L 163.317558 509.333002 
L 173.586741 508.671577 
L 183.855924 508.44975 
L 194.125108 508.087481 
L 204.394291 508.642117 
L 214.663475 507.984573 
L 224.932658 508.150484 
L 235.201841 507.765251 
L 245.471025 506.512242 
L 255.740208 506.624217 
L 266.009391 506.37303 
L 276.278575 505.840316 
L 286.547758 505.798858 
L 296.816941 504.413702 
L 307.086125 504.427924 
L 317.355308 503.563273 
L 327.624492 502.625087 
L 337.893675 502.879668 
L 348.162858 501.285439 
L 358.432042 499.771164 
L 368.701225 499.527559 
L 378.970408 501.755935 
L 389.239592 496.793105 
L 399.508775 497.376874 
L 409.777958 494.520868 
L 420.047142 495.451908 
L 430.316325 495.568827 
L 440.585508 485.755936 
L 450.854692 489.392677 
L 461.123875 495.545402 
L 471.393059 486.824941 
L 481.662242 489.524377 
L 491.931425 471.081238 
L 502.200609 478.880703 
L 512.469792 483.645768 
L 522.738975 488.336697 
L 533.008159 487.692007 
L 543.277342 488.848846 
L 553.546525 487.475665 
L 563.815709 487.030144 
L 574.084892 486.264206 
L 584.354076 483.253231 
L 594.623259 476.741541 
L 604.892442 475.630308 
L 615.161626 469.878289 
L 625.430809 475.279414 
L 635.699992 467.263088 
L 645.969176 470.979451 
L 656.238359 477.358489 
L 666.507542 442.7111 
L 676.776726 471.870952 
L 687.045909 467.240453 
" clip-path="url(#pafac2eca35)" style="fill: none; stroke: #e377c2; stroke-width: 1.5; stroke-linecap: square"/>
    <defs>
     <path id="mf947107e18" d="M 0 3 
C 0.795609 3 1.55874 2.683901 2.12132 2.12132 
C 2.683901 1.55874 3 0.795609 3 0 
C 3 -0.795609 2.683901 -1.55874 2.12132 -2.12132 
C 1.55874 -2.683901 0.795609 -3 0 -3 
C -0.795609 -3 -1.55874 -2.683901 -2.12132 -2.12132 
C -2.683901 -1.55874 -3 -0.795609 -3 0 
C -3 0.795609 -2.683901 1.55874 -2.12132 2.12132 
C -1.55874 2.683901 -0.795609 3 0 3 
z
" style="stroke: #e377c2"/>
    </defs>
    <g clip-path="url(#pafac2eca35)">
     <use xlink:href="#mf947107e18" x="81.164091" y="509.782812" style="fill: #e377c2; stroke: #e377c2"/>
     <use xlink:href="#mf947107e18" x="91.433274" y="509.825927" style="fill: #e377c2; stroke: #e377c2"/>
     <use xlink:href="#mf947107e18" x="101.702458" y="509.737316" style="fill: #e377c2; stroke: #e377c2"/>
     <use xlink:href="#mf947107e18" x="111.971641" y="509.869407" style="fill: #e377c2; stroke: #e377c2"/>
     <use xlink:href="#mf947107e18" x="122.240824" y="509.84792" style="fill: #e377c2; stroke: #e377c2"/>
     <use xlink:href="#mf947107e18" x="132.510008" y="509.763566" style="fill: #e377c2; stroke: #e377c2"/>
     <use xlink:href="#mf947107e18" x="142.779191" y="509.729818" style="fill: #e377c2; stroke: #e377c2"/>
     <use xlink:href="#mf947107e18" x="153.048374" y="509.385612" style="fill: #e377c2; stroke: #e377c2"/>
     <use xlink:href="#mf947107e18" x="163.317558" y="509.333002" style="fill: #e377c2; stroke: #e377c2"/>
     <use xlink:href="#mf947107e18" x="173.586741" y="508.671577" style="fill: #e377c2; stroke: #e377c2"/>
     <use xlink:href="#mf947107e18" x="183.855924" y="508.44975" style="fill: #e377c2; stroke: #e377c2"/>
     <use xlink:href="#mf947107e18" x="194.125108" y="508.087481" style="fill: #e377c2; stroke: #e377c2"/>
     <use xlink:href="#mf947107e18" x="204.394291" y="508.642117" style="fill: #e377c2; stroke: #e377c2"/>
     <use xlink:href="#mf947107e18" x="214.663475" y="507.984573" style="fill: #e377c2; stroke: #e377c2"/>
     <use xlink:href="#mf947107e18" x="224.932658" y="508.150484" style="fill: #e377c2; stroke: #e377c2"/>
     <use xlink:href="#mf947107e18" x="235.201841" y="507.765251" style="fill: #e377c2; stroke: #e377c2"/>
     <use xlink:href="#mf947107e18" x="245.471025" y="506.512242" style="fill: #e377c2; stroke: #e377c2"/>
     <use xlink:href="#mf947107e18" x="255.740208" y="506.624217" style="fill: #e377c2; stroke: #e377c2"/>
     <use xlink:href="#mf947107e18" x="266.009391" y="506.37303" style="fill: #e377c2; stroke: #e377c2"/>
     <use xlink:href="#mf947107e18" x="276.278575" y="505.840316" style="fill: #e377c2; stroke: #e377c2"/>
     <use xlink:href="#mf947107e18" x="286.547758" y="505.798858" style="fill: #e377c2; stroke: #e377c2"/>
     <use xlink:href="#mf947107e18" x="296.816941" y="504.413702" style="fill: #e377c2; stroke: #e377c2"/>
     <use xlink:href="#mf947107e18" x="307.086125" y="504.427924" style="fill: #e377c2; stroke: #e377c2"/>
     <use xlink:href="#mf947107e18" x="317.355308" y="503.563273" style="fill: #e377c2; stroke: #e377c2"/>
     <use xlink:href="#mf947107e18" x="327.624492" y="502.625087" style="fill: #e377c2; stroke: #e377c2"/>
     <use xlink:href="#mf947107e18" x="337.893675" y="502.879668" style="fill: #e377c2; stroke: #e377c2"/>
     <use xlink:href="#mf947107e18" x="348.162858" y="501.285439" style="fill: #e377c2; stroke: #e377c2"/>
     <use xlink:href="#mf947107e18" x="358.432042" y="499.771164" style="fill: #e377c2; stroke: #e377c2"/>
     <use xlink:href="#mf947107e18" x="368.701225" y="499.527559" style="fill: #e377c2; stroke: #e377c2"/>
     <use xlink:href="#mf947107e18" x="378.970408" y="501.755935" style="fill: #e377c2; stroke: #e377c2"/>
     <use xlink:href="#mf947107e18" x="389.239592" y="496.793105" style="fill: #e377c2; stroke: #e377c2"/>
     <use xlink:href="#mf947107e18" x="399.508775" y="497.376874" style="fill: #e377c2; stroke: #e377c2"/>
     <use xlink:href="#mf947107e18" x="409.777958" y="494.520868" style="fill: #e377c2; stroke: #e377c2"/>
     <use xlink:href="#mf947107e18" x="420.047142" y="495.451908" style="fill: #e377c2; stroke: #e377c2"/>
     <use xlink:href="#mf947107e18" x="430.316325" y="495.568827" style="fill: #e377c2; stroke: #e377c2"/>
     <use xlink:href="#mf947107e18" x="440.585508" y="485.755936" style="fill: #e377c2; stroke: #e377c2"/>
     <use xlink:href="#mf947107e18" x="450.854692" y="489.392677" style="fill: #e377c2; stroke: #e377c2"/>
     <use xlink:href="#mf947107e18" x="461.123875" y="495.545402" style="fill: #e377c2; stroke: #e377c2"/>
     <use xlink:href="#mf947107e18" x="471.393059" y="486.824941" style="fill: #e377c2; stroke: #e377c2"/>
     <use xlink:href="#mf947107e18" x="481.662242" y="489.524377" style="fill: #e377c2; stroke: #e377c2"/>
     <use xlink:href="#mf947107e18" x="491.931425" y="471.081238" style="fill: #e377c2; stroke: #e377c2"/>
     <use xlink:href="#mf947107e18" x="502.200609" y="478.880703" style="fill: #e377c2; stroke: #e377c2"/>
     <use xlink:href="#mf947107e18" x="512.469792" y="483.645768" style="fill: #e377c2; stroke: #e377c2"/>
     <use xlink:href="#mf947107e18" x="522.738975" y="488.336697" style="fill: #e377c2; stroke: #e377c2"/>
     <use xlink:href="#mf947107e18" x="533.008159" y="487.692007" style="fill: #e377c2; stroke: #e377c2"/>
     <use xlink:href="#mf947107e18" x="543.277342" y="488.848846" style="fill: #e377c2; stroke: #e377c2"/>
     <use xlink:href="#mf947107e18" x="553.546525" y="487.475665" style="fill: #e377c2; stroke: #e377c2"/>
     <use xlink:href="#mf947107e18" x="563.815709" y="487.030144" style="fill: #e377c2; stroke: #e377c2"/>
     <use xlink:href="#mf947107e18" x="574.084892" y="486.264206" style="fill: #e377c2; stroke: #e377c2"/>
     <use xlink:href="#mf947107e18" x="584.354076" y="483.253231" style="fill: #e377c2; stroke: #e377c2"/>
     <use xlink:href="#mf947107e18" x="594.623259" y="476.741541" style="fill: #e377c2; stroke: #e377c2"/>
     <use xlink:href="#mf947107e18" x="604.892442" y="475.630308" style="fill: #e377c2; stroke: #e377c2"/>
     <use xlink:href="#mf947107e18" x="615.161626" y="469.878289" style="fill: #e377c2; stroke: #e377c2"/>
     <use xlink:href="#mf947107e18" x="625.430809" y="475.279414" style="fill: #e377c2; stroke: #e377c2"/>
     <use xlink:href="#mf947107e18" x="635.699992" y="467.263088" style="fill: #e377c2; stroke: #e377c2"/>
     <use xlink:href="#mf947107e18" x="645.969176" y="470.979451" style="fill: #e377c2; stroke: #e377c2"/>
     <use xlink:href="#mf947107e18" x="656.238359" y="477.358489" style="fill: #e377c2; stroke: #e377c2"/>
     <use xlink:href="#mf947107e18" x="666.507542" y="442.7111" style="fill: #e377c2; stroke: #e377c2"/>
     <use xlink:href="#mf947107e18" x="676.776726" y="471.870952" style="fill: #e377c2; stroke: #e377c2"/>
     <use xlink:href="#mf947107e18" x="687.045909" y="467.240453" style="fill: #e377c2; stroke: #e377c2"/>
    </g>
   </g>
   <g id="line2d_30">
    <path d="M 491.931425 508.010764 
L 502.200609 508.80757 
L 512.469792 508.307995 
L 522.738975 508.836728 
L 533.008159 509.459931 
L 543.277342 509.949754 
L 553.546525 509.129366 
L 563.815709 508.662962 
L 574.084892 508.66565 
L 584.354076 507.384312 
L 594.623259 504.60929 
L 604.892442 504.601669 
L 615.161626 504.362487 
L 625.430809 505.084739 
L 635.699992 505.378456 
L 645.969176 505.212424 
L 656.238359 507.135974 
L 666.507542 505.199401 
L 676.776726 509.572473 
L 687.045909 509.56399 
" clip-path="url(#pafac2eca35)" style="fill: none; stroke: #7f7f7f; stroke-width: 1.5; stroke-linecap: square"/>
    <defs>
     <path id="mbf6cb40dfc" d="M 0 3 
C 0.795609 3 1.55874 2.683901 2.12132 2.12132 
C 2.683901 1.55874 3 0.795609 3 0 
C 3 -0.795609 2.683901 -1.55874 2.12132 -2.12132 
C 1.55874 -2.683901 0.795609 -3 0 -3 
C -0.795609 -3 -1.55874 -2.683901 -2.12132 -2.12132 
C -2.683901 -1.55874 -3 -0.795609 -3 0 
C -3 0.795609 -2.683901 1.55874 -2.12132 2.12132 
C -1.55874 2.683901 -0.795609 3 0 3 
z
" style="stroke: #7f7f7f"/>
    </defs>
    <g clip-path="url(#pafac2eca35)">
     <use xlink:href="#mbf6cb40dfc" x="491.931425" y="508.010764" style="fill: #7f7f7f; stroke: #7f7f7f"/>
     <use xlink:href="#mbf6cb40dfc" x="502.200609" y="508.80757" style="fill: #7f7f7f; stroke: #7f7f7f"/>
     <use xlink:href="#mbf6cb40dfc" x="512.469792" y="508.307995" style="fill: #7f7f7f; stroke: #7f7f7f"/>
     <use xlink:href="#mbf6cb40dfc" x="522.738975" y="508.836728" style="fill: #7f7f7f; stroke: #7f7f7f"/>
     <use xlink:href="#mbf6cb40dfc" x="533.008159" y="509.459931" style="fill: #7f7f7f; stroke: #7f7f7f"/>
     <use xlink:href="#mbf6cb40dfc" x="543.277342" y="509.949754" style="fill: #7f7f7f; stroke: #7f7f7f"/>
     <use xlink:href="#mbf6cb40dfc" x="553.546525" y="509.129366" style="fill: #7f7f7f; stroke: #7f7f7f"/>
     <use xlink:href="#mbf6cb40dfc" x="563.815709" y="508.662962" style="fill: #7f7f7f; stroke: #7f7f7f"/>
     <use xlink:href="#mbf6cb40dfc" x="574.084892" y="508.66565" style="fill: #7f7f7f; stroke: #7f7f7f"/>
     <use xlink:href="#mbf6cb40dfc" x="584.354076" y="507.384312" style="fill: #7f7f7f; stroke: #7f7f7f"/>
     <use xlink:href="#mbf6cb40dfc" x="594.623259" y="504.60929" style="fill: #7f7f7f; stroke: #7f7f7f"/>
     <use xlink:href="#mbf6cb40dfc" x="604.892442" y="504.601669" style="fill: #7f7f7f; stroke: #7f7f7f"/>
     <use xlink:href="#mbf6cb40dfc" x="615.161626" y="504.362487" style="fill: #7f7f7f; stroke: #7f7f7f"/>
     <use xlink:href="#mbf6cb40dfc" x="625.430809" y="505.084739" style="fill: #7f7f7f; stroke: #7f7f7f"/>
     <use xlink:href="#mbf6cb40dfc" x="635.699992" y="505.378456" style="fill: #7f7f7f; stroke: #7f7f7f"/>
     <use xlink:href="#mbf6cb40dfc" x="645.969176" y="505.212424" style="fill: #7f7f7f; stroke: #7f7f7f"/>
     <use xlink:href="#mbf6cb40dfc" x="656.238359" y="507.135974" style="fill: #7f7f7f; stroke: #7f7f7f"/>
     <use xlink:href="#mbf6cb40dfc" x="666.507542" y="505.199401" style="fill: #7f7f7f; stroke: #7f7f7f"/>
     <use xlink:href="#mbf6cb40dfc" x="676.776726" y="509.572473" style="fill: #7f7f7f; stroke: #7f7f7f"/>
     <use xlink:href="#mbf6cb40dfc" x="687.045909" y="509.56399" style="fill: #7f7f7f; stroke: #7f7f7f"/>
    </g>
   </g>
   <g id="patch_3">
    <path d="M 50.87 534.04 
L 50.87 26.88 
" style="fill: none; stroke: #000000; stroke-width: 0.8; stroke-linejoin: miter; stroke-linecap: square"/>
   </g>
   <g id="patch_4">
    <path d="M 717.34 534.04 
L 717.34 26.88 
" style="fill: none; stroke: #000000; stroke-width: 0.8; stroke-linejoin: miter; stroke-linecap: square"/>
   </g>
   <g id="patch_5">
    <path d="M 50.87 534.04 
L 717.34 534.04 
" style="fill: none; stroke: #000000; stroke-width: 0.8; stroke-linejoin: miter; stroke-linecap: square"/>
   </g>
   <g id="patch_6">
    <path d="M 50.87 26.88 
L 717.34 26.88 
" style="fill: none; stroke: #000000; stroke-width: 0.8; stroke-linejoin: miter; stroke-linecap: square"/>
   </g>
   <g id="text_14">
    <!-- Lobster Value by County Over the Years -->
    <g transform="translate(264.991875 20.88) scale(0.12 -0.12)">
     <defs>
      <path id="DejaVuSans-4c" d="M 628 4666 
L 1259 4666 
L 1259 531 
L 3531 531 
L 3531 0 
L 628 0 
L 628 4666 
z
" transform="scale(0.015625)"/>
      <path id="DejaVuSans-62" d="M 3116 1747 
Q 3116 2381 2855 2742 
Q 2594 3103 2138 3103 
Q 1681 3103 1420 2742 
Q 1159 2381 1159 1747 
Q 1159 1113 1420 752 
Q 1681 391 2138 391 
Q 2594 391 2855 752 
Q 3116 1113 3116 1747 
z
M 1159 2969 
Q 1341 3281 1617 3432 
Q 1894 3584 2278 3584 
Q 2916 3584 3314 3078 
Q 3713 2572 3713 1747 
Q 3713 922 3314 415 
Q 2916 -91 2278 -91 
Q 1894 -91 1617 61 
Q 1341 213 1159 525 
L 1159 0 
L 581 0 
L 581 4863 
L 1159 4863 
L 1159 2969 
z
" transform="scale(0.015625)"/>
      <path id="DejaVuSans-74" d="M 1172 4494 
L 1172 3500 
L 2356 3500 
L 2356 3053 
L 1172 3053 
L 1172 1153 
Q 1172 725 1289 603 
Q 1406 481 1766 481 
L 2356 481 
L 2356 0 
L 1766 0 
Q 1100 0 847 248 
Q 594 497 594 1153 
L 594 3053 
L 172 3053 
L 172 3500 
L 594 3500 
L 594 4494 
L 1172 4494 
z
" transform="scale(0.015625)"/>
      <path id="DejaVuSans-79" d="M 2059 -325 
Q 1816 -950 1584 -1140 
Q 1353 -1331 966 -1331 
L 506 -1331 
L 506 -850 
L 844 -850 
Q 1081 -850 1212 -737 
Q 1344 -625 1503 -206 
L 1606 56 
L 191 3500 
L 800 3500 
L 1894 763 
L 2988 3500 
L 3597 3500 
L 2059 -325 
z
" transform="scale(0.015625)"/>
      <path id="DejaVuSans-43" d="M 4122 4306 
L 4122 3641 
Q 3803 3938 3442 4084 
Q 3081 4231 2675 4231 
Q 1875 4231 1450 3742 
Q 1025 3253 1025 2328 
Q 1025 1406 1450 917 
Q 1875 428 2675 428 
Q 3081 428 3442 575 
Q 3803 722 4122 1019 
L 4122 359 
Q 3791 134 3420 21 
Q 3050 -91 2638 -91 
Q 1578 -91 968 557 
Q 359 1206 359 2328 
Q 359 3453 968 4101 
Q 1578 4750 2638 4750 
Q 3056 4750 3426 4639 
Q 3797 4528 4122 4306 
z
" transform="scale(0.015625)"/>
      <path id="DejaVuSans-4f" d="M 2522 4238 
Q 1834 4238 1429 3725 
Q 1025 3213 1025 2328 
Q 1025 1447 1429 934 
Q 1834 422 2522 422 
Q 3209 422 3611 934 
Q 4013 1447 4013 2328 
Q 4013 3213 3611 3725 
Q 3209 4238 2522 4238 
z
M 2522 4750 
Q 3503 4750 4090 4092 
Q 4678 3434 4678 2328 
Q 4678 1225 4090 567 
Q 3503 -91 2522 -91 
Q 1538 -91 948 565 
Q 359 1222 359 2328 
Q 359 3434 948 4092 
Q 1538 4750 2522 4750 
z
" transform="scale(0.015625)"/>
      <path id="DejaVuSans-76" d="M 191 3500 
L 800 3500 
L 1894 563 
L 2988 3500 
L 3597 3500 
L 2284 0 
L 1503 0 
L 191 3500 
z
" transform="scale(0.015625)"/>
      <path id="DejaVuSans-68" d="M 3513 2113 
L 3513 0 
L 2938 0 
L 2938 2094 
Q 2938 2591 2744 2837 
Q 2550 3084 2163 3084 
Q 1697 3084 1428 2787 
Q 1159 2491 1159 1978 
L 1159 0 
L 581 0 
L 581 4863 
L 1159 4863 
L 1159 2956 
Q 1366 3272 1645 3428 
Q 1925 3584 2291 3584 
Q 2894 3584 3203 3211 
Q 3513 2838 3513 2113 
z
" transform="scale(0.015625)"/>
     </defs>
     <use xlink:href="#DejaVuSans-4c"/>
     <use xlink:href="#DejaVuSans-6f" x="53.962891"/>
     <use xlink:href="#DejaVuSans-62" x="115.144531"/>
     <use xlink:href="#DejaVuSans-73" x="178.621094"/>
     <use xlink:href="#DejaVuSans-74" x="230.720703"/>
     <use xlink:href="#DejaVuSans-65" x="269.929688"/>
     <use xlink:href="#DejaVuSans-72" x="331.453125"/>
     <use xlink:href="#DejaVuSans-20" x="372.566406"/>
     <use xlink:href="#DejaVuSans-56" x="404.353516"/>
     <use xlink:href="#DejaVuSans-61" x="465.011719"/>
     <use xlink:href="#DejaVuSans-6c" x="526.291016"/>
     <use xlink:href="#DejaVuSans-75" x="554.074219"/>
     <use xlink:href="#DejaVuSans-65" x="617.453125"/>
     <use xlink:href="#DejaVuSans-20" x="678.976562"/>
     <use xlink:href="#DejaVuSans-62" x="710.763672"/>
     <use xlink:href="#DejaVuSans-79" x="774.240234"/>
     <use xlink:href="#DejaVuSans-20" x="833.419922"/>
     <use xlink:href="#DejaVuSans-43" x="865.207031"/>
     <use xlink:href="#DejaVuSans-6f" x="935.03125"/>
     <use xlink:href="#DejaVuSans-75" x="996.212891"/>
     <use xlink:href="#DejaVuSans-6e" x="1059.591797"/>
     <use xlink:href="#DejaVuSans-74" x="1122.970703"/>
     <use xlink:href="#DejaVuSans-79" x="1162.179688"/>
     <use xlink:href="#DejaVuSans-20" x="1221.359375"/>
     <use xlink:href="#DejaVuSans-4f" x="1253.146484"/>
     <use xlink:href="#DejaVuSans-76" x="1331.857422"/>
     <use xlink:href="#DejaVuSans-65" x="1391.037109"/>
     <use xlink:href="#DejaVuSans-72" x="1452.560547"/>
     <use xlink:href="#DejaVuSans-20" x="1493.673828"/>
     <use xlink:href="#DejaVuSans-74" x="1525.460938"/>
     <use xlink:href="#DejaVuSans-68" x="1564.669922"/>
     <use xlink:href="#DejaVuSans-65" x="1628.048828"/>
     <use xlink:href="#DejaVuSans-20" x="1689.572266"/>
     <use xlink:href="#DejaVuSans-59" x="1721.359375"/>
     <use xlink:href="#DejaVuSans-65" x="1769.193359"/>
     <use xlink:href="#DejaVuSans-61" x="1830.716797"/>
     <use xlink:href="#DejaVuSans-72" x="1891.996094"/>
     <use xlink:href="#DejaVuSans-73" x="1933.109375"/>
    </g>
   </g>
   <g id="legend_1">
    <g id="patch_7">
     <path d="M 757.6635 166.983125 
L 850.929125 166.983125 
Q 852.929125 166.983125 852.929125 164.983125 
L 852.929125 33.88 
Q 852.929125 31.88 850.929125 31.88 
L 757.6635 31.88 
Q 755.6635 31.88 755.6635 33.88 
L 755.6635 164.983125 
Q 755.6635 166.983125 757.6635 166.983125 
z
" style="fill: #ffffff; opacity: 0.8; stroke: #cccccc; stroke-linejoin: miter"/>
    </g>
    <g id="text_15">
     <!-- County -->
     <g transform="translate(786.4885 43.478438) scale(0.1 -0.1)">
      <use xlink:href="#DejaVuSans-43"/>
      <use xlink:href="#DejaVuSans-6f" x="69.824219"/>
      <use xlink:href="#DejaVuSans-75" x="131.005859"/>
      <use xlink:href="#DejaVuSans-6e" x="194.384766"/>
      <use xlink:href="#DejaVuSans-74" x="257.763672"/>
      <use xlink:href="#DejaVuSans-79" x="296.972656"/>
     </g>
    </g>
    <g id="line2d_31">
     <path d="M 759.6635 54.656563 
L 769.6635 54.656563 
L 779.6635 54.656563 
" style="fill: none; stroke: #1f77b4; stroke-width: 1.5; stroke-linecap: square"/>
     <g>
      <use xlink:href="#m8d48741fd9" x="769.6635" y="54.656563" style="fill: #1f77b4; stroke: #1f77b4"/>
     </g>
    </g>
    <g id="text_16">
     <!-- Cumberland -->
     <g transform="translate(787.6635 58.156563) scale(0.1 -0.1)">
      <defs>
       <path id="DejaVuSans-6d" d="M 3328 2828 
Q 3544 3216 3844 3400 
Q 4144 3584 4550 3584 
Q 5097 3584 5394 3201 
Q 5691 2819 5691 2113 
L 5691 0 
L 5113 0 
L 5113 2094 
Q 5113 2597 4934 2840 
Q 4756 3084 4391 3084 
Q 3944 3084 3684 2787 
Q 3425 2491 3425 1978 
L 3425 0 
L 2847 0 
L 2847 2094 
Q 2847 2600 2669 2842 
Q 2491 3084 2119 3084 
Q 1678 3084 1418 2786 
Q 1159 2488 1159 1978 
L 1159 0 
L 581 0 
L 581 3500 
L 1159 3500 
L 1159 2956 
Q 1356 3278 1631 3431 
Q 1906 3584 2284 3584 
Q 2666 3584 2933 3390 
Q 3200 3197 3328 2828 
z
" transform="scale(0.015625)"/>
       <path id="DejaVuSans-64" d="M 2906 2969 
L 2906 4863 
L 3481 4863 
L 3481 0 
L 2906 0 
L 2906 525 
Q 2725 213 2448 61 
Q 2172 -91 1784 -91 
Q 1150 -91 751 415 
Q 353 922 353 1747 
Q 353 2572 751 3078 
Q 1150 3584 1784 3584 
Q 2172 3584 2448 3432 
Q 2725 3281 2906 2969 
z
M 947 1747 
Q 947 1113 1208 752 
Q 1469 391 1925 391 
Q 2381 391 2643 752 
Q 2906 1113 2906 1747 
Q 2906 2381 2643 2742 
Q 2381 3103 1925 3103 
Q 1469 3103 1208 2742 
Q 947 2381 947 1747 
z
" transform="scale(0.015625)"/>
      </defs>
      <use xlink:href="#DejaVuSans-43"/>
      <use xlink:href="#DejaVuSans-75" x="69.824219"/>
      <use xlink:href="#DejaVuSans-6d" x="133.203125"/>
      <use xlink:href="#DejaVuSans-62" x="230.615234"/>
      <use xlink:href="#DejaVuSans-65" x="294.091797"/>
      <use xlink:href="#DejaVuSans-72" x="355.615234"/>
      <use xlink:href="#DejaVuSans-6c" x="396.728516"/>
      <use xlink:href="#DejaVuSans-61" x="424.511719"/>
      <use xlink:href="#DejaVuSans-6e" x="485.791016"/>
      <use xlink:href="#DejaVuSans-64" x="549.169922"/>
     </g>
    </g>
    <g id="line2d_32">
     <path d="M 759.6635 69.334688 
L 769.6635 69.334688 
L 779.6635 69.334688 
" style="fill: none; stroke: #ff7f0e; stroke-width: 1.5; stroke-linecap: square"/>
     <g>
      <use xlink:href="#m978d08d37e" x="769.6635" y="69.334688" style="fill: #ff7f0e; stroke: #ff7f0e"/>
     </g>
    </g>
    <g id="text_17">
     <!-- Hancock -->
     <g transform="translate(787.6635 72.834688) scale(0.1 -0.1)">
      <defs>
       <path id="DejaVuSans-48" d="M 628 4666 
L 1259 4666 
L 1259 2753 
L 3553 2753 
L 3553 4666 
L 4184 4666 
L 4184 0 
L 3553 0 
L 3553 2222 
L 1259 2222 
L 1259 0 
L 628 0 
L 628 4666 
z
" transform="scale(0.015625)"/>
       <path id="DejaVuSans-63" d="M 3122 3366 
L 3122 2828 
Q 2878 2963 2633 3030 
Q 2388 3097 2138 3097 
Q 1578 3097 1268 2742 
Q 959 2388 959 1747 
Q 959 1106 1268 751 
Q 1578 397 2138 397 
Q 2388 397 2633 464 
Q 2878 531 3122 666 
L 3122 134 
Q 2881 22 2623 -34 
Q 2366 -91 2075 -91 
Q 1284 -91 818 406 
Q 353 903 353 1747 
Q 353 2603 823 3093 
Q 1294 3584 2113 3584 
Q 2378 3584 2631 3529 
Q 2884 3475 3122 3366 
z
" transform="scale(0.015625)"/>
       <path id="DejaVuSans-6b" d="M 581 4863 
L 1159 4863 
L 1159 1991 
L 2875 3500 
L 3609 3500 
L 1753 1863 
L 3688 0 
L 2938 0 
L 1159 1709 
L 1159 0 
L 581 0 
L 581 4863 
z
" transform="scale(0.015625)"/>
      </defs>
      <use xlink:href="#DejaVuSans-48"/>
      <use xlink:href="#DejaVuSans-61" x="75.195312"/>
      <use xlink:href="#DejaVuSans-6e" x="136.474609"/>
      <use xlink:href="#DejaVuSans-63" x="199.853516"/>
      <use xlink:href="#DejaVuSans-6f" x="254.833984"/>
      <use xlink:href="#DejaVuSans-63" x="316.015625"/>
      <use xlink:href="#DejaVuSans-6b" x="370.996094"/>
     </g>
    </g>
    <g id="line2d_33">
     <path d="M 759.6635 84.012813 
L 769.6635 84.012813 
L 779.6635 84.012813 
" style="fill: none; stroke: #2ca02c; stroke-width: 1.5; stroke-linecap: square"/>
     <g>
      <use xlink:href="#mc5e67f2fc5" x="769.6635" y="84.012813" style="fill: #2ca02c; stroke: #2ca02c"/>
     </g>
    </g>
    <g id="text_18">
     <!-- Knox -->
     <g transform="translate(787.6635 87.512813) scale(0.1 -0.1)">
      <defs>
       <path id="DejaVuSans-4b" d="M 628 4666 
L 1259 4666 
L 1259 2694 
L 3353 4666 
L 4166 4666 
L 1850 2491 
L 4331 0 
L 3500 0 
L 1259 2247 
L 1259 0 
L 628 0 
L 628 4666 
z
" transform="scale(0.015625)"/>
       <path id="DejaVuSans-78" d="M 3513 3500 
L 2247 1797 
L 3578 0 
L 2900 0 
L 1881 1375 
L 863 0 
L 184 0 
L 1544 1831 
L 300 3500 
L 978 3500 
L 1906 2253 
L 2834 3500 
L 3513 3500 
z
" transform="scale(0.015625)"/>
      </defs>
      <use xlink:href="#DejaVuSans-4b"/>
      <use xlink:href="#DejaVuSans-6e" x="65.576172"/>
      <use xlink:href="#DejaVuSans-6f" x="128.955078"/>
      <use xlink:href="#DejaVuSans-78" x="187.011719"/>
     </g>
    </g>
    <g id="line2d_34">
     <path d="M 759.6635 98.690938 
L 769.6635 98.690938 
L 779.6635 98.690938 
" style="fill: none; stroke: #d62728; stroke-width: 1.5; stroke-linecap: square"/>
     <g>
      <use xlink:href="#m135838f77c" x="769.6635" y="98.690938" style="fill: #d62728; stroke: #d62728"/>
     </g>
    </g>
    <g id="text_19">
     <!-- Lincoln -->
     <g transform="translate(787.6635 102.190938) scale(0.1 -0.1)">
      <use xlink:href="#DejaVuSans-4c"/>
      <use xlink:href="#DejaVuSans-69" x="55.712891"/>
      <use xlink:href="#DejaVuSans-6e" x="83.496094"/>
      <use xlink:href="#DejaVuSans-63" x="146.875"/>
      <use xlink:href="#DejaVuSans-6f" x="201.855469"/>
      <use xlink:href="#DejaVuSans-6c" x="263.037109"/>
      <use xlink:href="#DejaVuSans-6e" x="290.820312"/>
     </g>
    </g>
    <g id="line2d_35">
     <path d="M 759.6635 113.369063 
L 769.6635 113.369063 
L 779.6635 113.369063 
" style="fill: none; stroke: #9467bd; stroke-width: 1.5; stroke-linecap: square"/>
     <g>
      <use xlink:href="#mdd6d925156" x="769.6635" y="113.369063" style="fill: #9467bd; stroke: #9467bd"/>
     </g>
    </g>
    <g id="text_20">
     <!-- Sagadahoc -->
     <g transform="translate(787.6635 116.869063) scale(0.1 -0.1)">
      <defs>
       <path id="DejaVuSans-53" d="M 3425 4513 
L 3425 3897 
Q 3066 4069 2747 4153 
Q 2428 4238 2131 4238 
Q 1616 4238 1336 4038 
Q 1056 3838 1056 3469 
Q 1056 3159 1242 3001 
Q 1428 2844 1947 2747 
L 2328 2669 
Q 3034 2534 3370 2195 
Q 3706 1856 3706 1288 
Q 3706 609 3251 259 
Q 2797 -91 1919 -91 
Q 1588 -91 1214 -16 
Q 841 59 441 206 
L 441 856 
Q 825 641 1194 531 
Q 1563 422 1919 422 
Q 2459 422 2753 634 
Q 3047 847 3047 1241 
Q 3047 1584 2836 1778 
Q 2625 1972 2144 2069 
L 1759 2144 
Q 1053 2284 737 2584 
Q 422 2884 422 3419 
Q 422 4038 858 4394 
Q 1294 4750 2059 4750 
Q 2388 4750 2728 4690 
Q 3069 4631 3425 4513 
z
" transform="scale(0.015625)"/>
       <path id="DejaVuSans-67" d="M 2906 1791 
Q 2906 2416 2648 2759 
Q 2391 3103 1925 3103 
Q 1463 3103 1205 2759 
Q 947 2416 947 1791 
Q 947 1169 1205 825 
Q 1463 481 1925 481 
Q 2391 481 2648 825 
Q 2906 1169 2906 1791 
z
M 3481 434 
Q 3481 -459 3084 -895 
Q 2688 -1331 1869 -1331 
Q 1566 -1331 1297 -1286 
Q 1028 -1241 775 -1147 
L 775 -588 
Q 1028 -725 1275 -790 
Q 1522 -856 1778 -856 
Q 2344 -856 2625 -561 
Q 2906 -266 2906 331 
L 2906 616 
Q 2728 306 2450 153 
Q 2172 0 1784 0 
Q 1141 0 747 490 
Q 353 981 353 1791 
Q 353 2603 747 3093 
Q 1141 3584 1784 3584 
Q 2172 3584 2450 3431 
Q 2728 3278 2906 2969 
L 2906 3500 
L 3481 3500 
L 3481 434 
z
" transform="scale(0.015625)"/>
      </defs>
      <use xlink:href="#DejaVuSans-53"/>
      <use xlink:href="#DejaVuSans-61" x="63.476562"/>
      <use xlink:href="#DejaVuSans-67" x="124.755859"/>
      <use xlink:href="#DejaVuSans-61" x="188.232422"/>
      <use xlink:href="#DejaVuSans-64" x="249.511719"/>
      <use xlink:href="#DejaVuSans-61" x="312.988281"/>
      <use xlink:href="#DejaVuSans-68" x="374.267578"/>
      <use xlink:href="#DejaVuSans-6f" x="437.646484"/>
      <use xlink:href="#DejaVuSans-63" x="498.828125"/>
     </g>
    </g>
    <g id="line2d_36">
     <path d="M 759.6635 128.047188 
L 769.6635 128.047188 
L 779.6635 128.047188 
" style="fill: none; stroke: #8c564b; stroke-width: 1.5; stroke-linecap: square"/>
     <g>
      <use xlink:href="#m27ce73ad08" x="769.6635" y="128.047188" style="fill: #8c564b; stroke: #8c564b"/>
     </g>
    </g>
    <g id="text_21">
     <!-- Washington -->
     <g transform="translate(787.6635 131.547188) scale(0.1 -0.1)">
      <defs>
       <path id="DejaVuSans-57" d="M 213 4666 
L 850 4666 
L 1831 722 
L 2809 4666 
L 3519 4666 
L 4500 722 
L 5478 4666 
L 6119 4666 
L 4947 0 
L 4153 0 
L 3169 4050 
L 2175 0 
L 1381 0 
L 213 4666 
z
" transform="scale(0.015625)"/>
      </defs>
      <use xlink:href="#DejaVuSans-57"/>
      <use xlink:href="#DejaVuSans-61" x="92.501953"/>
      <use xlink:href="#DejaVuSans-73" x="153.78125"/>
      <use xlink:href="#DejaVuSans-68" x="205.880859"/>
      <use xlink:href="#DejaVuSans-69" x="269.259766"/>
      <use xlink:href="#DejaVuSans-6e" x="297.042969"/>
      <use xlink:href="#DejaVuSans-67" x="360.421875"/>
      <use xlink:href="#DejaVuSans-74" x="423.898438"/>
      <use xlink:href="#DejaVuSans-6f" x="463.107422"/>
      <use xlink:href="#DejaVuSans-6e" x="524.289062"/>
     </g>
    </g>
    <g id="line2d_37">
     <path d="M 759.6635 142.725313 
L 769.6635 142.725313 
L 779.6635 142.725313 
" style="fill: none; stroke: #e377c2; stroke-width: 1.5; stroke-linecap: square"/>
     <g>
      <use xlink:href="#mf947107e18" x="769.6635" y="142.725313" style="fill: #e377c2; stroke: #e377c2"/>
     </g>
    </g>
    <g id="text_22">
     <!-- York -->
     <g transform="translate(787.6635 146.225313) scale(0.1 -0.1)">
      <use xlink:href="#DejaVuSans-59"/>
      <use xlink:href="#DejaVuSans-6f" x="47.833984"/>
      <use xlink:href="#DejaVuSans-72" x="109.015625"/>
      <use xlink:href="#DejaVuSans-6b" x="150.128906"/>
     </g>
    </g>
    <g id="line2d_38">
     <path d="M 759.6635 157.403438 
L 769.6635 157.403438 
L 779.6635 157.403438 
" style="fill: none; stroke: #7f7f7f; stroke-width: 1.5; stroke-linecap: square"/>
     <g>
      <use xlink:href="#mbf6cb40dfc" x="769.6635" y="157.403438" style="fill: #7f7f7f; stroke: #7f7f7f"/>
     </g>
    </g>
    <g id="text_23">
     <!-- Waldo -->
     <g transform="translate(787.6635 160.903438) scale(0.1 -0.1)">
      <use xlink:href="#DejaVuSans-57"/>
      <use xlink:href="#DejaVuSans-61" x="92.501953"/>
      <use xlink:href="#DejaVuSans-6c" x="153.78125"/>
      <use xlink:href="#DejaVuSans-64" x="181.564453"/>
      <use xlink:href="#DejaVuSans-6f" x="245.041016"/>
     </g>
    </g>
   </g>
  </g>
 </g>
 <defs>
  <clipPath id="pafac2eca35">
   <rect x="50.87" y="26.88" width="666.47" height="507.16"/>
  </clipPath>
 </defs>
</svg>
