<?xml version="1.0" encoding="utf-8" standalone="no"?>
<!DOCTYPE svg PUBLIC "-//W3C//DTD SVG 1.1//EN"
  "http://www.w3.org/Graphics/SVG/1.1/DTD/svg11.dtd">
<svg xmlns:xlink="http://www.w3.org/1999/xlink" width="720pt" height="432pt" viewBox="0 0 720 432" xmlns="http://www.w3.org/2000/svg" version="1.1">
 <metadata>
  <rdf:RDF xmlns:dc="http://purl.org/dc/elements/1.1/" xmlns:cc="http://creativecommons.org/ns#" xmlns:rdf="http://www.w3.org/1999/02/22-rdf-syntax-ns#">
   <cc:Work>
    <dc:type rdf:resource="http://purl.org/dc/dcmitype/StillImage"/>
    <dc:date>2025-07-01T10:04:42.231071</dc:date>
    <dc:format>image/svg+xml</dc:format>
    <dc:creator>
     <cc:Agent>
      <dc:title>Matplotlib v3.9.3, https://matplotlib.org/</dc:title>
     </cc:Agent>
    </dc:creator>
   </cc:Work>
  </rdf:RDF>
 </metadata>
 <defs>
  <style type="text/css">*{stroke-linejoin: round; stroke-linecap: butt}</style>
 </defs>
 <g id="figure_1">
  <g id="patch_1">
   <path d="M 0 432 
L 720 432 
L 720 0 
L 0 0 
z
" style="fill: #ffffff"/>
  </g>
  <g id="axes_1">
   <g id="patch_2">
    <path d="M 90 384.48 
L 648 384.48 
L 648 51.84 
L 90 51.84 
z
" style="fill: #ffffff"/>
   </g>
   <g id="matplotlib.axis_1">
    <g id="xtick_1">
     <g id="line2d_1">
      <path d="M 159.094044 384.48 
L 159.094044 51.84 
" clip-path="url(#pda91502adf)" style="fill: none; stroke: #b0b0b0; stroke-width: 0.8; stroke-linecap: square"/>
     </g>
     <g id="line2d_2">
      <defs>
       <path id="maa76c39094" d="M 0 0 
L 0 3.5 
" style="stroke: #000000; stroke-width: 0.8"/>
      </defs>
      <g>
       <use xlink:href="#maa76c39094" x="159.094044" y="384.48" style="stroke: #000000; stroke-width: 0.8"/>
      </g>
     </g>
     <g id="text_1">
      <!-- 1970 -->
      <g transform="translate(146.369044 399.078438) scale(0.1 -0.1)">
       <defs>
        <path id="DejaVuSans-31" d="M 794 531 
L 1825 531 
L 1825 4091 
L 703 3866 
L 703 4441 
L 1819 4666 
L 2450 4666 
L 2450 531 
L 3481 531 
L 3481 0 
L 794 0 
L 794 531 
z
" transform="scale(0.015625)"/>
        <path id="DejaVuSans-39" d="M 703 97 
L 703 672 
Q 941 559 1184 500 
Q 1428 441 1663 441 
Q 2288 441 2617 861 
Q 2947 1281 2994 2138 
Q 2813 1869 2534 1725 
Q 2256 1581 1919 1581 
Q 1219 1581 811 2004 
Q 403 2428 403 3163 
Q 403 3881 828 4315 
Q 1253 4750 1959 4750 
Q 2769 4750 3195 4129 
Q 3622 3509 3622 2328 
Q 3622 1225 3098 567 
Q 2575 -91 1691 -91 
Q 1453 -91 1209 -44 
Q 966 3 703 97 
z
M 1959 2075 
Q 2384 2075 2632 2365 
Q 2881 2656 2881 3163 
Q 2881 3666 2632 3958 
Q 2384 4250 1959 4250 
Q 1534 4250 1286 3958 
Q 1038 3666 1038 3163 
Q 1038 2656 1286 2365 
Q 1534 2075 1959 2075 
z
" transform="scale(0.015625)"/>
        <path id="DejaVuSans-37" d="M 525 4666 
L 3525 4666 
L 3525 4397 
L 1831 0 
L 1172 0 
L 2766 4134 
L 525 4134 
L 525 4666 
z
" transform="scale(0.015625)"/>
        <path id="DejaVuSans-30" d="M 2034 4250 
Q 1547 4250 1301 3770 
Q 1056 3291 1056 2328 
Q 1056 1369 1301 889 
Q 1547 409 2034 409 
Q 2525 409 2770 889 
Q 3016 1369 3016 2328 
Q 3016 3291 2770 3770 
Q 2525 4250 2034 4250 
z
M 2034 4750 
Q 2819 4750 3233 4129 
Q 3647 3509 3647 2328 
Q 3647 1150 3233 529 
Q 2819 -91 2034 -91 
Q 1250 -91 836 529 
Q 422 1150 422 2328 
Q 422 3509 836 4129 
Q 1250 4750 2034 4750 
z
" transform="scale(0.015625)"/>
       </defs>
       <use xlink:href="#DejaVuSans-31"/>
       <use xlink:href="#DejaVuSans-39" x="63.623047"/>
       <use xlink:href="#DejaVuSans-37" x="127.246094"/>
       <use xlink:href="#DejaVuSans-30" x="190.869141"/>
      </g>
     </g>
    </g>
    <g id="xtick_2">
     <g id="line2d_3">
      <path d="M 246.554859 384.48 
L 246.554859 51.84 
" clip-path="url(#pda91502adf)" style="fill: none; stroke: #b0b0b0; stroke-width: 0.8; stroke-linecap: square"/>
     </g>
     <g id="line2d_4">
      <g>
       <use xlink:href="#maa76c39094" x="246.554859" y="384.48" style="stroke: #000000; stroke-width: 0.8"/>
      </g>
     </g>
     <g id="text_2">
      <!-- 1980 -->
      <g transform="translate(233.829859 399.078438) scale(0.1 -0.1)">
       <defs>
        <path id="DejaVuSans-38" d="M 2034 2216 
Q 1584 2216 1326 1975 
Q 1069 1734 1069 1313 
Q 1069 891 1326 650 
Q 1584 409 2034 409 
Q 2484 409 2743 651 
Q 3003 894 3003 1313 
Q 3003 1734 2745 1975 
Q 2488 2216 2034 2216 
z
M 1403 2484 
Q 997 2584 770 2862 
Q 544 3141 544 3541 
Q 544 4100 942 4425 
Q 1341 4750 2034 4750 
Q 2731 4750 3128 4425 
Q 3525 4100 3525 3541 
Q 3525 3141 3298 2862 
Q 3072 2584 2669 2484 
Q 3125 2378 3379 2068 
Q 3634 1759 3634 1313 
Q 3634 634 3220 271 
Q 2806 -91 2034 -91 
Q 1263 -91 848 271 
Q 434 634 434 1313 
Q 434 1759 690 2068 
Q 947 2378 1403 2484 
z
M 1172 3481 
Q 1172 3119 1398 2916 
Q 1625 2713 2034 2713 
Q 2441 2713 2670 2916 
Q 2900 3119 2900 3481 
Q 2900 3844 2670 4047 
Q 2441 4250 2034 4250 
Q 1625 4250 1398 4047 
Q 1172 3844 1172 3481 
z
" transform="scale(0.015625)"/>
       </defs>
       <use xlink:href="#DejaVuSans-31"/>
       <use xlink:href="#DejaVuSans-39" x="63.623047"/>
       <use xlink:href="#DejaVuSans-38" x="127.246094"/>
       <use xlink:href="#DejaVuSans-30" x="190.869141"/>
      </g>
     </g>
    </g>
    <g id="xtick_3">
     <g id="line2d_5">
      <path d="M 334.015674 384.48 
L 334.015674 51.84 
" clip-path="url(#pda91502adf)" style="fill: none; stroke: #b0b0b0; stroke-width: 0.8; stroke-linecap: square"/>
     </g>
     <g id="line2d_6">
      <g>
       <use xlink:href="#maa76c39094" x="334.015674" y="384.48" style="stroke: #000000; stroke-width: 0.8"/>
      </g>
     </g>
     <g id="text_3">
      <!-- 1990 -->
      <g transform="translate(321.290674 399.078438) scale(0.1 -0.1)">
       <use xlink:href="#DejaVuSans-31"/>
       <use xlink:href="#DejaVuSans-39" x="63.623047"/>
       <use xlink:href="#DejaVuSans-39" x="127.246094"/>
       <use xlink:href="#DejaVuSans-30" x="190.869141"/>
      </g>
     </g>
    </g>
    <g id="xtick_4">
     <g id="line2d_7">
      <path d="M 421.476489 384.48 
L 421.476489 51.84 
" clip-path="url(#pda91502adf)" style="fill: none; stroke: #b0b0b0; stroke-width: 0.8; stroke-linecap: square"/>
     </g>
     <g id="line2d_8">
      <g>
       <use xlink:href="#maa76c39094" x="421.476489" y="384.48" style="stroke: #000000; stroke-width: 0.8"/>
      </g>
     </g>
     <g id="text_4">
      <!-- 2000 -->
      <g transform="translate(408.751489 399.078438) scale(0.1 -0.1)">
       <defs>
        <path id="DejaVuSans-32" d="M 1228 531 
L 3431 531 
L 3431 0 
L 469 0 
L 469 531 
Q 828 903 1448 1529 
Q 2069 2156 2228 2338 
Q 2531 2678 2651 2914 
Q 2772 3150 2772 3378 
Q 2772 3750 2511 3984 
Q 2250 4219 1831 4219 
Q 1534 4219 1204 4116 
Q 875 4013 500 3803 
L 500 4441 
Q 881 4594 1212 4672 
Q 1544 4750 1819 4750 
Q 2544 4750 2975 4387 
Q 3406 4025 3406 3419 
Q 3406 3131 3298 2873 
Q 3191 2616 2906 2266 
Q 2828 2175 2409 1742 
Q 1991 1309 1228 531 
z
" transform="scale(0.015625)"/>
       </defs>
       <use xlink:href="#DejaVuSans-32"/>
       <use xlink:href="#DejaVuSans-30" x="63.623047"/>
       <use xlink:href="#DejaVuSans-30" x="127.246094"/>
       <use xlink:href="#DejaVuSans-30" x="190.869141"/>
      </g>
     </g>
    </g>
    <g id="xtick_5">
     <g id="line2d_9">
      <path d="M 508.937304 384.48 
L 508.937304 51.84 
" clip-path="url(#pda91502adf)" style="fill: none; stroke: #b0b0b0; stroke-width: 0.8; stroke-linecap: square"/>
     </g>
     <g id="line2d_10">
      <g>
       <use xlink:href="#maa76c39094" x="508.937304" y="384.48" style="stroke: #000000; stroke-width: 0.8"/>
      </g>
     </g>
     <g id="text_5">
      <!-- 2010 -->
      <g transform="translate(496.212304 399.078438) scale(0.1 -0.1)">
       <use xlink:href="#DejaVuSans-32"/>
       <use xlink:href="#DejaVuSans-30" x="63.623047"/>
       <use xlink:href="#DejaVuSans-31" x="127.246094"/>
       <use xlink:href="#DejaVuSans-30" x="190.869141"/>
      </g>
     </g>
    </g>
    <g id="xtick_6">
     <g id="line2d_11">
      <path d="M 596.398119 384.48 
L 596.398119 51.84 
" clip-path="url(#pda91502adf)" style="fill: none; stroke: #b0b0b0; stroke-width: 0.8; stroke-linecap: square"/>
     </g>
     <g id="line2d_12">
      <g>
       <use xlink:href="#maa76c39094" x="596.398119" y="384.48" style="stroke: #000000; stroke-width: 0.8"/>
      </g>
     </g>
     <g id="text_6">
      <!-- 2020 -->
      <g transform="translate(583.673119 399.078438) scale(0.1 -0.1)">
       <use xlink:href="#DejaVuSans-32"/>
       <use xlink:href="#DejaVuSans-30" x="63.623047"/>
       <use xlink:href="#DejaVuSans-32" x="127.246094"/>
       <use xlink:href="#DejaVuSans-30" x="190.869141"/>
      </g>
     </g>
    </g>
    <g id="text_7">
     <!-- Year -->
     <g transform="translate(358.4125 412.756563) scale(0.1 -0.1)">
      <defs>
       <path id="DejaVuSans-59" d="M -13 4666 
L 666 4666 
L 1959 2747 
L 3244 4666 
L 3922 4666 
L 2272 2222 
L 2272 0 
L 1638 0 
L 1638 2222 
L -13 4666 
z
" transform="scale(0.015625)"/>
       <path id="DejaVuSans-65" d="M 3597 1894 
L 3597 1613 
L 953 1613 
Q 991 1019 1311 708 
Q 1631 397 2203 397 
Q 2534 397 2845 478 
Q 3156 559 3463 722 
L 3463 178 
Q 3153 47 2828 -22 
Q 2503 -91 2169 -91 
Q 1331 -91 842 396 
Q 353 884 353 1716 
Q 353 2575 817 3079 
Q 1281 3584 2069 3584 
Q 2775 3584 3186 3129 
Q 3597 2675 3597 1894 
z
M 3022 2063 
Q 3016 2534 2758 2815 
Q 2500 3097 2075 3097 
Q 1594 3097 1305 2825 
Q 1016 2553 972 2059 
L 3022 2063 
z
" transform="scale(0.015625)"/>
       <path id="DejaVuSans-61" d="M 2194 1759 
Q 1497 1759 1228 1600 
Q 959 1441 959 1056 
Q 959 750 1161 570 
Q 1363 391 1709 391 
Q 2188 391 2477 730 
Q 2766 1069 2766 1631 
L 2766 1759 
L 2194 1759 
z
M 3341 1997 
L 3341 0 
L 2766 0 
L 2766 531 
Q 2569 213 2275 61 
Q 1981 -91 1556 -91 
Q 1019 -91 701 211 
Q 384 513 384 1019 
Q 384 1609 779 1909 
Q 1175 2209 1959 2209 
L 2766 2209 
L 2766 2266 
Q 2766 2663 2505 2880 
Q 2244 3097 1772 3097 
Q 1472 3097 1187 3025 
Q 903 2953 641 2809 
L 641 3341 
Q 956 3463 1253 3523 
Q 1550 3584 1831 3584 
Q 2591 3584 2966 3190 
Q 3341 2797 3341 1997 
z
" transform="scale(0.015625)"/>
       <path id="DejaVuSans-72" d="M 2631 2963 
Q 2534 3019 2420 3045 
Q 2306 3072 2169 3072 
Q 1681 3072 1420 2755 
Q 1159 2438 1159 1844 
L 1159 0 
L 581 0 
L 581 3500 
L 1159 3500 
L 1159 2956 
Q 1341 3275 1631 3429 
Q 1922 3584 2338 3584 
Q 2397 3584 2469 3576 
Q 2541 3569 2628 3553 
L 2631 2963 
z
" transform="scale(0.015625)"/>
      </defs>
      <use xlink:href="#DejaVuSans-59"/>
      <use xlink:href="#DejaVuSans-65" x="47.833984"/>
      <use xlink:href="#DejaVuSans-61" x="109.357422"/>
      <use xlink:href="#DejaVuSans-72" x="170.636719"/>
     </g>
    </g>
   </g>
   <g id="matplotlib.axis_2">
    <g id="ytick_1">
     <g id="line2d_13">
      <path d="M 90 324.036079 
L 648 324.036079 
" clip-path="url(#pda91502adf)" style="fill: none; stroke: #b0b0b0; stroke-width: 0.8; stroke-linecap: square"/>
     </g>
     <g id="line2d_14">
      <defs>
       <path id="maad510fbea" d="M 0 0 
L -3.5 0 
" style="stroke: #000000; stroke-width: 0.8"/>
      </defs>
      <g>
       <use xlink:href="#maad510fbea" x="90" y="324.036079" style="stroke: #000000; stroke-width: 0.8"/>
      </g>
     </g>
     <g id="text_8">
      <!-- −10 -->
      <g transform="translate(61.895313 327.835298) scale(0.1 -0.1)">
       <defs>
        <path id="DejaVuSans-2212" d="M 678 2272 
L 4684 2272 
L 4684 1741 
L 678 1741 
L 678 2272 
z
" transform="scale(0.015625)"/>
       </defs>
       <use xlink:href="#DejaVuSans-2212"/>
       <use xlink:href="#DejaVuSans-31" x="83.789062"/>
       <use xlink:href="#DejaVuSans-30" x="147.412109"/>
      </g>
     </g>
    </g>
    <g id="ytick_2">
     <g id="line2d_15">
      <path d="M 90 261.134427 
L 648 261.134427 
" clip-path="url(#pda91502adf)" style="fill: none; stroke: #b0b0b0; stroke-width: 0.8; stroke-linecap: square"/>
     </g>
     <g id="line2d_16">
      <g>
       <use xlink:href="#maad510fbea" x="90" y="261.134427" style="stroke: #000000; stroke-width: 0.8"/>
      </g>
     </g>
     <g id="text_9">
      <!-- 0 -->
      <g transform="translate(76.6375 264.933646) scale(0.1 -0.1)">
       <use xlink:href="#DejaVuSans-30"/>
      </g>
     </g>
    </g>
    <g id="ytick_3">
     <g id="line2d_17">
      <path d="M 90 198.232775 
L 648 198.232775 
" clip-path="url(#pda91502adf)" style="fill: none; stroke: #b0b0b0; stroke-width: 0.8; stroke-linecap: square"/>
     </g>
     <g id="line2d_18">
      <g>
       <use xlink:href="#maad510fbea" x="90" y="198.232775" style="stroke: #000000; stroke-width: 0.8"/>
      </g>
     </g>
     <g id="text_10">
      <!-- 10 -->
      <g transform="translate(70.275 202.031994) scale(0.1 -0.1)">
       <use xlink:href="#DejaVuSans-31"/>
       <use xlink:href="#DejaVuSans-30" x="63.623047"/>
      </g>
     </g>
    </g>
    <g id="ytick_4">
     <g id="line2d_19">
      <path d="M 90 135.331122 
L 648 135.331122 
" clip-path="url(#pda91502adf)" style="fill: none; stroke: #b0b0b0; stroke-width: 0.8; stroke-linecap: square"/>
     </g>
     <g id="line2d_20">
      <g>
       <use xlink:href="#maad510fbea" x="90" y="135.331122" style="stroke: #000000; stroke-width: 0.8"/>
      </g>
     </g>
     <g id="text_11">
      <!-- 20 -->
      <g transform="translate(70.275 139.130341) scale(0.1 -0.1)">
       <use xlink:href="#DejaVuSans-32"/>
       <use xlink:href="#DejaVuSans-30" x="63.623047"/>
      </g>
     </g>
    </g>
    <g id="ytick_5">
     <g id="line2d_21">
      <path d="M 90 72.42947 
L 648 72.42947 
" clip-path="url(#pda91502adf)" style="fill: none; stroke: #b0b0b0; stroke-width: 0.8; stroke-linecap: square"/>
     </g>
     <g id="line2d_22">
      <g>
       <use xlink:href="#maad510fbea" x="90" y="72.42947" style="stroke: #000000; stroke-width: 0.8"/>
      </g>
     </g>
     <g id="text_12">
      <!-- 30 -->
      <g transform="translate(70.275 76.228689) scale(0.1 -0.1)">
       <defs>
        <path id="DejaVuSans-33" d="M 2597 2516 
Q 3050 2419 3304 2112 
Q 3559 1806 3559 1356 
Q 3559 666 3084 287 
Q 2609 -91 1734 -91 
Q 1441 -91 1130 -33 
Q 819 25 488 141 
L 488 750 
Q 750 597 1062 519 
Q 1375 441 1716 441 
Q 2309 441 2620 675 
Q 2931 909 2931 1356 
Q 2931 1769 2642 2001 
Q 2353 2234 1838 2234 
L 1294 2234 
L 1294 2753 
L 1863 2753 
Q 2328 2753 2575 2939 
Q 2822 3125 2822 3475 
Q 2822 3834 2567 4026 
Q 2313 4219 1838 4219 
Q 1578 4219 1281 4162 
Q 984 4106 628 3988 
L 628 4550 
Q 988 4650 1302 4700 
Q 1616 4750 1894 4750 
Q 2613 4750 3031 4423 
Q 3450 4097 3450 3541 
Q 3450 3153 3228 2886 
Q 3006 2619 2597 2516 
z
" transform="scale(0.015625)"/>
       </defs>
       <use xlink:href="#DejaVuSans-33"/>
       <use xlink:href="#DejaVuSans-30" x="63.623047"/>
      </g>
     </g>
    </g>
    <g id="text_13">
     <!-- Percent Change (%) -->
     <g transform="translate(55.815625 267.942031) rotate(-90) scale(0.1 -0.1)">
      <defs>
       <path id="DejaVuSans-50" d="M 1259 4147 
L 1259 2394 
L 2053 2394 
Q 2494 2394 2734 2622 
Q 2975 2850 2975 3272 
Q 2975 3691 2734 3919 
Q 2494 4147 2053 4147 
L 1259 4147 
z
M 628 4666 
L 2053 4666 
Q 2838 4666 3239 4311 
Q 3641 3956 3641 3272 
Q 3641 2581 3239 2228 
Q 2838 1875 2053 1875 
L 1259 1875 
L 1259 0 
L 628 0 
L 628 4666 
z
" transform="scale(0.015625)"/>
       <path id="DejaVuSans-63" d="M 3122 3366 
L 3122 2828 
Q 2878 2963 2633 3030 
Q 2388 3097 2138 3097 
Q 1578 3097 1268 2742 
Q 959 2388 959 1747 
Q 959 1106 1268 751 
Q 1578 397 2138 397 
Q 2388 397 2633 464 
Q 2878 531 3122 666 
L 3122 134 
Q 2881 22 2623 -34 
Q 2366 -91 2075 -91 
Q 1284 -91 818 406 
Q 353 903 353 1747 
Q 353 2603 823 3093 
Q 1294 3584 2113 3584 
Q 2378 3584 2631 3529 
Q 2884 3475 3122 3366 
z
" transform="scale(0.015625)"/>
       <path id="DejaVuSans-6e" d="M 3513 2113 
L 3513 0 
L 2938 0 
L 2938 2094 
Q 2938 2591 2744 2837 
Q 2550 3084 2163 3084 
Q 1697 3084 1428 2787 
Q 1159 2491 1159 1978 
L 1159 0 
L 581 0 
L 581 3500 
L 1159 3500 
L 1159 2956 
Q 1366 3272 1645 3428 
Q 1925 3584 2291 3584 
Q 2894 3584 3203 3211 
Q 3513 2838 3513 2113 
z
" transform="scale(0.015625)"/>
       <path id="DejaVuSans-74" d="M 1172 4494 
L 1172 3500 
L 2356 3500 
L 2356 3053 
L 1172 3053 
L 1172 1153 
Q 1172 725 1289 603 
Q 1406 481 1766 481 
L 2356 481 
L 2356 0 
L 1766 0 
Q 1100 0 847 248 
Q 594 497 594 1153 
L 594 3053 
L 172 3053 
L 172 3500 
L 594 3500 
L 594 4494 
L 1172 4494 
z
" transform="scale(0.015625)"/>
       <path id="DejaVuSans-20" transform="scale(0.015625)"/>
       <path id="DejaVuSans-43" d="M 4122 4306 
L 4122 3641 
Q 3803 3938 3442 4084 
Q 3081 4231 2675 4231 
Q 1875 4231 1450 3742 
Q 1025 3253 1025 2328 
Q 1025 1406 1450 917 
Q 1875 428 2675 428 
Q 3081 428 3442 575 
Q 3803 722 4122 1019 
L 4122 359 
Q 3791 134 3420 21 
Q 3050 -91 2638 -91 
Q 1578 -91 968 557 
Q 359 1206 359 2328 
Q 359 3453 968 4101 
Q 1578 4750 2638 4750 
Q 3056 4750 3426 4639 
Q 3797 4528 4122 4306 
z
" transform="scale(0.015625)"/>
       <path id="DejaVuSans-68" d="M 3513 2113 
L 3513 0 
L 2938 0 
L 2938 2094 
Q 2938 2591 2744 2837 
Q 2550 3084 2163 3084 
Q 1697 3084 1428 2787 
Q 1159 2491 1159 1978 
L 1159 0 
L 581 0 
L 581 4863 
L 1159 4863 
L 1159 2956 
Q 1366 3272 1645 3428 
Q 1925 3584 2291 3584 
Q 2894 3584 3203 3211 
Q 3513 2838 3513 2113 
z
" transform="scale(0.015625)"/>
       <path id="DejaVuSans-67" d="M 2906 1791 
Q 2906 2416 2648 2759 
Q 2391 3103 1925 3103 
Q 1463 3103 1205 2759 
Q 947 2416 947 1791 
Q 947 1169 1205 825 
Q 1463 481 1925 481 
Q 2391 481 2648 825 
Q 2906 1169 2906 1791 
z
M 3481 434 
Q 3481 -459 3084 -895 
Q 2688 -1331 1869 -1331 
Q 1566 -1331 1297 -1286 
Q 1028 -1241 775 -1147 
L 775 -588 
Q 1028 -725 1275 -790 
Q 1522 -856 1778 -856 
Q 2344 -856 2625 -561 
Q 2906 -266 2906 331 
L 2906 616 
Q 2728 306 2450 153 
Q 2172 0 1784 0 
Q 1141 0 747 490 
Q 353 981 353 1791 
Q 353 2603 747 3093 
Q 1141 3584 1784 3584 
Q 2172 3584 2450 3431 
Q 2728 3278 2906 2969 
L 2906 3500 
L 3481 3500 
L 3481 434 
z
" transform="scale(0.015625)"/>
       <path id="DejaVuSans-28" d="M 1984 4856 
Q 1566 4138 1362 3434 
Q 1159 2731 1159 2009 
Q 1159 1288 1364 580 
Q 1569 -128 1984 -844 
L 1484 -844 
Q 1016 -109 783 600 
Q 550 1309 550 2009 
Q 550 2706 781 3412 
Q 1013 4119 1484 4856 
L 1984 4856 
z
" transform="scale(0.015625)"/>
       <path id="DejaVuSans-25" d="M 4653 2053 
Q 4381 2053 4226 1822 
Q 4072 1591 4072 1178 
Q 4072 772 4226 539 
Q 4381 306 4653 306 
Q 4919 306 5073 539 
Q 5228 772 5228 1178 
Q 5228 1588 5073 1820 
Q 4919 2053 4653 2053 
z
M 4653 2450 
Q 5147 2450 5437 2106 
Q 5728 1763 5728 1178 
Q 5728 594 5436 251 
Q 5144 -91 4653 -91 
Q 4153 -91 3862 251 
Q 3572 594 3572 1178 
Q 3572 1766 3864 2108 
Q 4156 2450 4653 2450 
z
M 1428 4353 
Q 1159 4353 1004 4120 
Q 850 3888 850 3481 
Q 850 3069 1003 2837 
Q 1156 2606 1428 2606 
Q 1700 2606 1854 2837 
Q 2009 3069 2009 3481 
Q 2009 3884 1853 4118 
Q 1697 4353 1428 4353 
z
M 4250 4750 
L 4750 4750 
L 1831 -91 
L 1331 -91 
L 4250 4750 
z
M 1428 4750 
Q 1922 4750 2215 4408 
Q 2509 4066 2509 3481 
Q 2509 2891 2217 2550 
Q 1925 2209 1428 2209 
Q 931 2209 642 2551 
Q 353 2894 353 3481 
Q 353 4063 643 4406 
Q 934 4750 1428 4750 
z
" transform="scale(0.015625)"/>
       <path id="DejaVuSans-29" d="M 513 4856 
L 1013 4856 
Q 1481 4119 1714 3412 
Q 1947 2706 1947 2009 
Q 1947 1309 1714 600 
Q 1481 -109 1013 -844 
L 513 -844 
Q 928 -128 1133 580 
Q 1338 1288 1338 2009 
Q 1338 2731 1133 3434 
Q 928 4138 513 4856 
z
" transform="scale(0.015625)"/>
      </defs>
      <use xlink:href="#DejaVuSans-50"/>
      <use xlink:href="#DejaVuSans-65" x="56.677734"/>
      <use xlink:href="#DejaVuSans-72" x="118.201172"/>
      <use xlink:href="#DejaVuSans-63" x="157.064453"/>
      <use xlink:href="#DejaVuSans-65" x="212.044922"/>
      <use xlink:href="#DejaVuSans-6e" x="273.568359"/>
      <use xlink:href="#DejaVuSans-74" x="336.947266"/>
      <use xlink:href="#DejaVuSans-20" x="376.15625"/>
      <use xlink:href="#DejaVuSans-43" x="407.943359"/>
      <use xlink:href="#DejaVuSans-68" x="477.767578"/>
      <use xlink:href="#DejaVuSans-61" x="541.146484"/>
      <use xlink:href="#DejaVuSans-6e" x="602.425781"/>
      <use xlink:href="#DejaVuSans-67" x="665.804688"/>
      <use xlink:href="#DejaVuSans-65" x="729.28125"/>
      <use xlink:href="#DejaVuSans-20" x="790.804688"/>
      <use xlink:href="#DejaVuSans-28" x="822.591797"/>
      <use xlink:href="#DejaVuSans-25" x="861.605469"/>
      <use xlink:href="#DejaVuSans-29" x="956.625"/>
     </g>
    </g>
   </g>
   <g id="line2d_23">
    <path d="M 115.363636 323.039136 
L 124.109718 225.983835 
L 132.855799 369.36 
L 141.601881 108.067447 
L 150.347962 281.597275 
L 159.094044 313.857315 
L 167.840125 282.384639 
L 176.586207 307.773576 
L 185.332288 230.654662 
L 194.07837 282.780262 
L 202.824451 258.920632 
L 211.570533 166.472429 
L 220.316614 278.147222 
L 229.062696 239.245721 
L 237.808777 162.402049 
L 246.554859 265.293372 
L 255.30094 242.689824 
L 264.047022 258.392883 
L 272.793103 281.991586 
L 281.539185 330.711268 
L 290.285266 242.485197 
L 299.031348 274.288492 
L 307.777429 259.747414 
L 316.523511 197.706431 
L 325.269592 213.9807 
L 334.015674 134.637331 
L 342.761755 200.169375 
L 351.507837 342.000989 
L 360.253918 188.551024 
L 369 71.494897 
L 377.746082 289.243853 
L 386.492163 280.150837 
L 395.238245 70.42833 
L 403.984326 260.952972 
L 412.730408 174.778156 
L 421.476489 217.381022 
L 430.222571 355.656234 
L 438.968652 66.96 
L 447.714734 346.697438 
L 456.460815 71.14661 
L 465.206897 286.132586 
L 473.952978 199.939681 
L 482.69906 356.508868 
L 491.445141 202.863224 
L 500.191223 159.765008 
L 508.937304 144.635987 
L 517.683386 204.149183 
L 526.429467 126.867788 
L 535.175549 258.728387 
L 543.92163 278.273819 
L 552.667712 269.545857 
L 561.413793 210.44781 
L 570.159875 358.349329 
L 578.905956 210.998728 
L 587.652038 358.913994 
L 596.398119 287.593656 
L 605.144201 179.281689 
L 613.890282 328.940195 
L 622.636364 292.850305 
" clip-path="url(#pda91502adf)" style="fill: none; stroke: #1f77b4; stroke-width: 1.5; stroke-linecap: square"/>
    <defs>
     <path id="m5f4e404537" d="M 0 3 
C 0.795609 3 1.55874 2.683901 2.12132 2.12132 
C 2.683901 1.55874 3 0.795609 3 0 
C 3 -0.795609 2.683901 -1.55874 2.12132 -2.12132 
C 1.55874 -2.683901 0.795609 -3 0 -3 
C -0.795609 -3 -1.55874 -2.683901 -2.12132 -2.12132 
C -2.683901 -1.55874 -3 -0.795609 -3 0 
C -3 0.795609 -2.683901 1.55874 -2.12132 2.12132 
C -1.55874 2.683901 -0.795609 3 0 3 
z
" style="stroke: #1f77b4"/>
    </defs>
    <g clip-path="url(#pda91502adf)">
     <use xlink:href="#m5f4e404537" x="115.363636" y="323.039136" style="fill: #1f77b4; stroke: #1f77b4"/>
     <use xlink:href="#m5f4e404537" x="124.109718" y="225.983835" style="fill: #1f77b4; stroke: #1f77b4"/>
     <use xlink:href="#m5f4e404537" x="132.855799" y="369.36" style="fill: #1f77b4; stroke: #1f77b4"/>
     <use xlink:href="#m5f4e404537" x="141.601881" y="108.067447" style="fill: #1f77b4; stroke: #1f77b4"/>
     <use xlink:href="#m5f4e404537" x="150.347962" y="281.597275" style="fill: #1f77b4; stroke: #1f77b4"/>
     <use xlink:href="#m5f4e404537" x="159.094044" y="313.857315" style="fill: #1f77b4; stroke: #1f77b4"/>
     <use xlink:href="#m5f4e404537" x="167.840125" y="282.384639" style="fill: #1f77b4; stroke: #1f77b4"/>
     <use xlink:href="#m5f4e404537" x="176.586207" y="307.773576" style="fill: #1f77b4; stroke: #1f77b4"/>
     <use xlink:href="#m5f4e404537" x="185.332288" y="230.654662" style="fill: #1f77b4; stroke: #1f77b4"/>
     <use xlink:href="#m5f4e404537" x="194.07837" y="282.780262" style="fill: #1f77b4; stroke: #1f77b4"/>
     <use xlink:href="#m5f4e404537" x="202.824451" y="258.920632" style="fill: #1f77b4; stroke: #1f77b4"/>
     <use xlink:href="#m5f4e404537" x="211.570533" y="166.472429" style="fill: #1f77b4; stroke: #1f77b4"/>
     <use xlink:href="#m5f4e404537" x="220.316614" y="278.147222" style="fill: #1f77b4; stroke: #1f77b4"/>
     <use xlink:href="#m5f4e404537" x="229.062696" y="239.245721" style="fill: #1f77b4; stroke: #1f77b4"/>
     <use xlink:href="#m5f4e404537" x="237.808777" y="162.402049" style="fill: #1f77b4; stroke: #1f77b4"/>
     <use xlink:href="#m5f4e404537" x="246.554859" y="265.293372" style="fill: #1f77b4; stroke: #1f77b4"/>
     <use xlink:href="#m5f4e404537" x="255.30094" y="242.689824" style="fill: #1f77b4; stroke: #1f77b4"/>
     <use xlink:href="#m5f4e404537" x="264.047022" y="258.392883" style="fill: #1f77b4; stroke: #1f77b4"/>
     <use xlink:href="#m5f4e404537" x="272.793103" y="281.991586" style="fill: #1f77b4; stroke: #1f77b4"/>
     <use xlink:href="#m5f4e404537" x="281.539185" y="330.711268" style="fill: #1f77b4; stroke: #1f77b4"/>
     <use xlink:href="#m5f4e404537" x="290.285266" y="242.485197" style="fill: #1f77b4; stroke: #1f77b4"/>
     <use xlink:href="#m5f4e404537" x="299.031348" y="274.288492" style="fill: #1f77b4; stroke: #1f77b4"/>
     <use xlink:href="#m5f4e404537" x="307.777429" y="259.747414" style="fill: #1f77b4; stroke: #1f77b4"/>
     <use xlink:href="#m5f4e404537" x="316.523511" y="197.706431" style="fill: #1f77b4; stroke: #1f77b4"/>
     <use xlink:href="#m5f4e404537" x="325.269592" y="213.9807" style="fill: #1f77b4; stroke: #1f77b4"/>
     <use xlink:href="#m5f4e404537" x="334.015674" y="134.637331" style="fill: #1f77b4; stroke: #1f77b4"/>
     <use xlink:href="#m5f4e404537" x="342.761755" y="200.169375" style="fill: #1f77b4; stroke: #1f77b4"/>
     <use xlink:href="#m5f4e404537" x="351.507837" y="342.000989" style="fill: #1f77b4; stroke: #1f77b4"/>
     <use xlink:href="#m5f4e404537" x="360.253918" y="188.551024" style="fill: #1f77b4; stroke: #1f77b4"/>
     <use xlink:href="#m5f4e404537" x="369" y="71.494897" style="fill: #1f77b4; stroke: #1f77b4"/>
     <use xlink:href="#m5f4e404537" x="377.746082" y="289.243853" style="fill: #1f77b4; stroke: #1f77b4"/>
     <use xlink:href="#m5f4e404537" x="386.492163" y="280.150837" style="fill: #1f77b4; stroke: #1f77b4"/>
     <use xlink:href="#m5f4e404537" x="395.238245" y="70.42833" style="fill: #1f77b4; stroke: #1f77b4"/>
     <use xlink:href="#m5f4e404537" x="403.984326" y="260.952972" style="fill: #1f77b4; stroke: #1f77b4"/>
     <use xlink:href="#m5f4e404537" x="412.730408" y="174.778156" style="fill: #1f77b4; stroke: #1f77b4"/>
     <use xlink:href="#m5f4e404537" x="421.476489" y="217.381022" style="fill: #1f77b4; stroke: #1f77b4"/>
     <use xlink:href="#m5f4e404537" x="430.222571" y="355.656234" style="fill: #1f77b4; stroke: #1f77b4"/>
     <use xlink:href="#m5f4e404537" x="438.968652" y="66.96" style="fill: #1f77b4; stroke: #1f77b4"/>
     <use xlink:href="#m5f4e404537" x="447.714734" y="346.697438" style="fill: #1f77b4; stroke: #1f77b4"/>
     <use xlink:href="#m5f4e404537" x="456.460815" y="71.14661" style="fill: #1f77b4; stroke: #1f77b4"/>
     <use xlink:href="#m5f4e404537" x="465.206897" y="286.132586" style="fill: #1f77b4; stroke: #1f77b4"/>
     <use xlink:href="#m5f4e404537" x="473.952978" y="199.939681" style="fill: #1f77b4; stroke: #1f77b4"/>
     <use xlink:href="#m5f4e404537" x="482.69906" y="356.508868" style="fill: #1f77b4; stroke: #1f77b4"/>
     <use xlink:href="#m5f4e404537" x="491.445141" y="202.863224" style="fill: #1f77b4; stroke: #1f77b4"/>
     <use xlink:href="#m5f4e404537" x="500.191223" y="159.765008" style="fill: #1f77b4; stroke: #1f77b4"/>
     <use xlink:href="#m5f4e404537" x="508.937304" y="144.635987" style="fill: #1f77b4; stroke: #1f77b4"/>
     <use xlink:href="#m5f4e404537" x="517.683386" y="204.149183" style="fill: #1f77b4; stroke: #1f77b4"/>
     <use xlink:href="#m5f4e404537" x="526.429467" y="126.867788" style="fill: #1f77b4; stroke: #1f77b4"/>
     <use xlink:href="#m5f4e404537" x="535.175549" y="258.728387" style="fill: #1f77b4; stroke: #1f77b4"/>
     <use xlink:href="#m5f4e404537" x="543.92163" y="278.273819" style="fill: #1f77b4; stroke: #1f77b4"/>
     <use xlink:href="#m5f4e404537" x="552.667712" y="269.545857" style="fill: #1f77b4; stroke: #1f77b4"/>
     <use xlink:href="#m5f4e404537" x="561.413793" y="210.44781" style="fill: #1f77b4; stroke: #1f77b4"/>
     <use xlink:href="#m5f4e404537" x="570.159875" y="358.349329" style="fill: #1f77b4; stroke: #1f77b4"/>
     <use xlink:href="#m5f4e404537" x="578.905956" y="210.998728" style="fill: #1f77b4; stroke: #1f77b4"/>
     <use xlink:href="#m5f4e404537" x="587.652038" y="358.913994" style="fill: #1f77b4; stroke: #1f77b4"/>
     <use xlink:href="#m5f4e404537" x="596.398119" y="287.593656" style="fill: #1f77b4; stroke: #1f77b4"/>
     <use xlink:href="#m5f4e404537" x="605.144201" y="179.281689" style="fill: #1f77b4; stroke: #1f77b4"/>
     <use xlink:href="#m5f4e404537" x="613.890282" y="328.940195" style="fill: #1f77b4; stroke: #1f77b4"/>
     <use xlink:href="#m5f4e404537" x="622.636364" y="292.850305" style="fill: #1f77b4; stroke: #1f77b4"/>
    </g>
   </g>
   <g id="patch_3">
    <path d="M 90 384.48 
L 90 51.84 
" style="fill: none; stroke: #000000; stroke-width: 0.8; stroke-linejoin: miter; stroke-linecap: square"/>
   </g>
   <g id="patch_4">
    <path d="M 648 384.48 
L 648 51.84 
" style="fill: none; stroke: #000000; stroke-width: 0.8; stroke-linejoin: miter; stroke-linecap: square"/>
   </g>
   <g id="patch_5">
    <path d="M 90 384.48 
L 648 384.48 
" style="fill: none; stroke: #000000; stroke-width: 0.8; stroke-linejoin: miter; stroke-linecap: square"/>
   </g>
   <g id="patch_6">
    <path d="M 90 51.84 
L 648 51.84 
" style="fill: none; stroke: #000000; stroke-width: 0.8; stroke-linejoin: miter; stroke-linecap: square"/>
   </g>
   <g id="text_14">
    <!-- Statewide Year-Over-Year Change in Total Lobster Haul by Weight -->
    <g transform="translate(174.19875 45.84) scale(0.12 -0.12)">
     <defs>
      <path id="DejaVuSans-53" d="M 3425 4513 
L 3425 3897 
Q 3066 4069 2747 4153 
Q 2428 4238 2131 4238 
Q 1616 4238 1336 4038 
Q 1056 3838 1056 3469 
Q 1056 3159 1242 3001 
Q 1428 2844 1947 2747 
L 2328 2669 
Q 3034 2534 3370 2195 
Q 3706 1856 3706 1288 
Q 3706 609 3251 259 
Q 2797 -91 1919 -91 
Q 1588 -91 1214 -16 
Q 841 59 441 206 
L 441 856 
Q 825 641 1194 531 
Q 1563 422 1919 422 
Q 2459 422 2753 634 
Q 3047 847 3047 1241 
Q 3047 1584 2836 1778 
Q 2625 1972 2144 2069 
L 1759 2144 
Q 1053 2284 737 2584 
Q 422 2884 422 3419 
Q 422 4038 858 4394 
Q 1294 4750 2059 4750 
Q 2388 4750 2728 4690 
Q 3069 4631 3425 4513 
z
" transform="scale(0.015625)"/>
      <path id="DejaVuSans-77" d="M 269 3500 
L 844 3500 
L 1563 769 
L 2278 3500 
L 2956 3500 
L 3675 769 
L 4391 3500 
L 4966 3500 
L 4050 0 
L 3372 0 
L 2619 2869 
L 1863 0 
L 1184 0 
L 269 3500 
z
" transform="scale(0.015625)"/>
      <path id="DejaVuSans-69" d="M 603 3500 
L 1178 3500 
L 1178 0 
L 603 0 
L 603 3500 
z
M 603 4863 
L 1178 4863 
L 1178 4134 
L 603 4134 
L 603 4863 
z
" transform="scale(0.015625)"/>
      <path id="DejaVuSans-64" d="M 2906 2969 
L 2906 4863 
L 3481 4863 
L 3481 0 
L 2906 0 
L 2906 525 
Q 2725 213 2448 61 
Q 2172 -91 1784 -91 
Q 1150 -91 751 415 
Q 353 922 353 1747 
Q 353 2572 751 3078 
Q 1150 3584 1784 3584 
Q 2172 3584 2448 3432 
Q 2725 3281 2906 2969 
z
M 947 1747 
Q 947 1113 1208 752 
Q 1469 391 1925 391 
Q 2381 391 2643 752 
Q 2906 1113 2906 1747 
Q 2906 2381 2643 2742 
Q 2381 3103 1925 3103 
Q 1469 3103 1208 2742 
Q 947 2381 947 1747 
z
" transform="scale(0.015625)"/>
      <path id="DejaVuSans-2d" d="M 313 2009 
L 1997 2009 
L 1997 1497 
L 313 1497 
L 313 2009 
z
" transform="scale(0.015625)"/>
      <path id="DejaVuSans-4f" d="M 2522 4238 
Q 1834 4238 1429 3725 
Q 1025 3213 1025 2328 
Q 1025 1447 1429 934 
Q 1834 422 2522 422 
Q 3209 422 3611 934 
Q 4013 1447 4013 2328 
Q 4013 3213 3611 3725 
Q 3209 4238 2522 4238 
z
M 2522 4750 
Q 3503 4750 4090 4092 
Q 4678 3434 4678 2328 
Q 4678 1225 4090 567 
Q 3503 -91 2522 -91 
Q 1538 -91 948 565 
Q 359 1222 359 2328 
Q 359 3434 948 4092 
Q 1538 4750 2522 4750 
z
" transform="scale(0.015625)"/>
      <path id="DejaVuSans-76" d="M 191 3500 
L 800 3500 
L 1894 563 
L 2988 3500 
L 3597 3500 
L 2284 0 
L 1503 0 
L 191 3500 
z
" transform="scale(0.015625)"/>
      <path id="DejaVuSans-54" d="M -19 4666 
L 3928 4666 
L 3928 4134 
L 2272 4134 
L 2272 0 
L 1638 0 
L 1638 4134 
L -19 4134 
L -19 4666 
z
" transform="scale(0.015625)"/>
      <path id="DejaVuSans-6f" d="M 1959 3097 
Q 1497 3097 1228 2736 
Q 959 2375 959 1747 
Q 959 1119 1226 758 
Q 1494 397 1959 397 
Q 2419 397 2687 759 
Q 2956 1122 2956 1747 
Q 2956 2369 2687 2733 
Q 2419 3097 1959 3097 
z
M 1959 3584 
Q 2709 3584 3137 3096 
Q 3566 2609 3566 1747 
Q 3566 888 3137 398 
Q 2709 -91 1959 -91 
Q 1206 -91 779 398 
Q 353 888 353 1747 
Q 353 2609 779 3096 
Q 1206 3584 1959 3584 
z
" transform="scale(0.015625)"/>
      <path id="DejaVuSans-6c" d="M 603 4863 
L 1178 4863 
L 1178 0 
L 603 0 
L 603 4863 
z
" transform="scale(0.015625)"/>
      <path id="DejaVuSans-4c" d="M 628 4666 
L 1259 4666 
L 1259 531 
L 3531 531 
L 3531 0 
L 628 0 
L 628 4666 
z
" transform="scale(0.015625)"/>
      <path id="DejaVuSans-62" d="M 3116 1747 
Q 3116 2381 2855 2742 
Q 2594 3103 2138 3103 
Q 1681 3103 1420 2742 
Q 1159 2381 1159 1747 
Q 1159 1113 1420 752 
Q 1681 391 2138 391 
Q 2594 391 2855 752 
Q 3116 1113 3116 1747 
z
M 1159 2969 
Q 1341 3281 1617 3432 
Q 1894 3584 2278 3584 
Q 2916 3584 3314 3078 
Q 3713 2572 3713 1747 
Q 3713 922 3314 415 
Q 2916 -91 2278 -91 
Q 1894 -91 1617 61 
Q 1341 213 1159 525 
L 1159 0 
L 581 0 
L 581 4863 
L 1159 4863 
L 1159 2969 
z
" transform="scale(0.015625)"/>
      <path id="DejaVuSans-73" d="M 2834 3397 
L 2834 2853 
Q 2591 2978 2328 3040 
Q 2066 3103 1784 3103 
Q 1356 3103 1142 2972 
Q 928 2841 928 2578 
Q 928 2378 1081 2264 
Q 1234 2150 1697 2047 
L 1894 2003 
Q 2506 1872 2764 1633 
Q 3022 1394 3022 966 
Q 3022 478 2636 193 
Q 2250 -91 1575 -91 
Q 1294 -91 989 -36 
Q 684 19 347 128 
L 347 722 
Q 666 556 975 473 
Q 1284 391 1588 391 
Q 1994 391 2212 530 
Q 2431 669 2431 922 
Q 2431 1156 2273 1281 
Q 2116 1406 1581 1522 
L 1381 1569 
Q 847 1681 609 1914 
Q 372 2147 372 2553 
Q 372 3047 722 3315 
Q 1072 3584 1716 3584 
Q 2034 3584 2315 3537 
Q 2597 3491 2834 3397 
z
" transform="scale(0.015625)"/>
      <path id="DejaVuSans-48" d="M 628 4666 
L 1259 4666 
L 1259 2753 
L 3553 2753 
L 3553 4666 
L 4184 4666 
L 4184 0 
L 3553 0 
L 3553 2222 
L 1259 2222 
L 1259 0 
L 628 0 
L 628 4666 
z
" transform="scale(0.015625)"/>
      <path id="DejaVuSans-75" d="M 544 1381 
L 544 3500 
L 1119 3500 
L 1119 1403 
Q 1119 906 1312 657 
Q 1506 409 1894 409 
Q 2359 409 2629 706 
Q 2900 1003 2900 1516 
L 2900 3500 
L 3475 3500 
L 3475 0 
L 2900 0 
L 2900 538 
Q 2691 219 2414 64 
Q 2138 -91 1772 -91 
Q 1169 -91 856 284 
Q 544 659 544 1381 
z
M 1991 3584 
L 1991 3584 
z
" transform="scale(0.015625)"/>
      <path id="DejaVuSans-79" d="M 2059 -325 
Q 1816 -950 1584 -1140 
Q 1353 -1331 966 -1331 
L 506 -1331 
L 506 -850 
L 844 -850 
Q 1081 -850 1212 -737 
Q 1344 -625 1503 -206 
L 1606 56 
L 191 3500 
L 800 3500 
L 1894 763 
L 2988 3500 
L 3597 3500 
L 2059 -325 
z
" transform="scale(0.015625)"/>
      <path id="DejaVuSans-57" d="M 213 4666 
L 850 4666 
L 1831 722 
L 2809 4666 
L 3519 4666 
L 4500 722 
L 5478 4666 
L 6119 4666 
L 4947 0 
L 4153 0 
L 3169 4050 
L 2175 0 
L 1381 0 
L 213 4666 
z
" transform="scale(0.015625)"/>
     </defs>
     <use xlink:href="#DejaVuSans-53"/>
     <use xlink:href="#DejaVuSans-74" x="63.476562"/>
     <use xlink:href="#DejaVuSans-61" x="102.685547"/>
     <use xlink:href="#DejaVuSans-74" x="163.964844"/>
     <use xlink:href="#DejaVuSans-65" x="203.173828"/>
     <use xlink:href="#DejaVuSans-77" x="264.697266"/>
     <use xlink:href="#DejaVuSans-69" x="346.484375"/>
     <use xlink:href="#DejaVuSans-64" x="374.267578"/>
     <use xlink:href="#DejaVuSans-65" x="437.744141"/>
     <use xlink:href="#DejaVuSans-20" x="499.267578"/>
     <use xlink:href="#DejaVuSans-59" x="531.054688"/>
     <use xlink:href="#DejaVuSans-65" x="578.888672"/>
     <use xlink:href="#DejaVuSans-61" x="640.412109"/>
     <use xlink:href="#DejaVuSans-72" x="701.691406"/>
     <use xlink:href="#DejaVuSans-2d" x="736.429688"/>
     <use xlink:href="#DejaVuSans-4f" x="775.263672"/>
     <use xlink:href="#DejaVuSans-76" x="853.974609"/>
     <use xlink:href="#DejaVuSans-65" x="913.154297"/>
     <use xlink:href="#DejaVuSans-72" x="974.677734"/>
     <use xlink:href="#DejaVuSans-2d" x="1009.416016"/>
     <use xlink:href="#DejaVuSans-59" x="1033.625"/>
     <use xlink:href="#DejaVuSans-65" x="1081.458984"/>
     <use xlink:href="#DejaVuSans-61" x="1142.982422"/>
     <use xlink:href="#DejaVuSans-72" x="1204.261719"/>
     <use xlink:href="#DejaVuSans-20" x="1245.375"/>
     <use xlink:href="#DejaVuSans-43" x="1277.162109"/>
     <use xlink:href="#DejaVuSans-68" x="1346.986328"/>
     <use xlink:href="#DejaVuSans-61" x="1410.365234"/>
     <use xlink:href="#DejaVuSans-6e" x="1471.644531"/>
     <use xlink:href="#DejaVuSans-67" x="1535.023438"/>
     <use xlink:href="#DejaVuSans-65" x="1598.5"/>
     <use xlink:href="#DejaVuSans-20" x="1660.023438"/>
     <use xlink:href="#DejaVuSans-69" x="1691.810547"/>
     <use xlink:href="#DejaVuSans-6e" x="1719.59375"/>
     <use xlink:href="#DejaVuSans-20" x="1782.972656"/>
     <use xlink:href="#DejaVuSans-54" x="1814.759766"/>
     <use xlink:href="#DejaVuSans-6f" x="1858.84375"/>
     <use xlink:href="#DejaVuSans-74" x="1920.025391"/>
     <use xlink:href="#DejaVuSans-61" x="1959.234375"/>
     <use xlink:href="#DejaVuSans-6c" x="2020.513672"/>
     <use xlink:href="#DejaVuSans-20" x="2048.296875"/>
     <use xlink:href="#DejaVuSans-4c" x="2080.083984"/>
     <use xlink:href="#DejaVuSans-6f" x="2134.046875"/>
     <use xlink:href="#DejaVuSans-62" x="2195.228516"/>
     <use xlink:href="#DejaVuSans-73" x="2258.705078"/>
     <use xlink:href="#DejaVuSans-74" x="2310.804688"/>
     <use xlink:href="#DejaVuSans-65" x="2350.013672"/>
     <use xlink:href="#DejaVuSans-72" x="2411.537109"/>
     <use xlink:href="#DejaVuSans-20" x="2452.650391"/>
     <use xlink:href="#DejaVuSans-48" x="2484.4375"/>
     <use xlink:href="#DejaVuSans-61" x="2559.632812"/>
     <use xlink:href="#DejaVuSans-75" x="2620.912109"/>
     <use xlink:href="#DejaVuSans-6c" x="2684.291016"/>
     <use xlink:href="#DejaVuSans-20" x="2712.074219"/>
     <use xlink:href="#DejaVuSans-62" x="2743.861328"/>
     <use xlink:href="#DejaVuSans-79" x="2807.337891"/>
     <use xlink:href="#DejaVuSans-20" x="2866.517578"/>
     <use xlink:href="#DejaVuSans-57" x="2898.304688"/>
     <use xlink:href="#DejaVuSans-65" x="2991.306641"/>
     <use xlink:href="#DejaVuSans-69" x="3052.830078"/>
     <use xlink:href="#DejaVuSans-67" x="3080.613281"/>
     <use xlink:href="#DejaVuSans-68" x="3144.089844"/>
     <use xlink:href="#DejaVuSans-74" x="3207.46875"/>
    </g>
   </g>
   <g id="legend_1">
    <g id="patch_7">
     <path d="M 532.310938 74.518125 
L 641 74.518125 
Q 643 74.518125 643 72.518125 
L 643 58.84 
Q 643 56.84 641 56.84 
L 532.310938 56.84 
Q 530.310938 56.84 530.310938 58.84 
L 530.310938 72.518125 
Q 530.310938 74.518125 532.310938 74.518125 
z
" style="fill: #ffffff; opacity: 0.8; stroke: #cccccc; stroke-linejoin: miter"/>
    </g>
    <g id="line2d_24">
     <path d="M 534.310938 64.938438 
L 544.310938 64.938438 
L 554.310938 64.938438 
" style="fill: none; stroke: #1f77b4; stroke-width: 1.5; stroke-linecap: square"/>
     <g>
      <use xlink:href="#m5f4e404537" x="544.310938" y="64.938438" style="fill: #1f77b4; stroke: #1f77b4"/>
     </g>
    </g>
    <g id="text_15">
     <!-- Pounds YoY (%) -->
     <g transform="translate(562.310938 68.438438) scale(0.1 -0.1)">
      <use xlink:href="#DejaVuSans-50"/>
      <use xlink:href="#DejaVuSans-6f" x="56.677734"/>
      <use xlink:href="#DejaVuSans-75" x="117.859375"/>
      <use xlink:href="#DejaVuSans-6e" x="181.238281"/>
      <use xlink:href="#DejaVuSans-64" x="244.617188"/>
      <use xlink:href="#DejaVuSans-73" x="308.09375"/>
      <use xlink:href="#DejaVuSans-20" x="360.193359"/>
      <use xlink:href="#DejaVuSans-59" x="391.980469"/>
      <use xlink:href="#DejaVuSans-6f" x="439.814453"/>
      <use xlink:href="#DejaVuSans-59" x="500.996094"/>
      <use xlink:href="#DejaVuSans-20" x="562.080078"/>
      <use xlink:href="#DejaVuSans-28" x="593.867188"/>
      <use xlink:href="#DejaVuSans-25" x="632.880859"/>
      <use xlink:href="#DejaVuSans-29" x="727.900391"/>
     </g>
    </g>
   </g>
  </g>
 </g>
 <defs>
  <clipPath id="pda91502adf">
   <rect x="90" y="51.84" width="558" height="332.64"/>
  </clipPath>
 </defs>
</svg>
