<?xml version="1.0" encoding="utf-8" standalone="no"?>
<!DOCTYPE svg PUBLIC "-//W3C//DTD SVG 1.1//EN"
  "http://www.w3.org/Graphics/SVG/1.1/DTD/svg11.dtd">
<svg xmlns:xlink="http://www.w3.org/1999/xlink" width="864pt" height="576pt" viewBox="0 0 864 576" xmlns="http://www.w3.org/2000/svg" version="1.1">
 <metadata>
  <rdf:RDF xmlns:dc="http://purl.org/dc/elements/1.1/" xmlns:cc="http://creativecommons.org/ns#" xmlns:rdf="http://www.w3.org/1999/02/22-rdf-syntax-ns#">
   <cc:Work>
    <dc:type rdf:resource="http://purl.org/dc/dcmitype/StillImage"/>
    <dc:date>2025-07-01T10:04:09.478959</dc:date>
    <dc:format>image/svg+xml</dc:format>
    <dc:creator>
     <cc:Agent>
      <dc:title>Matplotlib v3.9.3, https://matplotlib.org/</dc:title>
     </cc:Agent>
    </dc:creator>
   </cc:Work>
  </rdf:RDF>
 </metadata>
 <defs>
  <style type="text/css">*{stroke-linejoin: round; stroke-linecap: butt}</style>
 </defs>
 <g id="figure_1">
  <g id="patch_1">
   <path d="M 0 576 
L 864 576 
L 864 0 
L 0 0 
z
" style="fill: #ffffff"/>
  </g>
  <g id="axes_1">
   <g id="patch_2">
    <path d="M 50.87 534.04 
L 853.2 534.04 
L 853.2 26.88 
L 50.87 26.88 
z
" style="fill: #ffffff"/>
   </g>
   <g id="matplotlib.axis_1">
    <g id="xtick_1">
     <g id="line2d_1">
      <path d="M 161.514892 534.04 
L 161.514892 26.88 
" clip-path="url(#p041ebfe070)" style="fill: none; stroke: #b0b0b0; stroke-width: 0.8; stroke-linecap: square"/>
     </g>
     <g id="line2d_2">
      <defs>
       <path id="mca7661e583" d="M 0 0 
L 0 3.5 
" style="stroke: #000000; stroke-width: 0.8"/>
      </defs>
      <g>
       <use xlink:href="#mca7661e583" x="161.514892" y="534.04" style="stroke: #000000; stroke-width: 0.8"/>
      </g>
     </g>
     <g id="text_1">
      <!-- 1970 -->
      <g transform="translate(148.789892 548.638438) scale(0.1 -0.1)">
       <defs>
        <path id="DejaVuSans-31" d="M 794 531 
L 1825 531 
L 1825 4091 
L 703 3866 
L 703 4441 
L 1819 4666 
L 2450 4666 
L 2450 531 
L 3481 531 
L 3481 0 
L 794 0 
L 794 531 
z
" transform="scale(0.015625)"/>
        <path id="DejaVuSans-39" d="M 703 97 
L 703 672 
Q 941 559 1184 500 
Q 1428 441 1663 441 
Q 2288 441 2617 861 
Q 2947 1281 2994 2138 
Q 2813 1869 2534 1725 
Q 2256 1581 1919 1581 
Q 1219 1581 811 2004 
Q 403 2428 403 3163 
Q 403 3881 828 4315 
Q 1253 4750 1959 4750 
Q 2769 4750 3195 4129 
Q 3622 3509 3622 2328 
Q 3622 1225 3098 567 
Q 2575 -91 1691 -91 
Q 1453 -91 1209 -44 
Q 966 3 703 97 
z
M 1959 2075 
Q 2384 2075 2632 2365 
Q 2881 2656 2881 3163 
Q 2881 3666 2632 3958 
Q 2384 4250 1959 4250 
Q 1534 4250 1286 3958 
Q 1038 3666 1038 3163 
Q 1038 2656 1286 2365 
Q 1534 2075 1959 2075 
z
" transform="scale(0.015625)"/>
        <path id="DejaVuSans-37" d="M 525 4666 
L 3525 4666 
L 3525 4397 
L 1831 0 
L 1172 0 
L 2766 4134 
L 525 4134 
L 525 4666 
z
" transform="scale(0.015625)"/>
        <path id="DejaVuSans-30" d="M 2034 4250 
Q 1547 4250 1301 3770 
Q 1056 3291 1056 2328 
Q 1056 1369 1301 889 
Q 1547 409 2034 409 
Q 2525 409 2770 889 
Q 3016 1369 3016 2328 
Q 3016 3291 2770 3770 
Q 2525 4250 2034 4250 
z
M 2034 4750 
Q 2819 4750 3233 4129 
Q 3647 3509 3647 2328 
Q 3647 1150 3233 529 
Q 2819 -91 2034 -91 
Q 1250 -91 836 529 
Q 422 1150 422 2328 
Q 422 3509 836 4129 
Q 1250 4750 2034 4750 
z
" transform="scale(0.015625)"/>
       </defs>
       <use xlink:href="#DejaVuSans-31"/>
       <use xlink:href="#DejaVuSans-39" x="63.623047"/>
       <use xlink:href="#DejaVuSans-37" x="127.246094"/>
       <use xlink:href="#DejaVuSans-30" x="190.869141"/>
      </g>
     </g>
    </g>
    <g id="xtick_2">
     <g id="line2d_3">
      <path d="M 285.14047 534.04 
L 285.14047 26.88 
" clip-path="url(#p041ebfe070)" style="fill: none; stroke: #b0b0b0; stroke-width: 0.8; stroke-linecap: square"/>
     </g>
     <g id="line2d_4">
      <g>
       <use xlink:href="#mca7661e583" x="285.14047" y="534.04" style="stroke: #000000; stroke-width: 0.8"/>
      </g>
     </g>
     <g id="text_2">
      <!-- 1980 -->
      <g transform="translate(272.41547 548.638438) scale(0.1 -0.1)">
       <defs>
        <path id="DejaVuSans-38" d="M 2034 2216 
Q 1584 2216 1326 1975 
Q 1069 1734 1069 1313 
Q 1069 891 1326 650 
Q 1584 409 2034 409 
Q 2484 409 2743 651 
Q 3003 894 3003 1313 
Q 3003 1734 2745 1975 
Q 2488 2216 2034 2216 
z
M 1403 2484 
Q 997 2584 770 2862 
Q 544 3141 544 3541 
Q 544 4100 942 4425 
Q 1341 4750 2034 4750 
Q 2731 4750 3128 4425 
Q 3525 4100 3525 3541 
Q 3525 3141 3298 2862 
Q 3072 2584 2669 2484 
Q 3125 2378 3379 2068 
Q 3634 1759 3634 1313 
Q 3634 634 3220 271 
Q 2806 -91 2034 -91 
Q 1263 -91 848 271 
Q 434 634 434 1313 
Q 434 1759 690 2068 
Q 947 2378 1403 2484 
z
M 1172 3481 
Q 1172 3119 1398 2916 
Q 1625 2713 2034 2713 
Q 2441 2713 2670 2916 
Q 2900 3119 2900 3481 
Q 2900 3844 2670 4047 
Q 2441 4250 2034 4250 
Q 1625 4250 1398 4047 
Q 1172 3844 1172 3481 
z
" transform="scale(0.015625)"/>
       </defs>
       <use xlink:href="#DejaVuSans-31"/>
       <use xlink:href="#DejaVuSans-39" x="63.623047"/>
       <use xlink:href="#DejaVuSans-38" x="127.246094"/>
       <use xlink:href="#DejaVuSans-30" x="190.869141"/>
      </g>
     </g>
    </g>
    <g id="xtick_3">
     <g id="line2d_5">
      <path d="M 408.766048 534.04 
L 408.766048 26.88 
" clip-path="url(#p041ebfe070)" style="fill: none; stroke: #b0b0b0; stroke-width: 0.8; stroke-linecap: square"/>
     </g>
     <g id="line2d_6">
      <g>
       <use xlink:href="#mca7661e583" x="408.766048" y="534.04" style="stroke: #000000; stroke-width: 0.8"/>
      </g>
     </g>
     <g id="text_3">
      <!-- 1990 -->
      <g transform="translate(396.041048 548.638438) scale(0.1 -0.1)">
       <use xlink:href="#DejaVuSans-31"/>
       <use xlink:href="#DejaVuSans-39" x="63.623047"/>
       <use xlink:href="#DejaVuSans-39" x="127.246094"/>
       <use xlink:href="#DejaVuSans-30" x="190.869141"/>
      </g>
     </g>
    </g>
    <g id="xtick_4">
     <g id="line2d_7">
      <path d="M 532.391626 534.04 
L 532.391626 26.88 
" clip-path="url(#p041ebfe070)" style="fill: none; stroke: #b0b0b0; stroke-width: 0.8; stroke-linecap: square"/>
     </g>
     <g id="line2d_8">
      <g>
       <use xlink:href="#mca7661e583" x="532.391626" y="534.04" style="stroke: #000000; stroke-width: 0.8"/>
      </g>
     </g>
     <g id="text_4">
      <!-- 2000 -->
      <g transform="translate(519.666626 548.638438) scale(0.1 -0.1)">
       <defs>
        <path id="DejaVuSans-32" d="M 1228 531 
L 3431 531 
L 3431 0 
L 469 0 
L 469 531 
Q 828 903 1448 1529 
Q 2069 2156 2228 2338 
Q 2531 2678 2651 2914 
Q 2772 3150 2772 3378 
Q 2772 3750 2511 3984 
Q 2250 4219 1831 4219 
Q 1534 4219 1204 4116 
Q 875 4013 500 3803 
L 500 4441 
Q 881 4594 1212 4672 
Q 1544 4750 1819 4750 
Q 2544 4750 2975 4387 
Q 3406 4025 3406 3419 
Q 3406 3131 3298 2873 
Q 3191 2616 2906 2266 
Q 2828 2175 2409 1742 
Q 1991 1309 1228 531 
z
" transform="scale(0.015625)"/>
       </defs>
       <use xlink:href="#DejaVuSans-32"/>
       <use xlink:href="#DejaVuSans-30" x="63.623047"/>
       <use xlink:href="#DejaVuSans-30" x="127.246094"/>
       <use xlink:href="#DejaVuSans-30" x="190.869141"/>
      </g>
     </g>
    </g>
    <g id="xtick_5">
     <g id="line2d_9">
      <path d="M 656.017203 534.04 
L 656.017203 26.88 
" clip-path="url(#p041ebfe070)" style="fill: none; stroke: #b0b0b0; stroke-width: 0.8; stroke-linecap: square"/>
     </g>
     <g id="line2d_10">
      <g>
       <use xlink:href="#mca7661e583" x="656.017203" y="534.04" style="stroke: #000000; stroke-width: 0.8"/>
      </g>
     </g>
     <g id="text_5">
      <!-- 2010 -->
      <g transform="translate(643.292203 548.638438) scale(0.1 -0.1)">
       <use xlink:href="#DejaVuSans-32"/>
       <use xlink:href="#DejaVuSans-30" x="63.623047"/>
       <use xlink:href="#DejaVuSans-31" x="127.246094"/>
       <use xlink:href="#DejaVuSans-30" x="190.869141"/>
      </g>
     </g>
    </g>
    <g id="xtick_6">
     <g id="line2d_11">
      <path d="M 779.642781 534.04 
L 779.642781 26.88 
" clip-path="url(#p041ebfe070)" style="fill: none; stroke: #b0b0b0; stroke-width: 0.8; stroke-linecap: square"/>
     </g>
     <g id="line2d_12">
      <g>
       <use xlink:href="#mca7661e583" x="779.642781" y="534.04" style="stroke: #000000; stroke-width: 0.8"/>
      </g>
     </g>
     <g id="text_6">
      <!-- 2020 -->
      <g transform="translate(766.917781 548.638438) scale(0.1 -0.1)">
       <use xlink:href="#DejaVuSans-32"/>
       <use xlink:href="#DejaVuSans-30" x="63.623047"/>
       <use xlink:href="#DejaVuSans-32" x="127.246094"/>
       <use xlink:href="#DejaVuSans-30" x="190.869141"/>
      </g>
     </g>
    </g>
    <g id="text_7">
     <!-- Year -->
     <g transform="translate(441.4475 562.316562) scale(0.1 -0.1)">
      <defs>
       <path id="DejaVuSans-59" d="M -13 4666 
L 666 4666 
L 1959 2747 
L 3244 4666 
L 3922 4666 
L 2272 2222 
L 2272 0 
L 1638 0 
L 1638 2222 
L -13 4666 
z
" transform="scale(0.015625)"/>
       <path id="DejaVuSans-65" d="M 3597 1894 
L 3597 1613 
L 953 1613 
Q 991 1019 1311 708 
Q 1631 397 2203 397 
Q 2534 397 2845 478 
Q 3156 559 3463 722 
L 3463 178 
Q 3153 47 2828 -22 
Q 2503 -91 2169 -91 
Q 1331 -91 842 396 
Q 353 884 353 1716 
Q 353 2575 817 3079 
Q 1281 3584 2069 3584 
Q 2775 3584 3186 3129 
Q 3597 2675 3597 1894 
z
M 3022 2063 
Q 3016 2534 2758 2815 
Q 2500 3097 2075 3097 
Q 1594 3097 1305 2825 
Q 1016 2553 972 2059 
L 3022 2063 
z
" transform="scale(0.015625)"/>
       <path id="DejaVuSans-61" d="M 2194 1759 
Q 1497 1759 1228 1600 
Q 959 1441 959 1056 
Q 959 750 1161 570 
Q 1363 391 1709 391 
Q 2188 391 2477 730 
Q 2766 1069 2766 1631 
L 2766 1759 
L 2194 1759 
z
M 3341 1997 
L 3341 0 
L 2766 0 
L 2766 531 
Q 2569 213 2275 61 
Q 1981 -91 1556 -91 
Q 1019 -91 701 211 
Q 384 513 384 1019 
Q 384 1609 779 1909 
Q 1175 2209 1959 2209 
L 2766 2209 
L 2766 2266 
Q 2766 2663 2505 2880 
Q 2244 3097 1772 3097 
Q 1472 3097 1187 3025 
Q 903 2953 641 2809 
L 641 3341 
Q 956 3463 1253 3523 
Q 1550 3584 1831 3584 
Q 2591 3584 2966 3190 
Q 3341 2797 3341 1997 
z
" transform="scale(0.015625)"/>
       <path id="DejaVuSans-72" d="M 2631 2963 
Q 2534 3019 2420 3045 
Q 2306 3072 2169 3072 
Q 1681 3072 1420 2755 
Q 1159 2438 1159 1844 
L 1159 0 
L 581 0 
L 581 3500 
L 1159 3500 
L 1159 2956 
Q 1341 3275 1631 3429 
Q 1922 3584 2338 3584 
Q 2397 3584 2469 3576 
Q 2541 3569 2628 3553 
L 2631 2963 
z
" transform="scale(0.015625)"/>
      </defs>
      <use xlink:href="#DejaVuSans-59"/>
      <use xlink:href="#DejaVuSans-65" x="47.833984"/>
      <use xlink:href="#DejaVuSans-61" x="109.357422"/>
      <use xlink:href="#DejaVuSans-72" x="170.636719"/>
     </g>
    </g>
   </g>
   <g id="matplotlib.axis_2">
    <g id="ytick_1">
     <g id="line2d_13">
      <path d="M 50.87 519.588866 
L 853.2 519.588866 
" clip-path="url(#p041ebfe070)" style="fill: none; stroke: #b0b0b0; stroke-width: 0.8; stroke-linecap: square"/>
     </g>
     <g id="line2d_14">
      <defs>
       <path id="m9a68599ff7" d="M 0 0 
L -3.5 0 
" style="stroke: #000000; stroke-width: 0.8"/>
      </defs>
      <g>
       <use xlink:href="#m9a68599ff7" x="50.87" y="519.588866" style="stroke: #000000; stroke-width: 0.8"/>
      </g>
     </g>
     <g id="text_8">
      <!-- 0 -->
      <g transform="translate(37.5075 523.388085) scale(0.1 -0.1)">
       <use xlink:href="#DejaVuSans-30"/>
      </g>
     </g>
    </g>
    <g id="ytick_2">
     <g id="line2d_15">
      <path d="M 50.87 456.331946 
L 853.2 456.331946 
" clip-path="url(#p041ebfe070)" style="fill: none; stroke: #b0b0b0; stroke-width: 0.8; stroke-linecap: square"/>
     </g>
     <g id="line2d_16">
      <g>
       <use xlink:href="#m9a68599ff7" x="50.87" y="456.331946" style="stroke: #000000; stroke-width: 0.8"/>
      </g>
     </g>
     <g id="text_9">
      <!-- 100 -->
      <g transform="translate(24.7825 460.131164) scale(0.1 -0.1)">
       <use xlink:href="#DejaVuSans-31"/>
       <use xlink:href="#DejaVuSans-30" x="63.623047"/>
       <use xlink:href="#DejaVuSans-30" x="127.246094"/>
      </g>
     </g>
    </g>
    <g id="ytick_3">
     <g id="line2d_17">
      <path d="M 50.87 393.075025 
L 853.2 393.075025 
" clip-path="url(#p041ebfe070)" style="fill: none; stroke: #b0b0b0; stroke-width: 0.8; stroke-linecap: square"/>
     </g>
     <g id="line2d_18">
      <g>
       <use xlink:href="#m9a68599ff7" x="50.87" y="393.075025" style="stroke: #000000; stroke-width: 0.8"/>
      </g>
     </g>
     <g id="text_10">
      <!-- 200 -->
      <g transform="translate(24.7825 396.874244) scale(0.1 -0.1)">
       <use xlink:href="#DejaVuSans-32"/>
       <use xlink:href="#DejaVuSans-30" x="63.623047"/>
       <use xlink:href="#DejaVuSans-30" x="127.246094"/>
      </g>
     </g>
    </g>
    <g id="ytick_4">
     <g id="line2d_19">
      <path d="M 50.87 329.818105 
L 853.2 329.818105 
" clip-path="url(#p041ebfe070)" style="fill: none; stroke: #b0b0b0; stroke-width: 0.8; stroke-linecap: square"/>
     </g>
     <g id="line2d_20">
      <g>
       <use xlink:href="#m9a68599ff7" x="50.87" y="329.818105" style="stroke: #000000; stroke-width: 0.8"/>
      </g>
     </g>
     <g id="text_11">
      <!-- 300 -->
      <g transform="translate(24.7825 333.617324) scale(0.1 -0.1)">
       <defs>
        <path id="DejaVuSans-33" d="M 2597 2516 
Q 3050 2419 3304 2112 
Q 3559 1806 3559 1356 
Q 3559 666 3084 287 
Q 2609 -91 1734 -91 
Q 1441 -91 1130 -33 
Q 819 25 488 141 
L 488 750 
Q 750 597 1062 519 
Q 1375 441 1716 441 
Q 2309 441 2620 675 
Q 2931 909 2931 1356 
Q 2931 1769 2642 2001 
Q 2353 2234 1838 2234 
L 1294 2234 
L 1294 2753 
L 1863 2753 
Q 2328 2753 2575 2939 
Q 2822 3125 2822 3475 
Q 2822 3834 2567 4026 
Q 2313 4219 1838 4219 
Q 1578 4219 1281 4162 
Q 984 4106 628 3988 
L 628 4550 
Q 988 4650 1302 4700 
Q 1616 4750 1894 4750 
Q 2613 4750 3031 4423 
Q 3450 4097 3450 3541 
Q 3450 3153 3228 2886 
Q 3006 2619 2597 2516 
z
" transform="scale(0.015625)"/>
       </defs>
       <use xlink:href="#DejaVuSans-33"/>
       <use xlink:href="#DejaVuSans-30" x="63.623047"/>
       <use xlink:href="#DejaVuSans-30" x="127.246094"/>
      </g>
     </g>
    </g>
    <g id="ytick_5">
     <g id="line2d_21">
      <path d="M 50.87 266.561185 
L 853.2 266.561185 
" clip-path="url(#p041ebfe070)" style="fill: none; stroke: #b0b0b0; stroke-width: 0.8; stroke-linecap: square"/>
     </g>
     <g id="line2d_22">
      <g>
       <use xlink:href="#m9a68599ff7" x="50.87" y="266.561185" style="stroke: #000000; stroke-width: 0.8"/>
      </g>
     </g>
     <g id="text_12">
      <!-- 400 -->
      <g transform="translate(24.7825 270.360403) scale(0.1 -0.1)">
       <defs>
        <path id="DejaVuSans-34" d="M 2419 4116 
L 825 1625 
L 2419 1625 
L 2419 4116 
z
M 2253 4666 
L 3047 4666 
L 3047 1625 
L 3713 1625 
L 3713 1100 
L 3047 1100 
L 3047 0 
L 2419 0 
L 2419 1100 
L 313 1100 
L 313 1709 
L 2253 4666 
z
" transform="scale(0.015625)"/>
       </defs>
       <use xlink:href="#DejaVuSans-34"/>
       <use xlink:href="#DejaVuSans-30" x="63.623047"/>
       <use xlink:href="#DejaVuSans-30" x="127.246094"/>
      </g>
     </g>
    </g>
    <g id="ytick_6">
     <g id="line2d_23">
      <path d="M 50.87 203.304264 
L 853.2 203.304264 
" clip-path="url(#p041ebfe070)" style="fill: none; stroke: #b0b0b0; stroke-width: 0.8; stroke-linecap: square"/>
     </g>
     <g id="line2d_24">
      <g>
       <use xlink:href="#m9a68599ff7" x="50.87" y="203.304264" style="stroke: #000000; stroke-width: 0.8"/>
      </g>
     </g>
     <g id="text_13">
      <!-- 500 -->
      <g transform="translate(24.7825 207.103483) scale(0.1 -0.1)">
       <defs>
        <path id="DejaVuSans-35" d="M 691 4666 
L 3169 4666 
L 3169 4134 
L 1269 4134 
L 1269 2991 
Q 1406 3038 1543 3061 
Q 1681 3084 1819 3084 
Q 2600 3084 3056 2656 
Q 3513 2228 3513 1497 
Q 3513 744 3044 326 
Q 2575 -91 1722 -91 
Q 1428 -91 1123 -41 
Q 819 9 494 109 
L 494 744 
Q 775 591 1075 516 
Q 1375 441 1709 441 
Q 2250 441 2565 725 
Q 2881 1009 2881 1497 
Q 2881 1984 2565 2268 
Q 2250 2553 1709 2553 
Q 1456 2553 1204 2497 
Q 953 2441 691 2322 
L 691 4666 
z
" transform="scale(0.015625)"/>
       </defs>
       <use xlink:href="#DejaVuSans-35"/>
       <use xlink:href="#DejaVuSans-30" x="63.623047"/>
       <use xlink:href="#DejaVuSans-30" x="127.246094"/>
      </g>
     </g>
    </g>
    <g id="ytick_7">
     <g id="line2d_25">
      <path d="M 50.87 140.047344 
L 853.2 140.047344 
" clip-path="url(#p041ebfe070)" style="fill: none; stroke: #b0b0b0; stroke-width: 0.8; stroke-linecap: square"/>
     </g>
     <g id="line2d_26">
      <g>
       <use xlink:href="#m9a68599ff7" x="50.87" y="140.047344" style="stroke: #000000; stroke-width: 0.8"/>
      </g>
     </g>
     <g id="text_14">
      <!-- 600 -->
      <g transform="translate(24.7825 143.846563) scale(0.1 -0.1)">
       <defs>
        <path id="DejaVuSans-36" d="M 2113 2584 
Q 1688 2584 1439 2293 
Q 1191 2003 1191 1497 
Q 1191 994 1439 701 
Q 1688 409 2113 409 
Q 2538 409 2786 701 
Q 3034 994 3034 1497 
Q 3034 2003 2786 2293 
Q 2538 2584 2113 2584 
z
M 3366 4563 
L 3366 3988 
Q 3128 4100 2886 4159 
Q 2644 4219 2406 4219 
Q 1781 4219 1451 3797 
Q 1122 3375 1075 2522 
Q 1259 2794 1537 2939 
Q 1816 3084 2150 3084 
Q 2853 3084 3261 2657 
Q 3669 2231 3669 1497 
Q 3669 778 3244 343 
Q 2819 -91 2113 -91 
Q 1303 -91 875 529 
Q 447 1150 447 2328 
Q 447 3434 972 4092 
Q 1497 4750 2381 4750 
Q 2619 4750 2861 4703 
Q 3103 4656 3366 4563 
z
" transform="scale(0.015625)"/>
       </defs>
       <use xlink:href="#DejaVuSans-36"/>
       <use xlink:href="#DejaVuSans-30" x="63.623047"/>
       <use xlink:href="#DejaVuSans-30" x="127.246094"/>
      </g>
     </g>
    </g>
    <g id="ytick_8">
     <g id="line2d_27">
      <path d="M 50.87 76.790424 
L 853.2 76.790424 
" clip-path="url(#p041ebfe070)" style="fill: none; stroke: #b0b0b0; stroke-width: 0.8; stroke-linecap: square"/>
     </g>
     <g id="line2d_28">
      <g>
       <use xlink:href="#m9a68599ff7" x="50.87" y="76.790424" style="stroke: #000000; stroke-width: 0.8"/>
      </g>
     </g>
     <g id="text_15">
      <!-- 700 -->
      <g transform="translate(24.7825 80.589643) scale(0.1 -0.1)">
       <use xlink:href="#DejaVuSans-37"/>
       <use xlink:href="#DejaVuSans-30" x="63.623047"/>
       <use xlink:href="#DejaVuSans-30" x="127.246094"/>
      </g>
     </g>
    </g>
    <g id="text_16">
     <!-- Dollars (in Millions) -->
     <g transform="translate(18.702813 328.212344) rotate(-90) scale(0.1 -0.1)">
      <defs>
       <path id="DejaVuSans-44" d="M 1259 4147 
L 1259 519 
L 2022 519 
Q 2988 519 3436 956 
Q 3884 1394 3884 2338 
Q 3884 3275 3436 3711 
Q 2988 4147 2022 4147 
L 1259 4147 
z
M 628 4666 
L 1925 4666 
Q 3281 4666 3915 4102 
Q 4550 3538 4550 2338 
Q 4550 1131 3912 565 
Q 3275 0 1925 0 
L 628 0 
L 628 4666 
z
" transform="scale(0.015625)"/>
       <path id="DejaVuSans-6f" d="M 1959 3097 
Q 1497 3097 1228 2736 
Q 959 2375 959 1747 
Q 959 1119 1226 758 
Q 1494 397 1959 397 
Q 2419 397 2687 759 
Q 2956 1122 2956 1747 
Q 2956 2369 2687 2733 
Q 2419 3097 1959 3097 
z
M 1959 3584 
Q 2709 3584 3137 3096 
Q 3566 2609 3566 1747 
Q 3566 888 3137 398 
Q 2709 -91 1959 -91 
Q 1206 -91 779 398 
Q 353 888 353 1747 
Q 353 2609 779 3096 
Q 1206 3584 1959 3584 
z
" transform="scale(0.015625)"/>
       <path id="DejaVuSans-6c" d="M 603 4863 
L 1178 4863 
L 1178 0 
L 603 0 
L 603 4863 
z
" transform="scale(0.015625)"/>
       <path id="DejaVuSans-73" d="M 2834 3397 
L 2834 2853 
Q 2591 2978 2328 3040 
Q 2066 3103 1784 3103 
Q 1356 3103 1142 2972 
Q 928 2841 928 2578 
Q 928 2378 1081 2264 
Q 1234 2150 1697 2047 
L 1894 2003 
Q 2506 1872 2764 1633 
Q 3022 1394 3022 966 
Q 3022 478 2636 193 
Q 2250 -91 1575 -91 
Q 1294 -91 989 -36 
Q 684 19 347 128 
L 347 722 
Q 666 556 975 473 
Q 1284 391 1588 391 
Q 1994 391 2212 530 
Q 2431 669 2431 922 
Q 2431 1156 2273 1281 
Q 2116 1406 1581 1522 
L 1381 1569 
Q 847 1681 609 1914 
Q 372 2147 372 2553 
Q 372 3047 722 3315 
Q 1072 3584 1716 3584 
Q 2034 3584 2315 3537 
Q 2597 3491 2834 3397 
z
" transform="scale(0.015625)"/>
       <path id="DejaVuSans-20" transform="scale(0.015625)"/>
       <path id="DejaVuSans-28" d="M 1984 4856 
Q 1566 4138 1362 3434 
Q 1159 2731 1159 2009 
Q 1159 1288 1364 580 
Q 1569 -128 1984 -844 
L 1484 -844 
Q 1016 -109 783 600 
Q 550 1309 550 2009 
Q 550 2706 781 3412 
Q 1013 4119 1484 4856 
L 1984 4856 
z
" transform="scale(0.015625)"/>
       <path id="DejaVuSans-69" d="M 603 3500 
L 1178 3500 
L 1178 0 
L 603 0 
L 603 3500 
z
M 603 4863 
L 1178 4863 
L 1178 4134 
L 603 4134 
L 603 4863 
z
" transform="scale(0.015625)"/>
       <path id="DejaVuSans-6e" d="M 3513 2113 
L 3513 0 
L 2938 0 
L 2938 2094 
Q 2938 2591 2744 2837 
Q 2550 3084 2163 3084 
Q 1697 3084 1428 2787 
Q 1159 2491 1159 1978 
L 1159 0 
L 581 0 
L 581 3500 
L 1159 3500 
L 1159 2956 
Q 1366 3272 1645 3428 
Q 1925 3584 2291 3584 
Q 2894 3584 3203 3211 
Q 3513 2838 3513 2113 
z
" transform="scale(0.015625)"/>
       <path id="DejaVuSans-4d" d="M 628 4666 
L 1569 4666 
L 2759 1491 
L 3956 4666 
L 4897 4666 
L 4897 0 
L 4281 0 
L 4281 4097 
L 3078 897 
L 2444 897 
L 1241 4097 
L 1241 0 
L 628 0 
L 628 4666 
z
" transform="scale(0.015625)"/>
       <path id="DejaVuSans-29" d="M 513 4856 
L 1013 4856 
Q 1481 4119 1714 3412 
Q 1947 2706 1947 2009 
Q 1947 1309 1714 600 
Q 1481 -109 1013 -844 
L 513 -844 
Q 928 -128 1133 580 
Q 1338 1288 1338 2009 
Q 1338 2731 1133 3434 
Q 928 4138 513 4856 
z
" transform="scale(0.015625)"/>
      </defs>
      <use xlink:href="#DejaVuSans-44"/>
      <use xlink:href="#DejaVuSans-6f" x="77.001953"/>
      <use xlink:href="#DejaVuSans-6c" x="138.183594"/>
      <use xlink:href="#DejaVuSans-6c" x="165.966797"/>
      <use xlink:href="#DejaVuSans-61" x="193.75"/>
      <use xlink:href="#DejaVuSans-72" x="255.029297"/>
      <use xlink:href="#DejaVuSans-73" x="296.142578"/>
      <use xlink:href="#DejaVuSans-20" x="348.242188"/>
      <use xlink:href="#DejaVuSans-28" x="380.029297"/>
      <use xlink:href="#DejaVuSans-69" x="419.042969"/>
      <use xlink:href="#DejaVuSans-6e" x="446.826172"/>
      <use xlink:href="#DejaVuSans-20" x="510.205078"/>
      <use xlink:href="#DejaVuSans-4d" x="541.992188"/>
      <use xlink:href="#DejaVuSans-69" x="628.271484"/>
      <use xlink:href="#DejaVuSans-6c" x="656.054688"/>
      <use xlink:href="#DejaVuSans-6c" x="683.837891"/>
      <use xlink:href="#DejaVuSans-69" x="711.621094"/>
      <use xlink:href="#DejaVuSans-6f" x="739.404297"/>
      <use xlink:href="#DejaVuSans-6e" x="800.585938"/>
      <use xlink:href="#DejaVuSans-73" x="863.964844"/>
      <use xlink:href="#DejaVuSans-29" x="916.064453"/>
     </g>
    </g>
   </g>
   <g id="line2d_29">
    <path d="M 87.339545 510.80989 
L 99.702103 510.620803 
L 112.064661 510.160739 
L 124.427219 510.987273 
L 136.789777 510.143551 
L 149.152334 509.438136 
L 161.514892 508.707726 
L 173.87745 508.53074 
L 186.240008 507.831014 
L 198.602565 504.86907 
L 210.965123 504.905158 
L 223.327681 502.813046 
L 235.690239 501.093573 
L 248.052797 499.282494 
L 260.415354 498.158449 
L 272.777912 494.348955 
L 285.14047 493.192314 
L 297.503028 489.708243 
L 309.865586 487.743057 
L 322.228143 487.179631 
L 334.590701 488.404384 
L 346.953259 491.100759 
L 359.315817 490.382372 
L 371.678374 485.083394 
L 384.040932 481.16507 
L 396.40349 481.917971 
L 408.766048 480.604908 
L 421.128606 473.876033 
L 433.491163 474.156038 
L 445.853721 472.86513 
L 458.216279 455.739432 
L 470.578837 455.134383 
L 482.941394 451.91626 
L 495.303952 432.109329 
L 507.66651 432.807114 
L 520.029068 402.80769 
L 532.391626 400.846254 
L 544.754183 422.184427 
L 557.116741 386.148374 
L 569.479299 389.459684 
L 581.841857 336.72649 
L 594.204414 318.46454 
L 606.566972 326.20997 
L 618.92953 342.040477 
L 631.292088 364.514509 
L 643.654646 369.330345 
L 656.017203 318.398687 
L 668.379761 307.969333 
L 680.742319 303.199897 
L 693.104877 285.295366 
L 705.467435 228.918013 
L 717.829992 201.754274 
L 730.19255 177.739277 
L 742.555108 242.010851 
L 754.917666 209.382788 
L 767.280223 207.870386 
L 779.642781 258.76549 
L 792.005339 49.932727 
L 804.367897 271.561463 
L 816.730455 225.863979 
" clip-path="url(#p041ebfe070)" style="fill: none; stroke: #1f77b4; stroke-width: 1.5; stroke-linecap: square"/>
    <defs>
     <path id="ma717898206" d="M 0 3 
C 0.795609 3 1.55874 2.683901 2.12132 2.12132 
C 2.683901 1.55874 3 0.795609 3 0 
C 3 -0.795609 2.683901 -1.55874 2.12132 -2.12132 
C 1.55874 -2.683901 0.795609 -3 0 -3 
C -0.795609 -3 -1.55874 -2.683901 -2.12132 -2.12132 
C -2.683901 -1.55874 -3 -0.795609 -3 0 
C -3 0.795609 -2.683901 1.55874 -2.12132 2.12132 
C -1.55874 2.683901 -0.795609 3 0 3 
z
" style="stroke: #1f77b4"/>
    </defs>
    <g clip-path="url(#p041ebfe070)">
     <use xlink:href="#ma717898206" x="87.339545" y="510.80989" style="fill: #1f77b4; stroke: #1f77b4"/>
     <use xlink:href="#ma717898206" x="99.702103" y="510.620803" style="fill: #1f77b4; stroke: #1f77b4"/>
     <use xlink:href="#ma717898206" x="112.064661" y="510.160739" style="fill: #1f77b4; stroke: #1f77b4"/>
     <use xlink:href="#ma717898206" x="124.427219" y="510.987273" style="fill: #1f77b4; stroke: #1f77b4"/>
     <use xlink:href="#ma717898206" x="136.789777" y="510.143551" style="fill: #1f77b4; stroke: #1f77b4"/>
     <use xlink:href="#ma717898206" x="149.152334" y="509.438136" style="fill: #1f77b4; stroke: #1f77b4"/>
     <use xlink:href="#ma717898206" x="161.514892" y="508.707726" style="fill: #1f77b4; stroke: #1f77b4"/>
     <use xlink:href="#ma717898206" x="173.87745" y="508.53074" style="fill: #1f77b4; stroke: #1f77b4"/>
     <use xlink:href="#ma717898206" x="186.240008" y="507.831014" style="fill: #1f77b4; stroke: #1f77b4"/>
     <use xlink:href="#ma717898206" x="198.602565" y="504.86907" style="fill: #1f77b4; stroke: #1f77b4"/>
     <use xlink:href="#ma717898206" x="210.965123" y="504.905158" style="fill: #1f77b4; stroke: #1f77b4"/>
     <use xlink:href="#ma717898206" x="223.327681" y="502.813046" style="fill: #1f77b4; stroke: #1f77b4"/>
     <use xlink:href="#ma717898206" x="235.690239" y="501.093573" style="fill: #1f77b4; stroke: #1f77b4"/>
     <use xlink:href="#ma717898206" x="248.052797" y="499.282494" style="fill: #1f77b4; stroke: #1f77b4"/>
     <use xlink:href="#ma717898206" x="260.415354" y="498.158449" style="fill: #1f77b4; stroke: #1f77b4"/>
     <use xlink:href="#ma717898206" x="272.777912" y="494.348955" style="fill: #1f77b4; stroke: #1f77b4"/>
     <use xlink:href="#ma717898206" x="285.14047" y="493.192314" style="fill: #1f77b4; stroke: #1f77b4"/>
     <use xlink:href="#ma717898206" x="297.503028" y="489.708243" style="fill: #1f77b4; stroke: #1f77b4"/>
     <use xlink:href="#ma717898206" x="309.865586" y="487.743057" style="fill: #1f77b4; stroke: #1f77b4"/>
     <use xlink:href="#ma717898206" x="322.228143" y="487.179631" style="fill: #1f77b4; stroke: #1f77b4"/>
     <use xlink:href="#ma717898206" x="334.590701" y="488.404384" style="fill: #1f77b4; stroke: #1f77b4"/>
     <use xlink:href="#ma717898206" x="346.953259" y="491.100759" style="fill: #1f77b4; stroke: #1f77b4"/>
     <use xlink:href="#ma717898206" x="359.315817" y="490.382372" style="fill: #1f77b4; stroke: #1f77b4"/>
     <use xlink:href="#ma717898206" x="371.678374" y="485.083394" style="fill: #1f77b4; stroke: #1f77b4"/>
     <use xlink:href="#ma717898206" x="384.040932" y="481.16507" style="fill: #1f77b4; stroke: #1f77b4"/>
     <use xlink:href="#ma717898206" x="396.40349" y="481.917971" style="fill: #1f77b4; stroke: #1f77b4"/>
     <use xlink:href="#ma717898206" x="408.766048" y="480.604908" style="fill: #1f77b4; stroke: #1f77b4"/>
     <use xlink:href="#ma717898206" x="421.128606" y="473.876033" style="fill: #1f77b4; stroke: #1f77b4"/>
     <use xlink:href="#ma717898206" x="433.491163" y="474.156038" style="fill: #1f77b4; stroke: #1f77b4"/>
     <use xlink:href="#ma717898206" x="445.853721" y="472.86513" style="fill: #1f77b4; stroke: #1f77b4"/>
     <use xlink:href="#ma717898206" x="458.216279" y="455.739432" style="fill: #1f77b4; stroke: #1f77b4"/>
     <use xlink:href="#ma717898206" x="470.578837" y="455.134383" style="fill: #1f77b4; stroke: #1f77b4"/>
     <use xlink:href="#ma717898206" x="482.941394" y="451.91626" style="fill: #1f77b4; stroke: #1f77b4"/>
     <use xlink:href="#ma717898206" x="495.303952" y="432.109329" style="fill: #1f77b4; stroke: #1f77b4"/>
     <use xlink:href="#ma717898206" x="507.66651" y="432.807114" style="fill: #1f77b4; stroke: #1f77b4"/>
     <use xlink:href="#ma717898206" x="520.029068" y="402.80769" style="fill: #1f77b4; stroke: #1f77b4"/>
     <use xlink:href="#ma717898206" x="532.391626" y="400.846254" style="fill: #1f77b4; stroke: #1f77b4"/>
     <use xlink:href="#ma717898206" x="544.754183" y="422.184427" style="fill: #1f77b4; stroke: #1f77b4"/>
     <use xlink:href="#ma717898206" x="557.116741" y="386.148374" style="fill: #1f77b4; stroke: #1f77b4"/>
     <use xlink:href="#ma717898206" x="569.479299" y="389.459684" style="fill: #1f77b4; stroke: #1f77b4"/>
     <use xlink:href="#ma717898206" x="581.841857" y="336.72649" style="fill: #1f77b4; stroke: #1f77b4"/>
     <use xlink:href="#ma717898206" x="594.204414" y="318.46454" style="fill: #1f77b4; stroke: #1f77b4"/>
     <use xlink:href="#ma717898206" x="606.566972" y="326.20997" style="fill: #1f77b4; stroke: #1f77b4"/>
     <use xlink:href="#ma717898206" x="618.92953" y="342.040477" style="fill: #1f77b4; stroke: #1f77b4"/>
     <use xlink:href="#ma717898206" x="631.292088" y="364.514509" style="fill: #1f77b4; stroke: #1f77b4"/>
     <use xlink:href="#ma717898206" x="643.654646" y="369.330345" style="fill: #1f77b4; stroke: #1f77b4"/>
     <use xlink:href="#ma717898206" x="656.017203" y="318.398687" style="fill: #1f77b4; stroke: #1f77b4"/>
     <use xlink:href="#ma717898206" x="668.379761" y="307.969333" style="fill: #1f77b4; stroke: #1f77b4"/>
     <use xlink:href="#ma717898206" x="680.742319" y="303.199897" style="fill: #1f77b4; stroke: #1f77b4"/>
     <use xlink:href="#ma717898206" x="693.104877" y="285.295366" style="fill: #1f77b4; stroke: #1f77b4"/>
     <use xlink:href="#ma717898206" x="705.467435" y="228.918013" style="fill: #1f77b4; stroke: #1f77b4"/>
     <use xlink:href="#ma717898206" x="717.829992" y="201.754274" style="fill: #1f77b4; stroke: #1f77b4"/>
     <use xlink:href="#ma717898206" x="730.19255" y="177.739277" style="fill: #1f77b4; stroke: #1f77b4"/>
     <use xlink:href="#ma717898206" x="742.555108" y="242.010851" style="fill: #1f77b4; stroke: #1f77b4"/>
     <use xlink:href="#ma717898206" x="754.917666" y="209.382788" style="fill: #1f77b4; stroke: #1f77b4"/>
     <use xlink:href="#ma717898206" x="767.280223" y="207.870386" style="fill: #1f77b4; stroke: #1f77b4"/>
     <use xlink:href="#ma717898206" x="779.642781" y="258.76549" style="fill: #1f77b4; stroke: #1f77b4"/>
     <use xlink:href="#ma717898206" x="792.005339" y="49.932727" style="fill: #1f77b4; stroke: #1f77b4"/>
     <use xlink:href="#ma717898206" x="804.367897" y="271.561463" style="fill: #1f77b4; stroke: #1f77b4"/>
     <use xlink:href="#ma717898206" x="816.730455" y="225.863979" style="fill: #1f77b4; stroke: #1f77b4"/>
    </g>
   </g>
   <g id="patch_3">
    <path d="M 50.87 534.04 
L 50.87 26.88 
" style="fill: none; stroke: #000000; stroke-width: 0.8; stroke-linejoin: miter; stroke-linecap: square"/>
   </g>
   <g id="patch_4">
    <path d="M 853.2 534.04 
L 853.2 26.88 
" style="fill: none; stroke: #000000; stroke-width: 0.8; stroke-linejoin: miter; stroke-linecap: square"/>
   </g>
   <g id="patch_5">
    <path d="M 50.87 534.04 
L 853.2 534.04 
" style="fill: none; stroke: #000000; stroke-width: 0.8; stroke-linejoin: miter; stroke-linecap: square"/>
   </g>
   <g id="patch_6">
    <path d="M 50.87 26.88 
L 853.2 26.88 
" style="fill: none; stroke: #000000; stroke-width: 0.8; stroke-linejoin: miter; stroke-linecap: square"/>
   </g>
   <g id="text_17">
    <!-- Lobster Value - Total Over the Years -->
    <g transform="translate(345.475 20.88) scale(0.12 -0.12)">
     <defs>
      <path id="DejaVuSans-4c" d="M 628 4666 
L 1259 4666 
L 1259 531 
L 3531 531 
L 3531 0 
L 628 0 
L 628 4666 
z
" transform="scale(0.015625)"/>
      <path id="DejaVuSans-62" d="M 3116 1747 
Q 3116 2381 2855 2742 
Q 2594 3103 2138 3103 
Q 1681 3103 1420 2742 
Q 1159 2381 1159 1747 
Q 1159 1113 1420 752 
Q 1681 391 2138 391 
Q 2594 391 2855 752 
Q 3116 1113 3116 1747 
z
M 1159 2969 
Q 1341 3281 1617 3432 
Q 1894 3584 2278 3584 
Q 2916 3584 3314 3078 
Q 3713 2572 3713 1747 
Q 3713 922 3314 415 
Q 2916 -91 2278 -91 
Q 1894 -91 1617 61 
Q 1341 213 1159 525 
L 1159 0 
L 581 0 
L 581 4863 
L 1159 4863 
L 1159 2969 
z
" transform="scale(0.015625)"/>
      <path id="DejaVuSans-74" d="M 1172 4494 
L 1172 3500 
L 2356 3500 
L 2356 3053 
L 1172 3053 
L 1172 1153 
Q 1172 725 1289 603 
Q 1406 481 1766 481 
L 2356 481 
L 2356 0 
L 1766 0 
Q 1100 0 847 248 
Q 594 497 594 1153 
L 594 3053 
L 172 3053 
L 172 3500 
L 594 3500 
L 594 4494 
L 1172 4494 
z
" transform="scale(0.015625)"/>
      <path id="DejaVuSans-56" d="M 1831 0 
L 50 4666 
L 709 4666 
L 2188 738 
L 3669 4666 
L 4325 4666 
L 2547 0 
L 1831 0 
z
" transform="scale(0.015625)"/>
      <path id="DejaVuSans-75" d="M 544 1381 
L 544 3500 
L 1119 3500 
L 1119 1403 
Q 1119 906 1312 657 
Q 1506 409 1894 409 
Q 2359 409 2629 706 
Q 2900 1003 2900 1516 
L 2900 3500 
L 3475 3500 
L 3475 0 
L 2900 0 
L 2900 538 
Q 2691 219 2414 64 
Q 2138 -91 1772 -91 
Q 1169 -91 856 284 
Q 544 659 544 1381 
z
M 1991 3584 
L 1991 3584 
z
" transform="scale(0.015625)"/>
      <path id="DejaVuSans-2d" d="M 313 2009 
L 1997 2009 
L 1997 1497 
L 313 1497 
L 313 2009 
z
" transform="scale(0.015625)"/>
      <path id="DejaVuSans-54" d="M -19 4666 
L 3928 4666 
L 3928 4134 
L 2272 4134 
L 2272 0 
L 1638 0 
L 1638 4134 
L -19 4134 
L -19 4666 
z
" transform="scale(0.015625)"/>
      <path id="DejaVuSans-4f" d="M 2522 4238 
Q 1834 4238 1429 3725 
Q 1025 3213 1025 2328 
Q 1025 1447 1429 934 
Q 1834 422 2522 422 
Q 3209 422 3611 934 
Q 4013 1447 4013 2328 
Q 4013 3213 3611 3725 
Q 3209 4238 2522 4238 
z
M 2522 4750 
Q 3503 4750 4090 4092 
Q 4678 3434 4678 2328 
Q 4678 1225 4090 567 
Q 3503 -91 2522 -91 
Q 1538 -91 948 565 
Q 359 1222 359 2328 
Q 359 3434 948 4092 
Q 1538 4750 2522 4750 
z
" transform="scale(0.015625)"/>
      <path id="DejaVuSans-76" d="M 191 3500 
L 800 3500 
L 1894 563 
L 2988 3500 
L 3597 3500 
L 2284 0 
L 1503 0 
L 191 3500 
z
" transform="scale(0.015625)"/>
      <path id="DejaVuSans-68" d="M 3513 2113 
L 3513 0 
L 2938 0 
L 2938 2094 
Q 2938 2591 2744 2837 
Q 2550 3084 2163 3084 
Q 1697 3084 1428 2787 
Q 1159 2491 1159 1978 
L 1159 0 
L 581 0 
L 581 4863 
L 1159 4863 
L 1159 2956 
Q 1366 3272 1645 3428 
Q 1925 3584 2291 3584 
Q 2894 3584 3203 3211 
Q 3513 2838 3513 2113 
z
" transform="scale(0.015625)"/>
     </defs>
     <use xlink:href="#DejaVuSans-4c"/>
     <use xlink:href="#DejaVuSans-6f" x="53.962891"/>
     <use xlink:href="#DejaVuSans-62" x="115.144531"/>
     <use xlink:href="#DejaVuSans-73" x="178.621094"/>
     <use xlink:href="#DejaVuSans-74" x="230.720703"/>
     <use xlink:href="#DejaVuSans-65" x="269.929688"/>
     <use xlink:href="#DejaVuSans-72" x="331.453125"/>
     <use xlink:href="#DejaVuSans-20" x="372.566406"/>
     <use xlink:href="#DejaVuSans-56" x="404.353516"/>
     <use xlink:href="#DejaVuSans-61" x="465.011719"/>
     <use xlink:href="#DejaVuSans-6c" x="526.291016"/>
     <use xlink:href="#DejaVuSans-75" x="554.074219"/>
     <use xlink:href="#DejaVuSans-65" x="617.453125"/>
     <use xlink:href="#DejaVuSans-20" x="678.976562"/>
     <use xlink:href="#DejaVuSans-2d" x="710.763672"/>
     <use xlink:href="#DejaVuSans-20" x="746.847656"/>
     <use xlink:href="#DejaVuSans-54" x="778.634766"/>
     <use xlink:href="#DejaVuSans-6f" x="822.71875"/>
     <use xlink:href="#DejaVuSans-74" x="883.900391"/>
     <use xlink:href="#DejaVuSans-61" x="923.109375"/>
     <use xlink:href="#DejaVuSans-6c" x="984.388672"/>
     <use xlink:href="#DejaVuSans-20" x="1012.171875"/>
     <use xlink:href="#DejaVuSans-4f" x="1043.958984"/>
     <use xlink:href="#DejaVuSans-76" x="1122.669922"/>
     <use xlink:href="#DejaVuSans-65" x="1181.849609"/>
     <use xlink:href="#DejaVuSans-72" x="1243.373047"/>
     <use xlink:href="#DejaVuSans-20" x="1284.486328"/>
     <use xlink:href="#DejaVuSans-74" x="1316.273438"/>
     <use xlink:href="#DejaVuSans-68" x="1355.482422"/>
     <use xlink:href="#DejaVuSans-65" x="1418.861328"/>
     <use xlink:href="#DejaVuSans-20" x="1480.384766"/>
     <use xlink:href="#DejaVuSans-59" x="1512.171875"/>
     <use xlink:href="#DejaVuSans-65" x="1560.005859"/>
     <use xlink:href="#DejaVuSans-61" x="1621.529297"/>
     <use xlink:href="#DejaVuSans-72" x="1682.808594"/>
     <use xlink:href="#DejaVuSans-73" x="1723.921875"/>
    </g>
   </g>
   <g id="legend_1">
    <g id="patch_7">
     <path d="M 57.87 64.23625 
L 113.223125 64.23625 
Q 115.223125 64.23625 115.223125 62.23625 
L 115.223125 33.88 
Q 115.223125 31.88 113.223125 31.88 
L 57.87 31.88 
Q 55.87 31.88 55.87 33.88 
L 55.87 62.23625 
Q 55.87 64.23625 57.87 64.23625 
z
" style="fill: #ffffff; opacity: 0.8; stroke: #cccccc; stroke-linejoin: miter"/>
    </g>
    <g id="text_18">
     <!-- County -->
     <g transform="translate(67.73875 43.478437) scale(0.1 -0.1)">
      <defs>
       <path id="DejaVuSans-43" d="M 4122 4306 
L 4122 3641 
Q 3803 3938 3442 4084 
Q 3081 4231 2675 4231 
Q 1875 4231 1450 3742 
Q 1025 3253 1025 2328 
Q 1025 1406 1450 917 
Q 1875 428 2675 428 
Q 3081 428 3442 575 
Q 3803 722 4122 1019 
L 4122 359 
Q 3791 134 3420 21 
Q 3050 -91 2638 -91 
Q 1578 -91 968 557 
Q 359 1206 359 2328 
Q 359 3453 968 4101 
Q 1578 4750 2638 4750 
Q 3056 4750 3426 4639 
Q 3797 4528 4122 4306 
z
" transform="scale(0.015625)"/>
       <path id="DejaVuSans-79" d="M 2059 -325 
Q 1816 -950 1584 -1140 
Q 1353 -1331 966 -1331 
L 506 -1331 
L 506 -850 
L 844 -850 
Q 1081 -850 1212 -737 
Q 1344 -625 1503 -206 
L 1606 56 
L 191 3500 
L 800 3500 
L 1894 763 
L 2988 3500 
L 3597 3500 
L 2059 -325 
z
" transform="scale(0.015625)"/>
      </defs>
      <use xlink:href="#DejaVuSans-43"/>
      <use xlink:href="#DejaVuSans-6f" x="69.824219"/>
      <use xlink:href="#DejaVuSans-75" x="131.005859"/>
      <use xlink:href="#DejaVuSans-6e" x="194.384766"/>
      <use xlink:href="#DejaVuSans-74" x="257.763672"/>
      <use xlink:href="#DejaVuSans-79" x="296.972656"/>
     </g>
    </g>
    <g id="line2d_30">
     <path d="M 59.87 54.656562 
L 69.87 54.656562 
L 79.87 54.656562 
" style="fill: none; stroke: #1f77b4; stroke-width: 1.5; stroke-linecap: square"/>
     <g>
      <use xlink:href="#ma717898206" x="69.87" y="54.656562" style="fill: #1f77b4; stroke: #1f77b4"/>
     </g>
    </g>
    <g id="text_19">
     <!-- Total -->
     <g transform="translate(87.87 58.156562) scale(0.1 -0.1)">
      <use xlink:href="#DejaVuSans-54"/>
      <use xlink:href="#DejaVuSans-6f" x="44.083984"/>
      <use xlink:href="#DejaVuSans-74" x="105.265625"/>
      <use xlink:href="#DejaVuSans-61" x="144.474609"/>
      <use xlink:href="#DejaVuSans-6c" x="205.753906"/>
     </g>
    </g>
   </g>
  </g>
 </g>
 <defs>
  <clipPath id="p041ebfe070">
   <rect x="50.87" y="26.88" width="802.33" height="507.16"/>
  </clipPath>
 </defs>
</svg>
